<?xml version="1.0" encoding="utf-8"?>
<!-- Generator: Adobe Illustrator 22.1.0, SVG Export Plug-In . SVG Version: 6.00 Build 0)  -->
<svg version="1.1" id="Layer_1" xmlns="http://www.w3.org/2000/svg" xmlns:xlink="http://www.w3.org/1999/xlink" x="0px" y="0px"
	 viewBox="0 0 160 160" style="enable-background:new 0 0 160 160;" xml:space="preserve">
<style type="text/css">
	.st0{clip-path:url(#SVGID_2_);fill:url(#SVGID_3_);}
	.st1{clip-path:url(#SVGID_5_);fill:none;stroke:#939598;stroke-width:0.6;}
	.st2{clip-path:url(#SVGID_5_);fill:none;stroke:#C7865E;stroke-width:0.259;}
	.st3{clip-path:url(#SVGID_5_);fill:#E5A076;}
	.st4{clip-path:url(#SVGID_5_);fill:#EBA579;}
	.st5{clip-path:url(#SVGID_5_);fill:none;stroke:#808285;stroke-width:0.6;}
</style>
<g>
	<defs>
		<path id="SVGID_1_" d="M27.3,79.7c0,29,23.5,52.5,52.5,52.5s52.5-23.5,52.5-52.5s-23.5-52.5-52.5-52.5S27.3,50.7,27.3,79.7"/>
	</defs>
	<clipPath id="SVGID_2_">
		<use xlink:href="#SVGID_1_"  style="overflow:visible;"/>
	</clipPath>
	
		<radialGradient id="SVGID_3_" cx="1.2583" cy="160.4469" r="0.9995" gradientTransform="matrix(-29.0397 -44.2086 -44.2086 29.0397 7209.48 -4523.9644)" gradientUnits="userSpaceOnUse">
		<stop  offset="0" style="stop-color:#FED2A1"/>
		<stop  offset="1" style="stop-color:#F9B684"/>
	</radialGradient>
	<polygon class="st0" points="58.9,180.4 -20.9,58.9 100.7,-20.9 180.5,100.6 	"/>
</g>
<g>
	<defs>
		<rect id="SVGID_4_" x="18" y="19.9" width="123.6" height="113.6"/>
	</defs>
	<clipPath id="SVGID_5_">
		<use xlink:href="#SVGID_4_"  style="overflow:visible;"/>
	</clipPath>
	<circle class="st1" cx="79.8" cy="79.7" r="52.5"/>
	<path class="st2" d="M79.7,112.3l0,1.4 M79,112.3l0,1.4 M78.3,112.3l-0.1,1.4 M77.6,112.3l-0.1,1.4 M77,112.2l-0.1,1.4 M76.3,112.2
		l-0.2,1.4 M75.6,112.1l-0.2,1.4 M74.9,112l-0.2,1.4 M74.3,111.9l-0.2,1.4 M73.6,111.8l-0.3,1.4 M72.9,111.6l-0.3,1.4 M72.3,111.5
		l-0.3,1.3 M71.6,111.3l-0.4,1.3 M70.9,111.1l-0.4,1.3 M70.3,110.9l-0.4,1.3 M69.6,110.7l-0.4,1.3 M69,110.5l-0.5,1.3 M68.4,110.3
		l-0.5,1.3 M67.7,110l-0.5,1.3 M67.1,109.8l-0.6,1.3 M66.5,109.5l-0.6,1.3 M65.9,109.2l-0.6,1.3 M65.2,108.9l-0.6,1.2 M64.6,108.6
		l-0.6,1.2 M64,108.3l-0.7,1.2 M63.5,108l-0.7,1.2 M62.9,107.6l-0.7,1.2 M62.3,107.2l-0.7,1.2 M61.7,106.9L61,108 M61.2,106.5
		l-0.8,1.1 M60.6,106.1l-0.8,1.1 M60.1,105.7l-0.8,1.1 M59.5,105.3l-0.9,1.1 M59,104.9l-0.9,1.1 M58.5,104.4l-0.9,1.1 M58,104
		l-0.9,1 M57.5,103.5l-0.9,1 M57,103l-1,1 M56.5,102.5l-1,1 M56,102.1l-1,0.9 M55.6,101.6l-1,0.9 M55.1,101l-1.1,0.9 M54.7,100.5
		l-1.1,0.9 M54.2,100l-1.1,0.9 M53.8,99.5l-1.1,0.8 M53.4,98.9l-1.1,0.8 M53,98.4l-1.1,0.8 M52.6,97.8l-1.2,0.8 M52.3,97.2L51.1,98
		 M51.9,96.6l-1.2,0.7 M51.6,96.1l-1.2,0.7 M51.2,95.5L50,96.1 M50.9,94.9l-1.2,0.6 M50.6,94.3l-1.2,0.6 M50.3,93.7L49,94.2 M50,93
		l-1.3,0.6 M49.7,92.4l-1.3,0.5 M49.5,91.8l-1.3,0.5 M49.2,91.2l-1.3,0.5 M49,90.5L47.7,91 M48.8,89.9l-1.3,0.4 M48.6,89.2l-1.3,0.4
		 M48.4,88.6l-1.3,0.4 M48.2,87.9l-1.3,0.4 M48.1,87.2l-1.3,0.3 M47.9,86.6l-1.4,0.3 M47.8,85.9l-1.4,0.3 M47.7,85.3l-1.4,0.2
		 M47.5,84.6l-1.4,0.2 M47.4,83.9l-1.4,0.2 M47.4,83.2L46,83.4 M47.3,82.6l-1.4,0.1 M47.3,81.9L45.9,82 M47.2,81.2l-1.4,0.1
		 M47.2,80.5l-1.4,0 M47.2,79.8l-1.4,0 M47.2,79.2l-1.4,0 M47.2,78.5l-1.4-0.1 M47.2,77.8l-1.4-0.1 M47.3,77.1L45.9,77 M47.4,76.4
		L46,76.3 M47.4,75.8L46,75.6 M47.5,75.1l-1.4-0.2 M47.6,74.4l-1.4-0.2 M47.7,73.8l-1.4-0.3 M47.9,73.1l-1.4-0.3 M48,72.4l-1.4-0.3
		 M48.2,71.8l-1.3-0.3 M48.3,71.1L47,70.7 M48.5,70.4l-1.3-0.4 M48.7,69.8l-1.3-0.4 M48.9,69.2l-1.3-0.5 M49.2,68.5L47.9,68
		 M49.4,67.9l-1.3-0.5 M49.7,67.2l-1.3-0.5 M49.9,66.6l-1.3-0.6 M50.2,66L49,65.4 M50.5,65.4l-1.2-0.6 M50.8,64.8l-1.2-0.6
		 M51.1,64.2l-1.2-0.7 M51.5,63.6l-1.2-0.7 M51.8,63l-1.2-0.7 M52.2,62.4L51,61.7 M52.5,61.8l-1.2-0.8 M52.9,61.3l-1.1-0.8
		 M53.3,60.7l-1.1-0.8 M53.7,60.2l-1.1-0.8 M54.1,59.6L53,58.8 M54.5,59.1l-1.1-0.9 M55,58.6l-1.1-0.9 M55.4,58.1l-1-0.9 M55.9,57.6
		l-1-0.9 M56.3,57.1l-1-1 M56.8,56.6l-1-1 M57.3,56.1l-0.9-1 M57.8,55.6l-0.9-1 M58.3,55.2l-0.9-1 M58.8,54.8l-0.9-1.1 M59.4,54.3
		l-0.9-1.1 M59.9,53.9L59,52.8 M60.4,53.5l-0.8-1.1 M61,53.1L60.2,52 M61.5,52.7l-0.8-1.1 M62.1,52.3l-0.8-1.2 M62.7,52L62,50.8
		 M63.3,51.6l-0.7-1.2 M63.9,51.3l-0.7-1.2 M64.4,51l-0.6-1.2 M65,50.6l-0.6-1.2 M65.7,50.3l-0.6-1.3 M66.3,50l-0.6-1.3 M66.9,49.8
		l-0.6-1.3 M67.5,49.5L67,48.2 M68.2,49.3L67.7,48 M68.8,49l-0.5-1.3 M69.4,48.8L69,47.5 M70.1,48.6l-0.4-1.3 M70.7,48.4l-0.4-1.3
		 M71.4,48.2L71,46.9 M72.1,48l-0.3-1.3 M72.7,47.9l-0.3-1.4 M73.4,47.8l-0.3-1.4 M74,47.6l-0.2-1.4 M74.7,47.5l-0.2-1.4 M75.4,47.4
		L75.2,46 M76.1,47.3L75.9,46 M76.7,47.3l-0.1-1.4 M77.4,47.2l-0.1-1.4 M78.1,47.2L78,45.8 M78.8,47.1l-0.1-1.4 M79.5,47.1l0-1.4
		 M80.1,47.1l0-1.4 M80.8,47.1l0.1-1.4 M81.5,47.2l0.1-1.4 M82.2,47.2l0.1-1.4 M82.9,47.3l0.1-1.4 M83.5,47.3l0.2-1.4 M84.2,47.4
		l0.2-1.4 M84.9,47.5l0.2-1.4 M85.6,47.6l0.2-1.4 M86.2,47.8l0.3-1.4 M86.9,47.9l0.3-1.4 M87.5,48l0.3-1.3 M88.2,48.2l0.4-1.3
		 M88.9,48.4l0.4-1.3 M89.5,48.6l0.4-1.3 M90.2,48.8l0.4-1.3 M90.8,49l0.5-1.3 M91.4,49.3l0.5-1.3 M92.1,49.5l0.5-1.3 M92.7,49.8
		l0.6-1.3 M93.3,50l0.6-1.3 M93.9,50.3l0.6-1.3 M94.6,50.6l0.6-1.2 M95.2,51l0.6-1.2 M95.7,51.3l0.7-1.2 M96.3,51.6l0.7-1.2
		 M96.9,52l0.7-1.2 M97.5,52.3l0.8-1.2 M98.1,52.7l0.8-1.1 M98.6,53.1l0.8-1.1 M99.2,53.5l0.8-1.1 M99.7,53.9l0.8-1.1 M100.2,54.3
		l0.9-1.1 M100.8,54.8l0.9-1.1 M101.3,55.2l0.9-1 M101.8,55.6l0.9-1 M102.3,56.1l0.9-1 M102.8,56.6l1-1 M103.3,57.1l1-1 M103.7,57.6
		l1-0.9 M104.2,58.1l1-0.9 M104.6,58.6l1.1-0.9 M105.1,59.1l1.1-0.9 M105.5,59.6l1.1-0.8 M105.9,60.2l1.1-0.8 M106.3,60.7l1.1-0.8
		 M106.7,61.3l1.1-0.8 M107.1,61.8l1.2-0.8 M107.4,62.4l1.2-0.7 M107.8,63l1.2-0.7 M108.1,63.6l1.2-0.7 M108.5,64.2l1.2-0.7
		 M108.8,64.8l1.2-0.6 M109.1,65.4l1.2-0.6 M109.4,66l1.3-0.6 M109.7,66.6l1.3-0.6 M109.9,67.2l1.3-0.5 M110.2,67.9l1.3-0.5
		 M110.4,68.5l1.3-0.5 M110.7,69.2l1.3-0.5 M110.9,69.8l1.3-0.4 M111.1,70.4l1.3-0.4 M111.3,71.1l1.3-0.4 M111.4,71.8l1.3-0.3
		 M111.6,72.4l1.4-0.3 M111.7,73.1l1.4-0.3 M111.9,73.8l1.4-0.3 M112,74.4l1.4-0.2 M112.1,75.1l1.4-0.2 M112.2,75.8l1.4-0.2
		 M112.2,76.4l1.4-0.1 M112.3,77.1l1.4-0.1 M112.4,77.8l1.4-0.1 M112.4,78.5l1.4-0.1 M112.4,79.2l1.4,0 M112.4,79.8l1.4,0
		 M112.4,80.5l1.4,0 M112.4,81.2l1.4,0.1 M112.3,81.9l1.4,0.1 M112.3,82.6l1.4,0.1 M112.2,83.2l1.4,0.2 M112.1,83.9l1.4,0.2
		 M112.1,84.6l1.4,0.2 M111.9,85.3l1.4,0.2 M111.8,85.9l1.4,0.3 M111.7,86.6l1.4,0.3 M111.5,87.2l1.3,0.3 M111.4,87.9l1.3,0.4
		 M111.2,88.6l1.3,0.4 M111,89.2l1.3,0.4 M110.8,89.9l1.3,0.4 M110.6,90.5l1.3,0.5 M110.4,91.2l1.3,0.5 M110.1,91.8l1.3,0.5
		 M109.9,92.4l1.3,0.5 M109.6,93l1.3,0.6 M109.3,93.7l1.3,0.6 M109,94.3l1.2,0.6 M108.7,94.9l1.2,0.6 M108.4,95.5l1.2,0.7 M108,96.1
		l1.2,0.7 M107.7,96.6l1.2,0.7 M107.3,97.2l1.2,0.7 M107,97.8l1.2,0.8 M106.6,98.4l1.1,0.8 M106.2,98.9l1.1,0.8 M105.8,99.5l1.1,0.8
		 M105.4,100l1.1,0.9 M104.9,100.5l1.1,0.9 M104.5,101l1.1,0.9 M104,101.6l1,0.9 M103.6,102.1l1,0.9 M103.1,102.5l1,1 M102.6,103
		l1,1 M102.1,103.5l0.9,1 M101.6,104l0.9,1 M101.1,104.4l0.9,1.1 M100.6,104.9l0.9,1.1 M100.1,105.3l0.9,1.1 M99.5,105.7l0.8,1.1
		 M99,106.1l0.8,1.1 M98.4,106.5l0.8,1.1 M97.9,106.9l0.8,1.2 M97.3,107.2l0.7,1.2 M96.7,107.6l0.7,1.2 M96.1,108l0.7,1.2
		 M95.6,108.3l0.7,1.2 M95,108.6l0.6,1.2 M94.4,108.9l0.6,1.2 M93.7,109.2l0.6,1.3 M93.1,109.5l0.6,1.3 M92.5,109.8l0.6,1.3
		 M91.9,110l0.5,1.3 M91.2,110.3l0.5,1.3 M90.6,110.5l0.5,1.3 M90,110.7l0.4,1.3 M89.3,110.9l0.4,1.3 M88.7,111.1l0.4,1.3 M88,111.3
		l0.4,1.3 M87.3,111.5l0.3,1.3 M86.7,111.6L87,113 M86,111.8l0.3,1.4 M85.3,111.9l0.2,1.4 M84.7,112l0.2,1.4 M84,112.1l0.2,1.4
		 M83.3,112.2l0.2,1.4 M82.6,112.2l0.1,1.4 M82,112.3l0.1,1.4 M81.3,112.3l0.1,1.4 M80.6,112.3l0,1.4 M79.9,112.3l0,1.4"/>
	<path class="st3" d="M36.5,80.4c0.2-0.1,0.3-0.1,0.4-0.3c0.1-0.1,0.2-0.2,0.2-0.4c0-0.2,0.1-0.3,0.1-0.5c0-0.2,0-0.3-0.1-0.5
		c0-0.2-0.1-0.3-0.2-0.4c-0.1-0.1-0.2-0.2-0.4-0.3C36.4,78,36.2,78,35.9,78c-0.3,0-0.5,0-0.6,0.1c-0.2,0.1-0.3,0.2-0.4,0.3
		c-0.1,0.1-0.2,0.2-0.2,0.4c0,0.1-0.1,0.3-0.1,0.5c0,0.2,0,0.3,0.1,0.5c0,0.2,0.1,0.3,0.2,0.4c0.1,0.1,0.2,0.2,0.4,0.3
		c0.2,0.1,0.4,0.1,0.6,0.1C36.1,80.5,36.4,80.4,36.5,80.4 M39.1,83.8l-0.5,0.1l0.1,0.7c0,0.1,0,0.2,0,0.2c0,0.1,0,0.1-0.1,0.1
		c0,0-0.1,0.1-0.2,0.1c-0.1,0-0.1,0-0.2,0.1l-5.1,0.7l0.1,0.9l0.5,0.5c0.1,0.1,0.2,0.2,0.3,0.4c0.1,0.1,0.2,0.2,0.2,0.3
		c0.1,0.1,0.1,0.2,0.2,0.3c0,0.1,0.1,0.2,0.1,0.3c0.1,0,0.2,0,0.3-0.1c0.1,0,0.1-0.1,0.2-0.1c0-0.1,0.1-0.1,0.1-0.2
		c0-0.1,0-0.1,0-0.2c0-0.1,0-0.2-0.1-0.2c-0.1-0.1-0.1-0.2-0.2-0.2c-0.1-0.1-0.2-0.2-0.3-0.2c-0.1-0.1-0.3-0.2-0.4-0.3l4.2-0.6
		c0.1,0,0.2,0,0.3,0c0.1,0,0.1,0,0.2,0.1c0,0,0.1,0.1,0.1,0.1c0,0.1,0,0.1,0.1,0.2l0.1,0.7l0.5-0.1L39.1,83.8z M39.8,88.6l-0.4,0.1
		l0.2,0.7c0,0.1,0,0.2,0,0.2c0,0.1,0,0.1-0.1,0.2c0,0-0.1,0.1-0.2,0.1c-0.1,0-0.1,0.1-0.2,0.1l-5,1.3l0.2,0.9l0.6,0.5
		c0.1,0.1,0.3,0.2,0.4,0.3c0.1,0.1,0.2,0.2,0.3,0.3c0.1,0.1,0.1,0.2,0.2,0.3c0.1,0.1,0.1,0.2,0.1,0.2c0.1,0,0.2-0.1,0.2-0.1
		c0.1,0,0.1-0.1,0.2-0.2c0-0.1,0.1-0.1,0.1-0.2c0-0.1,0-0.1,0-0.2c0-0.1-0.1-0.2-0.1-0.2c-0.1-0.1-0.1-0.1-0.2-0.2
		c-0.1-0.1-0.2-0.1-0.3-0.2s-0.3-0.1-0.4-0.2l4.1-1.1c0.1,0,0.2,0,0.3,0c0.1,0,0.1,0,0.2,0c0,0,0.1,0.1,0.1,0.1c0,0,0.1,0.1,0.1,0.2
		l0.2,0.7l0.4-0.1L39.8,88.6z M38.2,97.4c-0.3,0.1-0.6,0.1-0.8,0.2c-0.2,0-0.4,0-0.6,0s-0.2-0.2-0.3-0.3c-0.1-0.1,0-0.3,0-0.4
		c0.1-0.1,0.2-0.3,0.4-0.4c0.2-0.1,0.4-0.3,0.7-0.4c0.3-0.1,0.6-0.3,1-0.4c0.4-0.1,0.7-0.3,1-0.4s0.6-0.2,0.8-0.2c0.2,0,0.4,0,0.6,0
		c0.1,0.1,0.2,0.2,0.3,0.3c0.1,0.1,0,0.3,0,0.4s-0.2,0.3-0.4,0.4c-0.2,0.1-0.4,0.3-0.7,0.4c-0.3,0.1-0.6,0.3-1,0.4
		C38.8,97.2,38.5,97.3,38.2,97.4 M37,94.9c-0.3,0.2-0.6,0.4-0.8,0.7c-0.2,0.3-0.3,0.5-0.4,0.8c0,0.3,0,0.6,0.1,1
		c0.1,0.4,0.3,0.7,0.6,0.9c0.2,0.2,0.5,0.3,0.8,0.4c0.3,0.1,0.7,0.1,1,0c0.4-0.1,0.8-0.2,1.2-0.3c0.4-0.2,0.8-0.4,1.2-0.6
		c0.3-0.2,0.6-0.4,0.8-0.7c0.2-0.3,0.3-0.5,0.4-0.8c0-0.3,0-0.6-0.1-1c-0.1-0.3-0.3-0.6-0.5-0.8c-0.2-0.2-0.5-0.3-0.8-0.4
		c-0.3-0.1-0.7-0.1-1.1,0c-0.4,0.1-0.8,0.2-1.2,0.3C37.7,94.5,37.4,94.7,37,94.9 M38.4,100.9c-0.1,0.2-0.2,0.3-0.2,0.5
		c0,0.2,0,0.4,0,0.7c0.1,0.2,0.2,0.5,0.3,0.8c0.1,0.3,0.3,0.5,0.5,0.7c0.2,0.2,0.3,0.3,0.5,0.4c0.2,0.1,0.3,0.1,0.5,0.1
		c0.2,0,0.3,0,0.4-0.1c0.1-0.1,0.2-0.2,0.3-0.3c0.1-0.1,0.1-0.2,0.1-0.3c0-0.1,0-0.2,0-0.4c0-0.1-0.1-0.3-0.2-0.4
		c-0.4,0.2-0.8,0.3-1.1,0.4s-0.5-0.1-0.6-0.4c-0.1-0.2-0.1-0.4,0-0.5c0.1-0.2,0.3-0.3,0.6-0.5c0.2-0.1,0.4-0.2,0.6-0.2
		c0.2-0.1,0.4-0.1,0.6-0.1c0.2,0,0.5,0,0.7,0.1c0.3,0.1,0.6,0.1,0.9,0.2l1.7,0.5l0.8-0.4L43,98.2l-1.6,0.8l0.2,0.4l0.3-0.1
		c0.2,0,0.4,0,0.5,0c0.1,0.1,0.3,0.2,0.3,0.3l0.9,1.8l-1.1-0.4c-0.4-0.1-0.7-0.2-1-0.3c-0.3-0.1-0.6-0.2-0.8-0.2
		c-0.2-0.1-0.4-0.1-0.6-0.1c-0.2,0-0.3,0-0.5,0s-0.3,0-0.4,0c-0.1,0-0.2,0.1-0.4,0.1C38.7,100.6,38.5,100.7,38.4,100.9 M47.3,105.2
		c-0.2-0.1-0.3-0.2-0.5-0.3c-0.2-0.1-0.3-0.1-0.4-0.1c-0.1,0-0.2,0.1-0.3,0.1c-0.2,0.1-0.2,0.3-0.2,0.4c0.1,0,0.2,0,0.3,0
		c0.1,0,0.2,0,0.3,0.1c0.1,0,0.2,0.1,0.3,0.2c0.1,0.1,0.2,0.2,0.3,0.3c0.1,0.1,0.2,0.3,0.2,0.4c0,0.1,0,0.3,0,0.5
		c0,0.2-0.1,0.3-0.3,0.5c-0.1,0.2-0.3,0.3-0.5,0.5l-1.7-2.2l-0.3,0.3c-0.3,0.2-0.5,0.4-0.6,0.7c-0.1,0.2-0.2,0.5-0.3,0.7
		c0,0.2,0,0.5,0.1,0.7c0.1,0.2,0.2,0.5,0.4,0.7c0.2,0.3,0.4,0.5,0.7,0.6c0.2,0.1,0.5,0.2,0.8,0.2c0.3,0,0.6,0,0.9-0.1
		c0.3-0.1,0.6-0.3,0.9-0.5c0.3-0.2,0.5-0.5,0.7-0.7s0.3-0.5,0.3-0.8c0-0.3,0-0.5-0.1-0.8c-0.1-0.3-0.2-0.6-0.5-0.8
		C47.7,105.5,47.5,105.3,47.3,105.2 M44.5,108.1c0-0.1,0-0.2,0.1-0.3c0.1-0.1,0.2-0.2,0.3-0.4c0.1-0.1,0.3-0.3,0.4-0.4l0.9,1.2
		c-0.4,0.3-0.7,0.4-1,0.5c-0.3,0-0.5,0-0.6-0.2C44.5,108.3,44.5,108.2,44.5,108.1 M50.4,108.8c-0.2-0.1-0.4-0.2-0.5-0.2
		c-0.2,0-0.3,0-0.4,0c-0.1,0-0.2,0.1-0.3,0.2c-0.1,0.1-0.1,0.1-0.1,0.2c0,0.1,0,0.2,0,0.2c0.1,0,0.2-0.1,0.3-0.1c0.1,0,0.2,0,0.4,0
		s0.2,0.1,0.4,0.1c0.1,0.1,0.2,0.2,0.3,0.3c0.3,0.3,0.3,0.5,0.2,0.9s-0.3,0.7-0.7,1.1c-0.3,0.3-0.5,0.5-0.7,0.6
		c-0.2,0.1-0.4,0.2-0.5,0.3c-0.2,0.1-0.3,0.1-0.4,0s-0.2-0.1-0.3-0.2c-0.1-0.1-0.1-0.2-0.1-0.3c0-0.1,0-0.2,0-0.3
		c0-0.1,0.1-0.2,0.2-0.3c0.1-0.1,0.2-0.2,0.3-0.3c-0.2-0.2-0.3-0.3-0.4-0.3c-0.1-0.1-0.2-0.1-0.4-0.1c-0.1,0-0.2,0-0.3,0
		c-0.1,0-0.2,0.1-0.2,0.2c-0.1,0.1-0.1,0.2-0.2,0.3s0,0.3,0,0.4c0,0.2,0.1,0.3,0.2,0.5c0.1,0.2,0.3,0.4,0.5,0.6
		c0.2,0.2,0.4,0.4,0.7,0.5c0.2,0.1,0.5,0.2,0.8,0.2c0.3,0,0.5-0.1,0.8-0.2c0.3-0.1,0.6-0.4,0.9-0.7c0.3-0.3,0.5-0.6,0.7-0.9
		c0.1-0.3,0.2-0.6,0.2-0.8c0-0.3-0.1-0.5-0.2-0.8c-0.1-0.2-0.3-0.5-0.5-0.7C50.8,109.1,50.6,108.9,50.4,108.8 M52.9,111.4l-0.3,0.4
		l0,0c0.1,0.1,0.1,0.1,0.2,0.2c0,0.1,0.1,0.1,0.1,0.2c0,0.1,0,0.1,0,0.2c0,0.1-0.1,0.2-0.2,0.3l-1.2,1.6c-0.2,0.2-0.3,0.4-0.4,0.6
		c-0.1,0.2-0.1,0.4-0.1,0.6c0,0.2,0.1,0.3,0.2,0.5c0.1,0.2,0.2,0.3,0.4,0.4c0.1,0.1,0.2,0.2,0.3,0.2c0.1,0.1,0.2,0.1,0.3,0.1
		c0.1,0,0.2,0,0.4,0c0.1,0,0.3-0.1,0.5-0.1l0,0l-0.3,0.5l1.4,1.1l0.3-0.4l0,0c-0.1-0.1-0.1-0.1-0.2-0.2c-0.1-0.1-0.1-0.1-0.1-0.2
		c0-0.1,0-0.1,0-0.2c0-0.1,0.1-0.2,0.1-0.3l1.6-2c0.1-0.1,0.2-0.2,0.2-0.2s0.1-0.1,0.2-0.1c0.1,0,0.1,0,0.2,0.1
		c0.1,0,0.1,0.1,0.2,0.2l0,0l0.3-0.4L55,113l-0.3,0.4l0,0c0.1,0.1,0.1,0.1,0.2,0.2c0.1,0.1,0.1,0.1,0.1,0.2c0,0.1,0,0.1,0,0.2
		c0,0.1-0.1,0.2-0.1,0.3l-1,1.3c-0.1,0.1-0.2,0.3-0.3,0.4c-0.1,0.1-0.2,0.2-0.4,0.3c-0.1,0.1-0.2,0.1-0.4,0.1c-0.1,0-0.2,0-0.3-0.1
		c-0.1-0.1-0.2-0.2-0.2-0.3c0-0.1,0-0.2,0-0.3c0-0.1,0.1-0.2,0.1-0.4c0.1-0.1,0.2-0.3,0.3-0.4l1.7-2.2L52.9,111.4z M59.9,116.8
		l0.2-0.4l-2.3-1.4l-0.2,0.4l0.1,0.1c0.1,0,0.1,0.1,0.2,0.1c0.1,0,0.1,0.1,0.1,0.2c0,0.1,0,0.1,0,0.2c0,0.1,0,0.2-0.1,0.3l-1.8,3.1
		l1.7,1l0.2-0.4l-0.1-0.1c-0.1,0-0.1-0.1-0.2-0.1c-0.1,0-0.1-0.1-0.1-0.2c0-0.1,0-0.1,0-0.2c0-0.1,0-0.2,0.1-0.3l1.3-2.2
		c0.1-0.1,0.1-0.2,0.2-0.2c0.1,0,0.1-0.1,0.2-0.1c0.1,0,0.1,0,0.2,0C59.7,116.7,59.7,116.7,59.9,116.8L59.9,116.8z M56.6,120.9
		c0-0.1,0-0.2,0-0.2c0-0.1-0.1-0.1-0.1-0.2c-0.1-0.1-0.1-0.1-0.2-0.2c-0.1-0.1-0.2-0.1-0.3-0.1c-0.1,0-0.2,0-0.3,0
		c-0.1,0-0.2,0-0.2,0.1c-0.1,0-0.1,0.1-0.2,0.2c-0.1,0.1-0.1,0.2-0.1,0.3c0,0.1,0,0.2,0,0.2c0,0.1,0.1,0.1,0.1,0.2
		c0.1,0.1,0.1,0.1,0.2,0.2c0.1,0.1,0.2,0.1,0.3,0.1c0.1,0,0.2,0,0.3,0c0.1,0,0.2,0,0.2-0.1c0.1,0,0.1-0.1,0.2-0.2
		C56.6,121.1,56.6,121,56.6,120.9 M61.9,117.4c-0.3,0-0.6,0-0.8,0c-0.3,0.1-0.5,0.2-0.7,0.3c-0.2,0.2-0.4,0.4-0.5,0.6
		c-0.1,0.2-0.1,0.4-0.2,0.6c0,0.2,0,0.4,0.1,0.5c0.1,0.2,0.2,0.4,0.3,0.6c0.1,0.2,0.3,0.4,0.5,0.7c0.2,0.2,0.4,0.4,0.5,0.6
		c0.1,0.2,0.2,0.3,0.3,0.5c0.1,0.1,0.1,0.3,0.1,0.4c0,0.1,0,0.2-0.1,0.3c-0.1,0.1-0.1,0.2-0.2,0.3c-0.1,0.1-0.2,0.1-0.3,0.1
		c-0.1,0-0.2,0-0.3,0c-0.1,0-0.2,0-0.3-0.1c-0.1-0.1-0.3-0.2-0.3-0.3c-0.1-0.1-0.1-0.2-0.1-0.4c0-0.1,0-0.3,0-0.4
		c0-0.1,0.1-0.3,0.1-0.4c-0.2-0.1-0.3-0.1-0.4-0.1c-0.1,0-0.3,0-0.4,0c-0.1,0-0.2,0.1-0.3,0.1c-0.1,0.1-0.1,0.1-0.2,0.2
		c-0.1,0.1-0.1,0.3-0.1,0.4c0,0.1,0.1,0.3,0.2,0.4c0.1,0.1,0.2,0.3,0.4,0.4c0.2,0.1,0.4,0.3,0.7,0.4c0.3,0.1,0.5,0.2,0.8,0.2
		c0.3,0,0.5,0,0.7,0c0.2-0.1,0.4-0.2,0.6-0.3c0.2-0.1,0.3-0.3,0.4-0.6c0.1-0.2,0.1-0.4,0.2-0.6c0-0.2,0-0.4,0-0.6
		c0-0.2-0.1-0.4-0.3-0.6c-0.1-0.2-0.3-0.4-0.5-0.7c-0.2-0.2-0.3-0.4-0.4-0.5s-0.2-0.3-0.3-0.4c-0.1-0.1-0.1-0.3-0.1-0.4
		c0-0.1,0-0.3,0.1-0.4c0.1-0.1,0.1-0.2,0.2-0.3c0.1-0.1,0.2-0.1,0.3-0.2c0.1,0,0.2,0,0.4,0c0.1,0,0.3,0.1,0.4,0.1
		c0.2,0.1,0.3,0.2,0.4,0.3c0.1,0.1,0.2,0.3,0.2,0.4c0,0.2,0,0.3,0,0.5c0,0.2-0.1,0.4-0.2,0.6c0.1,0.1,0.2,0.1,0.3,0.1
		c0.1,0,0.2,0,0.3,0s0.2-0.1,0.3-0.1c0.1-0.1,0.2-0.2,0.2-0.3c0.1-0.1,0.1-0.3,0.1-0.4c0-0.2,0-0.3-0.1-0.5
		c-0.1-0.2-0.2-0.3-0.4-0.5c-0.2-0.2-0.5-0.3-0.8-0.5C62.5,117.5,62.2,117.4,61.9,117.4 M69.2,122.6c0-0.2-0.1-0.3-0.1-0.5
		c-0.1-0.1-0.2-0.2-0.3-0.3c-0.1-0.1-0.3-0.1-0.5-0.2c-0.2,0-0.3-0.1-0.5-0.1s-0.3,0-0.4,0.1c-0.1,0.1-0.3,0.2-0.4,0.3
		c-0.1,0.1-0.2,0.3-0.3,0.6c-0.1,0.2-0.1,0.5-0.1,0.6s0.1,0.3,0.1,0.5c0.1,0.1,0.2,0.2,0.3,0.3c0.1,0.1,0.3,0.1,0.4,0.2
		c0.2,0,0.3,0.1,0.5,0.1c0.2,0,0.3,0,0.4-0.1c0.1-0.1,0.3-0.2,0.4-0.3c0.1-0.2,0.2-0.4,0.3-0.6C69.2,123,69.2,122.8,69.2,122.6
		 M76.3,122.4c0.1,0.3,0.1,0.7,0,1.3c0,0.3-0.1,0.5-0.1,0.7s-0.1,0.4-0.2,0.5c-0.1,0.1-0.2,0.2-0.3,0.3c-0.1,0.1-0.2,0.1-0.4,0.1
		c-0.2,0-0.3-0.1-0.4-0.2c-0.1-0.1-0.2-0.2-0.2-0.4c0-0.2-0.1-0.3-0.1-0.6c0-0.2,0-0.5,0-0.7c0-0.3,0.1-0.5,0.1-0.8
		c0.1-0.2,0.1-0.4,0.2-0.5c0.1-0.1,0.2-0.2,0.3-0.3c0.1-0.1,0.3-0.1,0.4-0.1C76,121.9,76.2,122.1,76.3,122.4 M72.9,127.5l2,0.2
		l0.1-0.4l-0.1,0c-0.1,0-0.2,0-0.3,0c-0.1,0-0.2-0.1-0.2-0.1c-0.1,0-0.1-0.1-0.1-0.2c0-0.1,0-0.2,0-0.3l0.1-0.5c0,0,0-0.1,0-0.1
		c0,0,0-0.1,0-0.1c0-0.1,0-0.1,0-0.2c0-0.1,0-0.1,0-0.2c0-0.1,0-0.3,0-0.4l0.1,0c0,0.1,0.1,0.2,0.2,0.3c0.1,0.1,0.2,0.2,0.3,0.2
		c0.1,0.1,0.2,0.1,0.3,0.2c0.1,0,0.3,0.1,0.4,0.1c0.3,0,0.5,0,0.7-0.1c0.2-0.1,0.4-0.2,0.6-0.4c0.2-0.2,0.3-0.4,0.4-0.7
		c0.1-0.3,0.2-0.6,0.2-1.1c0-0.4,0.1-0.8,0-1.1c0-0.3-0.1-0.6-0.3-0.8c-0.1-0.2-0.3-0.4-0.5-0.5c-0.2-0.1-0.4-0.2-0.7-0.2
		c-0.2,0-0.3,0-0.5,0c-0.1,0-0.3,0.1-0.4,0.1c-0.1,0.1-0.2,0.1-0.3,0.2c-0.1,0.1-0.2,0.2-0.3,0.3l-0.1,0l-0.2-0.7l-1.6-0.2l-0.1,0.5
		l0,0c0.1,0,0.2,0,0.3,0.1c0.1,0,0.2,0.1,0.2,0.1s0.1,0.1,0.1,0.2c0,0.1,0,0.2,0,0.3L72.9,127.5z M78.6,121.6l0,0.5h0
		c0.1,0,0.2,0,0.3,0c0.1,0,0.1,0,0.2,0.1c0,0,0.1,0.1,0.1,0.2c0,0.1,0,0.2,0,0.3l0.1,2c0,0.3,0.1,0.5,0.1,0.7
		c0.1,0.2,0.2,0.4,0.3,0.5c0.1,0.1,0.3,0.2,0.5,0.3c0.2,0.1,0.4,0.1,0.6,0.1c0.1,0,0.3,0,0.4,0c0.1,0,0.2-0.1,0.3-0.1
		c0.1-0.1,0.2-0.1,0.3-0.2c0.1-0.1,0.2-0.2,0.3-0.4l0,0l0.1,0.6l1.8-0.1l0-0.5h0c-0.1,0-0.2,0-0.3,0c-0.1,0-0.1,0-0.2-0.1
		c-0.1,0-0.1-0.1-0.1-0.2c0-0.1-0.1-0.2-0.1-0.3l-0.1-2.5c0-0.1,0-0.2,0-0.3c0-0.1,0.1-0.1,0.1-0.2s0.1-0.1,0.2-0.1
		c0.1,0,0.2,0,0.3,0h0l0-0.5l-2.6,0.1l0,0.5l0,0c0.1,0,0.2,0,0.3,0c0.1,0,0.1,0,0.2,0.1c0.1,0,0.1,0.1,0.1,0.2s0.1,0.2,0.1,0.3
		l0.1,1.6c0,0.2,0,0.3,0,0.5c0,0.2-0.1,0.3-0.1,0.4c-0.1,0.1-0.1,0.2-0.2,0.3c-0.1,0.1-0.2,0.1-0.3,0.1c-0.1,0-0.2,0-0.3-0.1
		c-0.1,0-0.2-0.1-0.2-0.2c-0.1-0.1-0.1-0.2-0.1-0.4c0-0.1,0-0.3-0.1-0.5l-0.1-2.8L78.6,121.6z M87.5,124.9c-0.1,0-0.1-0.1-0.2-0.2
		c-0.1-0.1-0.1-0.2-0.1-0.3c0-0.1-0.1-0.2-0.1-0.4l-0.1-0.5l0.7-0.1c0.6-0.1,1.1-0.3,1.4-0.6c0.3-0.3,0.4-0.6,0.3-1.1
		c0-0.2-0.1-0.4-0.2-0.6c-0.1-0.2-0.2-0.3-0.4-0.4c-0.1-0.1-0.3-0.2-0.5-0.2c-0.2,0-0.3,0-0.5,0c-0.2,0-0.3,0.1-0.4,0.1
		c-0.1,0-0.2,0.1-0.3,0.2c-0.1,0.1-0.2,0.2-0.2,0.3c-0.1,0.1-0.1,0.2-0.2,0.3l-0.1,0l-0.3-0.6l-1.6,0.3l0.1,0.4l0,0
		c0.1,0,0.2,0,0.2,0c0.1,0,0.1,0,0.2,0.1c0,0,0.1,0.1,0.1,0.2c0,0.1,0.1,0.2,0.1,0.3l0.4,2.1c0,0.3,0.1,0.5,0.2,0.7
		c0.1,0.2,0.2,0.3,0.4,0.4c0.2,0.1,0.4,0.1,0.6,0.2c0.2,0,0.5,0,0.8-0.1c0.2,0,0.5-0.1,0.7-0.2c0.2-0.1,0.4-0.1,0.5-0.2
		c0.1-0.1,0.3-0.2,0.3-0.3c0.1-0.1,0.1-0.3,0.1-0.4c0-0.2-0.2-0.3-0.4-0.4c-0.2-0.1-0.5,0-0.9,0c0,0.1,0,0.3,0,0.4
		c0,0.1,0,0.2,0,0.3c0,0.1-0.1,0.2-0.1,0.2c-0.1,0.1-0.2,0.1-0.3,0.1C87.6,125,87.5,125,87.5,124.9 M88,122.4c0,0.1,0,0.2-0.1,0.3
		c-0.1,0.1-0.1,0.2-0.2,0.2c-0.1,0.1-0.2,0.1-0.4,0.2l-0.4,0.1l-0.1-0.6c0-0.2,0-0.3,0-0.5c0-0.1,0-0.3,0.1-0.4
		c0.1-0.1,0.1-0.2,0.2-0.3c0.1-0.1,0.2-0.1,0.3-0.1c0.2,0,0.3,0,0.4,0.1s0.2,0.3,0.2,0.5C88.1,122.1,88.1,122.3,88,122.4
		 M92.6,119.9l-0.1-0.4l-2.6,0.8l0.1,0.4l0.1,0c0.1,0,0.1,0,0.2,0c0.1,0,0.1,0,0.2,0c0.1,0,0.1,0.1,0.2,0.1c0.1,0.1,0.1,0.1,0.1,0.3
		l1.6,5.3l1.9-0.6l-0.1-0.4l-0.1,0c-0.1,0-0.1,0-0.2,0c-0.1,0-0.1,0-0.2,0c-0.1,0-0.1-0.1-0.2-0.1s-0.1-0.1-0.1-0.2l-1.3-4.3
		c0-0.1,0-0.2,0-0.3s0.1-0.1,0.1-0.2c0-0.1,0.1-0.1,0.2-0.1C92.4,120,92.5,120,92.6,119.9L92.6,119.9z M94.2,119.3l0.3-0.1
		c0.1,0,0.2-0.1,0.2-0.1c0.1,0,0.1,0,0.2,0c0.1,0,0.1,0.1,0.2,0.1c0.1,0.1,0.1,0.1,0.2,0.3l0.5,1.4c0,0.1,0.1,0.1,0.1,0.2
		c0,0.1,0.1,0.2,0.1,0.3c0,0.1,0,0.2,0,0.3c0,0.1,0,0.2,0,0.3c0,0.1-0.1,0.2-0.1,0.2c-0.1,0.1-0.1,0.1-0.2,0.2c-0.1,0-0.1,0-0.2,0
		c-0.1,0-0.1,0-0.2-0.1s-0.1-0.1-0.1-0.2c0-0.1-0.1-0.2-0.1-0.3c-0.3,0.1-0.5,0.3-0.7,0.5c-0.1,0.2-0.1,0.4,0,0.7
		c0.1,0.2,0.2,0.3,0.4,0.4c0.2,0.1,0.4,0,0.8-0.1c0.2-0.1,0.3-0.1,0.4-0.2c0.1-0.1,0.2-0.2,0.3-0.3c0.1-0.1,0.1-0.2,0.1-0.3
		c0-0.1,0-0.2,0.1-0.4l0,0l0.4,0.6l1.6-0.6l-0.2-0.4l0,0c-0.1,0-0.2,0.1-0.2,0.1c-0.1,0-0.1,0-0.2,0c-0.1,0-0.1-0.1-0.2-0.1
		c-0.1-0.1-0.1-0.2-0.2-0.3l-0.9-2.3c0-0.1-0.1-0.2-0.1-0.3c0-0.1,0-0.2,0.1-0.2c0-0.1,0.1-0.1,0.2-0.2c0.1,0,0.2-0.1,0.2-0.1l0,0
		l-0.2-0.4l-2.7,1L94.2,119.3z M98.4,117c-0.2,0.1-0.3,0.3-0.4,0.4c-0.1,0.1-0.1,0.3-0.1,0.4c0,0.1,0,0.2,0.1,0.4
		c0.1,0.2,0.2,0.3,0.4,0.3c0-0.1,0-0.2,0-0.3c0-0.1,0.1-0.2,0.1-0.3c0.1-0.1,0.1-0.2,0.2-0.3c0.1-0.1,0.2-0.2,0.3-0.2
		c0.2-0.1,0.3-0.1,0.5-0.1c0.2,0,0.3,0,0.4,0.1c0.1,0.1,0.3,0.2,0.4,0.3c0.1,0.2,0.3,0.4,0.4,0.6l-2.5,1.3l0.2,0.4
		c0.2,0.3,0.3,0.5,0.5,0.7c0.2,0.2,0.4,0.3,0.7,0.4c0.2,0.1,0.5,0.1,0.7,0c0.3,0,0.5-0.1,0.8-0.3c0.3-0.2,0.5-0.3,0.7-0.6
		c0.2-0.2,0.3-0.5,0.4-0.7c0.1-0.3,0.1-0.6,0-0.9c-0.1-0.3-0.2-0.6-0.4-1c-0.2-0.3-0.4-0.6-0.6-0.8c-0.2-0.2-0.5-0.4-0.7-0.5
		c-0.3-0.1-0.5-0.1-0.8-0.1c-0.3,0-0.6,0.1-0.9,0.3C98.8,116.7,98.6,116.8,98.4,117 M100.8,120.3c-0.1,0-0.2-0.1-0.3-0.1
		c-0.1-0.1-0.2-0.2-0.3-0.3c-0.1-0.1-0.2-0.3-0.3-0.5l1.3-0.7c0.2,0.4,0.3,0.8,0.3,1c0,0.3-0.1,0.5-0.3,0.6
		C101,120.3,100.9,120.3,100.8,120.3 M104.3,114l0,4.4l0.2,0.3l3-2.1l-0.7-1.2l-0.4,0.3l0.1,0.2c0,0.1,0.1,0.2,0.1,0.3
		c0,0.1,0,0.2,0,0.2c0,0.1,0,0.1,0,0.2c0,0-0.1,0.1-0.1,0.1l-1,0.7l0-4.4l-0.2-0.3l-3.3,2.3l0.9,1.3l0.4-0.3l-0.1-0.3
		c-0.1-0.1-0.1-0.2-0.1-0.3c0-0.1,0-0.2,0-0.2c0-0.1,0-0.1,0.1-0.2c0-0.1,0.1-0.1,0.2-0.2L104.3,114z M107,112.1
		c0.1,0,0.3,0.1,0.5,0.3l1.8,2l-0.8,0.7l0.4,0.4l0.8-0.7l0.7,0.8l0.5-0.5c-0.2-0.3-0.3-0.6-0.3-0.9c0-0.1,0-0.3,0.1-0.4
		c0.1-0.2,0.2-0.3,0.3-0.4l-0.3-0.3l-0.5,0.4l-1.8-2c-0.2-0.2-0.3-0.3-0.5-0.4c-0.2-0.1-0.3-0.1-0.5-0.1c-0.2,0-0.3,0-0.4,0.1
		c-0.1,0.1-0.3,0.2-0.4,0.3c-0.1,0.1-0.2,0.2-0.3,0.3s-0.2,0.2-0.2,0.3c-0.1,0.1-0.1,0.2-0.2,0.2c0,0.1-0.1,0.1-0.1,0.2l0.4,0.4
		c0.1-0.1,0.1-0.2,0.2-0.2c0.1-0.1,0.1-0.2,0.2-0.2C106.7,112.1,106.8,112,107,112.1 M110.5,108.1l-0.3-0.3l-1.9,2l0.3,0.3l0.1-0.1
		c0,0,0.1-0.1,0.2-0.1c0.1,0,0.1-0.1,0.2-0.1c0.1,0,0.1,0,0.2,0c0.1,0,0.2,0.1,0.3,0.2l2.6,2.5l1.4-1.4l-0.3-0.3l-0.1,0.1
		c0,0-0.1,0.1-0.1,0.1c-0.1,0-0.1,0.1-0.2,0.1c-0.1,0-0.1,0-0.2,0s-0.2-0.1-0.2-0.1l-1.9-1.8c-0.1-0.1-0.1-0.2-0.2-0.2
		c0-0.1,0-0.2,0-0.2c0-0.1,0-0.1,0.1-0.2C110.4,108.3,110.4,108.3,110.5,108.1L110.5,108.1z M113.8,112.2c-0.1,0-0.2,0-0.2,0
		c-0.1,0-0.2,0-0.2,0.1c-0.1,0-0.2,0.1-0.2,0.2c-0.1,0.1-0.1,0.1-0.2,0.2c0,0.1-0.1,0.2-0.1,0.2c0,0.1,0,0.2,0,0.2s0.1,0.2,0.2,0.2
		c0.1,0.1,0.2,0.1,0.2,0.2s0.2,0,0.2,0c0.1,0,0.2,0,0.2-0.1c0.1,0,0.2-0.1,0.2-0.2c0.1-0.1,0.1-0.2,0.2-0.2c0-0.1,0.1-0.2,0.1-0.2
		c0-0.1,0-0.2,0-0.2c0-0.1-0.1-0.2-0.2-0.2C114,112.3,113.9,112.3,113.8,112.2 M116.5,107.1l-1.5-2.1c-0.1-0.2-0.2-0.3-0.3-0.5
		c-0.1-0.1-0.2-0.2-0.3-0.3l0,0c0.1,0,0.1,0.1,0.2,0.1c0.1,0,0.2,0.1,0.3,0.1c0.1,0,0.2,0.1,0.3,0.1c0.1,0,0.2,0.1,0.3,0.1l1.1,0.4
		c0.1,0,0.1,0,0.2,0.1c0.1,0,0.1,0.1,0.2,0.1c0.1,0.1,0.2,0.2,0.2,0.3c0,0.1-0.1,0.2-0.2,0.4l-0.1,0.1l0.4,0.3l1.5-2l-0.4-0.3l0,0
		c0,0.1-0.1,0.1-0.1,0.2c0,0-0.1,0.1-0.2,0.1c-0.1,0-0.1,0-0.2,0c-0.1,0-0.1,0-0.2,0l-3.6-1.3l-0.5,0.8l1.7,2.5l-2.9-0.9l-0.5,0.7
		l2.2,2.9c0.1,0.1,0.2,0.2,0.2,0.3c0,0.1,0.1,0.2,0.1,0.2c0,0.1,0,0.1,0,0.2c0,0.1-0.1,0.1-0.1,0.2l-0.1,0.1l0.4,0.3l1.1-1.6
		l-0.4-0.3l0,0c-0.1,0.2-0.2,0.3-0.3,0.3c-0.1,0-0.2,0-0.3-0.1c0,0-0.1-0.1-0.1-0.1c-0.1-0.1-0.1-0.1-0.2-0.2l-0.8-1
		c-0.1-0.1-0.1-0.2-0.2-0.2c-0.1-0.1-0.1-0.1-0.2-0.2c0-0.1-0.1-0.1-0.1-0.2c0,0-0.1-0.1-0.1-0.2l0,0c0.1,0,0.2,0.1,0.3,0.2
		c0.1,0.1,0.3,0.1,0.5,0.2l2.5,0.8L116.5,107.1z M115.9,99.7c-0.1,0.3,0,0.6,0,0.8s0.2,0.5,0.3,0.7c0.2,0.2,0.4,0.4,0.6,0.5
		c0.2,0.1,0.4,0.2,0.5,0.2c0.2,0,0.4,0,0.6,0c0.2-0.1,0.4-0.1,0.6-0.3c0.2-0.1,0.4-0.3,0.7-0.5c0.2-0.2,0.4-0.4,0.6-0.5
		c0.2-0.1,0.3-0.2,0.5-0.2c0.1,0,0.3-0.1,0.4,0s0.2,0,0.3,0.1c0.1,0.1,0.2,0.1,0.3,0.2s0.1,0.2,0.1,0.3s0,0.2,0,0.3
		c0,0.1-0.1,0.2-0.1,0.3c-0.1,0.1-0.2,0.3-0.3,0.3c-0.1,0.1-0.3,0.1-0.4,0.1c-0.1,0-0.3,0-0.4,0c-0.1,0-0.3-0.1-0.4-0.1
		c-0.1,0.2-0.1,0.3-0.2,0.4c0,0.1,0,0.3,0,0.4c0,0.1,0.1,0.2,0.1,0.3c0.1,0.1,0.1,0.1,0.2,0.2c0.1,0.1,0.3,0.1,0.4,0.1
		c0.1,0,0.3-0.1,0.4-0.1c0.1-0.1,0.3-0.2,0.4-0.4s0.3-0.4,0.4-0.7c0.1-0.3,0.2-0.5,0.3-0.8c0-0.3,0-0.5,0-0.7c0-0.2-0.1-0.4-0.3-0.6
		c-0.1-0.2-0.3-0.3-0.6-0.5c-0.2-0.1-0.4-0.2-0.5-0.2c-0.2,0-0.4,0-0.6,0c-0.2,0-0.4,0.1-0.6,0.2c-0.2,0.1-0.4,0.3-0.7,0.5
		c-0.2,0.2-0.4,0.3-0.5,0.4c-0.2,0.1-0.3,0.2-0.5,0.3c-0.1,0.1-0.3,0.1-0.4,0.1c-0.1,0-0.3,0-0.4-0.1c-0.1-0.1-0.2-0.1-0.3-0.2
		s-0.1-0.2-0.2-0.3c0-0.1,0-0.2,0-0.4c0-0.1,0.1-0.3,0.1-0.4c0.1-0.2,0.2-0.3,0.3-0.4c0.1-0.1,0.3-0.2,0.4-0.2c0.2,0,0.3,0,0.5,0
		c0.2,0,0.4,0.1,0.6,0.2c0.1-0.1,0.1-0.2,0.1-0.3c0-0.1,0-0.2,0-0.3s-0.1-0.2-0.1-0.3c-0.1-0.1-0.2-0.2-0.3-0.2
		c-0.1-0.1-0.3-0.1-0.4-0.1c-0.2,0-0.3,0-0.5,0.1c-0.2,0.1-0.4,0.2-0.5,0.4c-0.2,0.2-0.4,0.5-0.5,0.8
		C116,99.1,115.9,99.4,115.9,99.7 M118.3,94.4l0.4,0.1l0,0c0-0.1,0.1-0.2,0.1-0.2c0-0.1,0.1-0.1,0.1-0.1c0.1,0,0.1-0.1,0.2-0.1
		c0.1,0,0.2,0,0.3,0.1l1.9,0.6c0.3,0.1,0.5,0.1,0.7,0.1c0.2,0,0.4,0,0.6-0.1c0.2-0.1,0.3-0.2,0.4-0.3c0.1-0.2,0.2-0.3,0.3-0.5
		c0-0.1,0.1-0.3,0.1-0.4c0-0.1,0-0.2,0-0.4c0-0.1-0.1-0.2-0.1-0.4c-0.1-0.1-0.2-0.2-0.3-0.4l0,0l0.6,0.1l0.5-1.7l-0.4-0.1l0,0
		c0,0.1-0.1,0.2-0.1,0.2c0,0.1-0.1,0.1-0.1,0.2s-0.1,0.1-0.2,0.1c-0.1,0-0.2,0-0.3,0l-2.4-0.7c-0.1,0-0.2-0.1-0.3-0.1
		s-0.1-0.1-0.1-0.2c0-0.1,0-0.1,0-0.2c0-0.1,0-0.2,0.1-0.3l0,0l-0.4-0.1l-0.7,2.5l0.4,0.1l0,0c0-0.1,0.1-0.2,0.1-0.2
		c0-0.1,0.1-0.1,0.1-0.2c0.1,0,0.1-0.1,0.2-0.1c0.1,0,0.2,0,0.3,0l1.6,0.5c0.2,0,0.3,0.1,0.5,0.2c0.1,0.1,0.3,0.1,0.4,0.2
		c0.1,0.1,0.2,0.2,0.2,0.3s0,0.2,0,0.4c0,0.1-0.1,0.2-0.2,0.3c-0.1,0.1-0.2,0.1-0.3,0.1c-0.1,0-0.2,0-0.4,0c-0.1,0-0.3-0.1-0.5-0.1
		l-2.7-0.8L118.3,94.4z M120.8,85.9l-0.4-0.1l-0.5,2.7l0.4,0.1l0-0.1c0-0.1,0-0.1,0.1-0.2s0.1-0.1,0.1-0.2c0-0.1,0.1-0.1,0.2-0.1
		c0.1,0,0.2,0,0.3,0l3.5,0.7l0.4-2l-0.4-0.1l0,0.1c0,0.1,0,0.1-0.1,0.2c0,0.1-0.1,0.1-0.1,0.2c0,0.1-0.1,0.1-0.2,0.1
		c-0.1,0-0.2,0-0.3,0l-2.6-0.5c-0.1,0-0.2-0.1-0.3-0.1c-0.1-0.1-0.1-0.1-0.1-0.2c0-0.1,0-0.1,0-0.2
		C120.7,86.2,120.8,86.1,120.8,85.9L120.8,85.9z M125.8,87.5c-0.1,0-0.2,0.1-0.2,0.1c-0.1,0.1-0.1,0.1-0.2,0.2
		c0,0.1-0.1,0.2-0.1,0.3c0,0.1,0,0.2,0,0.3c0,0.1,0,0.2,0.1,0.2c0,0.1,0.1,0.1,0.2,0.2c0.1,0.1,0.2,0.1,0.3,0.1c0.1,0,0.2,0,0.3,0
		s0.2-0.1,0.2-0.1c0.1-0.1,0.1-0.1,0.1-0.2c0-0.1,0.1-0.2,0.1-0.3c0-0.1,0-0.2,0-0.3c0-0.1,0-0.2-0.1-0.2c0-0.1-0.1-0.1-0.2-0.2
		c-0.1-0.1-0.2-0.1-0.3-0.1C126,87.5,125.9,87.5,125.8,87.5 M120.7,81.8c0,0.2,0.1,0.4,0.2,0.5s0.2,0.2,0.3,0.3
		c0.1,0.1,0.2,0.1,0.3,0.1c0.2,0,0.3-0.1,0.4-0.2c-0.1-0.1-0.2-0.1-0.3-0.2c-0.1-0.1-0.2-0.2-0.2-0.3c-0.1-0.1-0.1-0.2-0.1-0.3
		c0-0.1,0-0.3,0-0.4c0-0.2,0-0.3,0.1-0.5c0.1-0.1,0.2-0.3,0.3-0.3c0.1-0.1,0.3-0.2,0.5-0.2c0.2-0.1,0.5-0.1,0.7-0.1l0,2.8l0.4,0
		c0.3,0,0.6,0,0.9-0.1c0.3-0.1,0.5-0.2,0.6-0.4c0.2-0.2,0.3-0.4,0.4-0.6c0.1-0.2,0.1-0.5,0.1-0.8c0-0.3,0-0.6-0.1-0.9
		c-0.1-0.3-0.2-0.5-0.4-0.7c-0.2-0.2-0.5-0.3-0.8-0.4c-0.3-0.1-0.7-0.2-1.1-0.2c-0.4,0-0.7,0-1,0.1c-0.3,0.1-0.5,0.2-0.7,0.4
		c-0.2,0.2-0.4,0.4-0.5,0.7c-0.1,0.3-0.2,0.6-0.2,1C120.6,81.4,120.6,81.6,120.7,81.8 M124.7,81.3c-0.1,0.1-0.2,0.2-0.3,0.2
		c-0.1,0.1-0.3,0.1-0.4,0.1c-0.2,0-0.4,0-0.6,0l0-1.5c0.5,0,0.8,0.1,1,0.2c0.2,0.1,0.4,0.3,0.3,0.6
		C124.8,81.2,124.8,81.3,124.7,81.3 M121.3,74.6c0.3-0.2,0.7-0.3,1.3-0.3c0.3,0,0.5,0,0.8,0c0.2,0,0.4,0,0.6,0.1
		c0.2,0,0.3,0.1,0.4,0.2c0.1,0.1,0.1,0.2,0.2,0.4c0,0.2,0,0.3-0.1,0.4c-0.1,0.1-0.2,0.2-0.3,0.3c-0.1,0.1-0.3,0.2-0.5,0.2
		c-0.2,0.1-0.5,0.1-0.7,0.1c-0.3,0-0.6,0-0.8,0c-0.2,0-0.4,0-0.6-0.1c-0.2-0.1-0.3-0.1-0.4-0.2c-0.1-0.1-0.1-0.2-0.2-0.4
		C120.9,75,121.1,74.8,121.3,74.6 M127.1,76.8l-0.2-2l-0.4,0l0,0.1c0,0.1,0,0.2,0,0.3c0,0.1,0,0.2,0,0.2c0,0.1-0.1,0.1-0.1,0.2
		c-0.1,0-0.2,0.1-0.3,0.1l-0.5,0.1c0,0-0.1,0-0.1,0c0,0-0.1,0-0.1,0c-0.1,0-0.1,0-0.2,0c-0.1,0-0.1,0-0.2,0c-0.1,0-0.3,0.1-0.4,0.1
		l0-0.1c0.1-0.1,0.2-0.1,0.3-0.2c0.1-0.1,0.1-0.2,0.2-0.3c0-0.1,0.1-0.2,0.1-0.4c0-0.1,0-0.3,0-0.4c0-0.3-0.1-0.5-0.2-0.7
		c-0.1-0.2-0.3-0.4-0.5-0.5c-0.2-0.1-0.5-0.2-0.8-0.2c-0.3,0-0.7,0-1.1,0c-0.4,0-0.8,0.1-1,0.2c-0.3,0.1-0.5,0.2-0.7,0.4
		c-0.2,0.2-0.3,0.4-0.4,0.6c-0.1,0.2-0.1,0.5-0.1,0.8c0,0.2,0.1,0.3,0.1,0.4c0,0.1,0.1,0.2,0.2,0.3c0.1,0.1,0.2,0.2,0.3,0.3
		c0.1,0.1,0.2,0.1,0.3,0.2l0,0.1l-0.6,0.3l0.2,1.6l0.5-0.1l0,0c0-0.1,0-0.2,0-0.3c0-0.1,0-0.2,0.1-0.2c0-0.1,0.1-0.1,0.2-0.2
		c0.1,0,0.2-0.1,0.3-0.1L127.1,76.8z M123.6,69.5c0,0.1-0.1,0.1-0.2,0.2s-0.2,0.1-0.3,0.1c-0.1,0-0.2,0.1-0.4,0.1l-0.5,0.1l-0.2-0.7
		c-0.2-0.6-0.4-1.1-0.7-1.3c-0.3-0.3-0.7-0.3-1.1-0.2c-0.2,0.1-0.4,0.1-0.6,0.2c-0.2,0.1-0.3,0.2-0.4,0.4s-0.1,0.3-0.2,0.5
		c0,0.2,0,0.3,0,0.5c0,0.2,0.1,0.3,0.1,0.4c0.1,0.1,0.1,0.2,0.2,0.3c0.1,0.1,0.2,0.1,0.3,0.2c0.1,0.1,0.2,0.1,0.4,0.2l0,0.1
		l-0.5,0.3l0.4,1.5l0.4-0.1l0,0c0-0.1,0-0.2,0-0.2c0-0.1,0-0.1,0.1-0.2c0,0,0.1-0.1,0.2-0.1c0.1,0,0.2-0.1,0.3-0.1l2.1-0.5
		c0.3-0.1,0.5-0.2,0.6-0.3c0.2-0.1,0.3-0.3,0.4-0.4c0.1-0.2,0.1-0.4,0.1-0.6c0-0.2,0-0.5-0.1-0.8c-0.1-0.2-0.1-0.5-0.2-0.7
		c-0.1-0.2-0.2-0.4-0.3-0.5c-0.1-0.1-0.2-0.2-0.4-0.3c-0.1-0.1-0.3-0.1-0.4,0c-0.2,0-0.3,0.2-0.4,0.4c0,0.2,0,0.5,0.1,0.9
		c0.1,0,0.3-0.1,0.4-0.1c0.1,0,0.2,0,0.3,0c0.1,0,0.2,0.1,0.2,0.1c0.1,0.1,0.1,0.1,0.1,0.2C123.6,69.3,123.6,69.4,123.6,69.5
		 M121,69.1c0.1,0,0.2,0,0.3,0.1c0.1,0,0.2,0.1,0.2,0.2c0.1,0.1,0.1,0.2,0.2,0.4l0.1,0.4l-0.6,0.2c-0.2,0-0.3,0.1-0.5,0.1
		s-0.3,0-0.4-0.1c-0.1,0-0.2-0.1-0.3-0.2s-0.1-0.2-0.2-0.3c0-0.2,0-0.3,0.1-0.4c0.1-0.1,0.3-0.2,0.5-0.2
		C120.7,69.1,120.9,69.1,121,69.1 M118.9,67.2l0.4-0.2l-0.1-0.3c0-0.1,0-0.1-0.1-0.2c0-0.1,0-0.1,0-0.2c0-0.1,0.1-0.1,0.1-0.2
		c0.1,0,0.1-0.1,0.3-0.1l3.8-1.6c0.1,0,0.2-0.1,0.3-0.1c0.1,0,0.1,0,0.2,0c0.1,0,0.1,0.1,0.1,0.1c0,0,0.1,0.1,0.1,0.2l0.1,0.3
		l0.4-0.2l-1-2.2l-4.3,0.4l3.2-2.9l-1-2.3l-0.4,0.2l0.1,0.3c0,0.1,0,0.1,0.1,0.2c0,0.1,0,0.1,0,0.2c0,0.1-0.1,0.1-0.1,0.1
		c-0.1,0-0.1,0.1-0.2,0.1l-3.8,1.6c-0.1,0-0.2,0.1-0.3,0.1c-0.1,0-0.1,0-0.2,0c0,0-0.1-0.1-0.1-0.1c0,0-0.1-0.1-0.1-0.2l-0.1-0.3
		l-0.4,0.2l0.8,1.9l0.4-0.2l0,0c0-0.1-0.1-0.2-0.1-0.3c0-0.1,0-0.1,0-0.2c0-0.1,0-0.1,0.1-0.2c0.1-0.1,0.1-0.1,0.3-0.2l3.9-1.7
		l-4.1,3.7l0.2,0.5l5.5-0.5l-4,1.7c-0.1,0-0.2,0.1-0.2,0.1c-0.1,0-0.1,0-0.2,0c0,0-0.1-0.1-0.1-0.1s-0.1-0.1-0.1-0.2l0-0.1l-0.4,0.2
		L118.9,67.2z M114.9,54.2c-0.1,0.1-0.2,0.3-0.2,0.4c0,0.2,0,0.3,0,0.4s0.1,0.3,0.2,0.4c0.1,0.1,0.2,0.3,0.3,0.4
		c0.1,0.1,0.3,0.2,0.4,0.2c0.1,0,0.3,0,0.5,0c0.2,0,0.4-0.1,0.6-0.3c0.2-0.1,0.4-0.3,0.5-0.4c0.1-0.2,0.2-0.3,0.2-0.5
		c0-0.2,0-0.3,0-0.5c0-0.1-0.1-0.3-0.2-0.4c-0.1-0.1-0.2-0.3-0.3-0.4c-0.1-0.1-0.3-0.2-0.4-0.2c-0.1,0-0.3,0-0.5,0
		c-0.2,0-0.4,0.1-0.6,0.3C115.1,53.9,115,54.1,114.9,54.2 M109.9,51.8c0.3,0.2,0.6,0.4,0.9,0.5l1-1c0.1-0.1,0.2-0.1,0.2-0.2
		c0.1,0,0.1-0.1,0.2-0.1c0.1,0,0.1,0,0.2,0c0.1,0,0.1,0.1,0.2,0.1l0.1,0.1L113,51l-1.9-1.9l-0.3,0.3l0.1,0.1
		c0.1,0.1,0.2,0.3,0.2,0.4c0,0.1-0.1,0.3-0.2,0.4l-0.9,0.9c-0.1-0.1-0.2-0.1-0.2-0.2c-0.1-0.1-0.2-0.1-0.2-0.2
		c-0.2-0.2-0.4-0.5-0.5-0.7c-0.1-0.2-0.1-0.5,0-0.8c0.1-0.3,0.2-0.5,0.4-0.8c0.2-0.3,0.4-0.5,0.7-0.8c0.3-0.3,0.6-0.5,0.9-0.7
		c0.3-0.2,0.5-0.3,0.8-0.3c0.3-0.1,0.5,0,0.7,0c0.2,0.1,0.5,0.2,0.7,0.5c0.1,0.1,0.2,0.3,0.3,0.4c0.1,0.1,0.1,0.3,0.1,0.4
		c0,0.1-0.1,0.3-0.1,0.4c-0.1,0.1-0.2,0.3-0.3,0.4c0.1,0.1,0.2,0.2,0.4,0.3c0.1,0.1,0.2,0.1,0.4,0.1c0.1,0,0.2,0,0.3,0
		c0.1,0,0.2-0.1,0.3-0.1c0.1-0.1,0.2-0.2,0.2-0.4c0-0.1,0-0.3-0.1-0.5c-0.1-0.2-0.2-0.4-0.3-0.6c-0.1-0.2-0.3-0.5-0.6-0.7
		c-0.4-0.4-0.7-0.7-1.1-0.8c-0.4-0.2-0.8-0.3-1.2-0.3c-0.4,0-0.8,0.1-1.1,0.2c-0.4,0.2-0.7,0.4-1.1,0.7c-0.3,0.3-0.6,0.7-0.8,1
		c-0.2,0.4-0.3,0.7-0.3,1.1c0,0.4,0.1,0.8,0.2,1.2c0.2,0.4,0.4,0.8,0.8,1.2C109.3,51.4,109.6,51.6,109.9,51.8 M105.9,44.8l-1.4-1
		l1.3-0.9c0.1-0.1,0.2-0.1,0.3-0.2c0.1-0.1,0.2-0.1,0.3-0.2c0.1-0.1,0.2-0.1,0.3-0.2c0.1-0.1,0.2-0.1,0.2-0.2c0,0.1-0.1,0.2-0.1,0.3
		c0,0.1-0.1,0.2-0.1,0.3c0,0.1-0.1,0.2-0.1,0.3c0,0.1-0.1,0.2-0.1,0.3L105.9,44.8z M105.7,45.4l-0.3,0.9c0,0,0,0.1-0.1,0.2
		c0,0.1-0.1,0.1-0.1,0.2c0,0-0.1,0.1-0.1,0.1c0,0-0.1,0-0.1,0s-0.1,0-0.1,0c0,0-0.1,0-0.1-0.1l-0.3-0.2l-0.3,0.4l2.3,1.7l0.3-0.4
		l-0.1-0.1c-0.1,0-0.1-0.1-0.1-0.1c0-0.1-0.1-0.1-0.1-0.2c0-0.1,0-0.1,0-0.2c0-0.1,0-0.2,0.1-0.3l1.6-5.1l-0.9-0.7l-4.5,2.9
		c-0.1,0.1-0.2,0.1-0.3,0.2c-0.1,0-0.2,0.1-0.2,0.1c-0.1,0-0.1,0-0.2,0c-0.1,0-0.1-0.1-0.2-0.1l-0.1-0.1l-0.3,0.4l1.8,1.3l0.3-0.4
		l-0.3-0.2c0,0-0.1-0.1-0.1-0.1c0,0-0.1-0.1-0.1-0.1c0,0,0-0.1,0-0.1s0-0.1,0.1-0.1c0-0.1,0.1-0.1,0.2-0.2c0.1-0.1,0.1-0.1,0.2-0.2
		l0.6-0.4L105.7,45.4z M98,42.8c0.2,0,0.5,0,0.7,0c0.2,0,0.4-0.1,0.5-0.3c0.2-0.1,0.3-0.3,0.4-0.5c0.1-0.2,0.1-0.3,0.1-0.5
		c0-0.2,0-0.3-0.1-0.5c-0.1-0.1-0.1-0.3-0.2-0.4c-0.1-0.1-0.2-0.3-0.4-0.4c-0.2-0.2-0.3-0.3-0.4-0.4c-0.1-0.1-0.2-0.2-0.2-0.3
		c-0.1-0.1-0.1-0.2-0.1-0.3c0-0.1,0-0.2,0.1-0.2c0-0.1,0.1-0.1,0.1-0.2s0.1-0.1,0.2-0.1c0.1,0,0.2,0,0.2,0c0.1,0,0.2,0,0.3,0.1
		c0.2,0.1,0.4,0.3,0.4,0.5c0,0.2,0,0.4-0.1,0.7c0.3,0.1,0.5,0.2,0.7,0.2c0.2,0,0.3-0.1,0.4-0.3c0-0.1,0.1-0.2,0-0.3
		c0-0.1-0.1-0.2-0.1-0.3c-0.1-0.1-0.2-0.2-0.3-0.4s-0.3-0.2-0.6-0.4c-0.2-0.1-0.5-0.2-0.7-0.2c-0.2,0-0.4-0.1-0.6,0
		c-0.2,0-0.4,0.1-0.5,0.2c-0.2,0.1-0.3,0.3-0.4,0.5c-0.1,0.2-0.1,0.3-0.1,0.5c0,0.2,0,0.3,0.1,0.5c0.1,0.2,0.2,0.3,0.3,0.5
		c0.1,0.2,0.3,0.3,0.4,0.5c0.2,0.1,0.3,0.3,0.4,0.4c0.1,0.1,0.2,0.2,0.2,0.3s0.1,0.2,0.1,0.3c0,0.1,0,0.2-0.1,0.2
		c0,0.1-0.1,0.1-0.1,0.2c-0.1,0-0.1,0.1-0.2,0.1c-0.1,0-0.2,0-0.3,0c-0.1,0-0.2-0.1-0.4-0.1c-0.1-0.1-0.2-0.1-0.3-0.2
		c-0.1-0.1-0.1-0.2-0.2-0.3c0-0.1,0-0.3,0-0.4c0-0.1,0.1-0.3,0.1-0.5c-0.1,0-0.1-0.1-0.2-0.1c-0.1,0-0.2,0-0.3,0
		c-0.1,0-0.2,0-0.3,0.1c-0.1,0.1-0.2,0.1-0.2,0.3c-0.1,0.1-0.1,0.3-0.1,0.4c0,0.1,0,0.3,0.1,0.4c0.1,0.1,0.2,0.3,0.4,0.4
		c0.2,0.1,0.4,0.3,0.7,0.4C97.5,42.7,97.8,42.8,98,42.8 M93.9,41c0.2,0,0.4,0,0.6,0c0.2,0,0.3-0.1,0.4-0.2c0.1-0.1,0.2-0.2,0.2-0.3
		c0.1-0.2,0-0.3-0.1-0.5c-0.1,0.1-0.2,0.1-0.3,0.2c-0.1,0.1-0.2,0.1-0.3,0.1c-0.1,0-0.2,0-0.4,0c-0.1,0-0.3,0-0.4-0.1
		c-0.2-0.1-0.3-0.1-0.4-0.2C93,40,93,39.9,92.9,39.7c0-0.2-0.1-0.3,0-0.6c0-0.2,0.1-0.5,0.2-0.7l2.6,0.9l0.1-0.4
		c0.1-0.3,0.2-0.6,0.2-0.9c0-0.3-0.1-0.5-0.2-0.7c-0.1-0.2-0.3-0.4-0.5-0.6c-0.2-0.2-0.5-0.3-0.7-0.4c-0.3-0.1-0.6-0.2-0.9-0.2
		c-0.3,0-0.5,0.1-0.8,0.2c-0.2,0.1-0.5,0.3-0.6,0.6c-0.2,0.3-0.4,0.6-0.5,0.9c-0.1,0.4-0.2,0.7-0.2,1c0,0.3,0,0.6,0.1,0.8
		c0.1,0.3,0.3,0.5,0.5,0.7c0.2,0.2,0.5,0.3,0.8,0.5C93.4,41,93.6,41,93.9,41 M94.7,37.1c0.1,0.1,0.1,0.2,0.1,0.3c0,0.1,0,0.3,0,0.5
		c0,0.2-0.1,0.4-0.2,0.6l-1.4-0.5c0.2-0.4,0.4-0.7,0.6-0.9c0.2-0.2,0.4-0.2,0.7-0.1C94.6,36.9,94.7,37,94.7,37.1 M89.3,39.6
		c0.2,0,0.4,0,0.6-0.1c0.2-0.1,0.3-0.1,0.4-0.2c0.1-0.1,0.1-0.2,0.2-0.3c0-0.1,0-0.2,0-0.2c0-0.1-0.1-0.1-0.1-0.2
		c-0.1,0.1-0.2,0.2-0.2,0.2c-0.1,0.1-0.2,0.1-0.3,0.2c-0.1,0-0.2,0.1-0.4,0.1c-0.1,0-0.3,0-0.4,0c-0.4-0.1-0.6-0.3-0.7-0.6
		c-0.1-0.3-0.1-0.8,0-1.3c0.1-0.4,0.2-0.6,0.3-0.9c0.1-0.2,0.2-0.4,0.3-0.5c0.1-0.1,0.2-0.2,0.3-0.2c0.1,0,0.2,0,0.3,0
		c0.1,0,0.2,0.1,0.2,0.1c0.1,0.1,0.1,0.2,0.1,0.3c0,0.1,0,0.2,0,0.4c0,0.1,0,0.3-0.1,0.4c0.2,0,0.4,0.1,0.6,0.1c0.1,0,0.3,0,0.4-0.1
		c0.1,0,0.2-0.1,0.2-0.2s0.1-0.2,0.1-0.3c0-0.1,0-0.2,0-0.4s-0.1-0.2-0.3-0.3s-0.3-0.2-0.5-0.3c-0.2-0.1-0.4-0.2-0.7-0.2
		c-0.3-0.1-0.6-0.1-0.8-0.1c-0.3,0-0.5,0.1-0.7,0.2c-0.2,0.1-0.4,0.4-0.6,0.6c-0.2,0.3-0.3,0.6-0.4,1.1c-0.1,0.4-0.1,0.8-0.1,1.1
		c0,0.3,0.1,0.6,0.3,0.8s0.3,0.4,0.6,0.5c0.2,0.1,0.5,0.2,0.8,0.3C88.9,39.6,89.1,39.7,89.3,39.6 M83.2,38.2l-0.1,0.5l2.7,0.3
		l0.1-0.5l-0.1,0c-0.1,0-0.1,0-0.2,0c-0.1,0-0.1-0.1-0.2-0.1c-0.1,0-0.1-0.1-0.1-0.2c0-0.1,0-0.2,0-0.3l0.4-3.5l-2-0.2l-0.1,0.5
		l0.1,0c0.1,0,0.1,0,0.2,0c0.1,0,0.1,0.1,0.2,0.1c0.1,0,0.1,0.1,0.1,0.2c0,0.1,0,0.2,0,0.3L84,37.7c0,0.1,0,0.2-0.1,0.3
		c0,0.1-0.1,0.1-0.2,0.1c-0.1,0-0.1,0-0.2,0.1C83.4,38.2,83.4,38.2,83.2,38.2L83.2,38.2z M84.5,33.1c0,0.1,0.1,0.2,0.1,0.2
		c0.1,0.1,0.1,0.1,0.2,0.1c0.1,0,0.2,0.1,0.3,0.1c0.1,0,0.2,0,0.3,0c0.1,0,0.2,0,0.2-0.1c0.1,0,0.1-0.1,0.2-0.2
		c0-0.1,0.1-0.2,0.1-0.3c0-0.1,0-0.2,0-0.3c0-0.1-0.1-0.2-0.1-0.2c-0.1-0.1-0.1-0.1-0.2-0.1c-0.1,0-0.2-0.1-0.3-0.1
		c-0.1,0-0.2,0-0.3,0c-0.1,0-0.2,0-0.2,0.1c-0.1,0-0.1,0.1-0.2,0.2c0,0.1-0.1,0.2-0.1,0.3C84.4,32.9,84.4,33,84.5,33.1 M82.6,34
		l-1.9,0l0,0.5l0.2,0c0.1,0,0.2,0,0.2,0.1c0.1,0,0.1,0.1,0.1,0.2c0,0.1,0,0.2,0,0.2c0,0.1,0,0.2-0.1,0.2l-0.6,1.7c0,0,0,0.1,0,0.1
		c0,0.1,0,0.1-0.1,0.2c0,0.1-0.1,0.2-0.1,0.3c0,0.1,0,0.2-0.1,0.2c0-0.1-0.1-0.3-0.1-0.5c0-0.2-0.1-0.4-0.2-0.5L79.5,35
		c0,0,0-0.1,0-0.2c0-0.1,0-0.1,0-0.2c0-0.1,0-0.2,0.1-0.2c0.1,0,0.1-0.1,0.2-0.1l0.4,0l0-0.5l-2.7,0l0,0.5c0.1,0,0.2,0,0.2,0
		c0.1,0,0.1,0,0.2,0.1c0.1,0,0.1,0.1,0.1,0.1c0,0.1,0.1,0.1,0.1,0.2l1.4,3.7l1.1,0l1.3-3.5c0.1-0.1,0.1-0.2,0.1-0.3
		c0-0.1,0.1-0.1,0.1-0.2c0,0,0.1-0.1,0.1-0.1c0,0,0.1,0,0.2,0l0.2,0L82.6,34z M75.6,38.7c0.2-0.1,0.4-0.2,0.5-0.3
		c0.1-0.1,0.2-0.2,0.3-0.3c0.1-0.1,0.1-0.2,0.1-0.4c0-0.2-0.1-0.3-0.3-0.4c0,0.1-0.1,0.2-0.2,0.3c-0.1,0.1-0.1,0.2-0.2,0.2
		c-0.1,0.1-0.2,0.1-0.3,0.2c-0.1,0-0.3,0.1-0.4,0.1c-0.2,0-0.3,0-0.5,0c-0.1,0-0.3-0.1-0.4-0.3c-0.1-0.1-0.2-0.3-0.3-0.5
		c-0.1-0.2-0.1-0.4-0.2-0.7l2.8-0.3L76.4,36c0-0.3-0.1-0.6-0.2-0.9c-0.1-0.2-0.3-0.4-0.5-0.6c-0.2-0.2-0.4-0.3-0.7-0.3
		c-0.3-0.1-0.5-0.1-0.8,0c-0.3,0-0.6,0.1-0.9,0.3c-0.2,0.1-0.5,0.3-0.6,0.5c-0.2,0.2-0.3,0.5-0.3,0.8c-0.1,0.3-0.1,0.7,0,1.1
		c0,0.4,0.1,0.7,0.3,1c0.1,0.3,0.3,0.5,0.5,0.7c0.2,0.2,0.5,0.3,0.7,0.4s0.6,0.1,1,0C75.2,38.9,75.4,38.8,75.6,38.7 M74.6,34.8
		c0.1,0.1,0.2,0.1,0.2,0.2c0.1,0.1,0.1,0.3,0.2,0.4c0,0.2,0.1,0.4,0.1,0.6l-1.5,0.2c0-0.5,0-0.8,0.1-1.1c0.1-0.3,0.3-0.4,0.5-0.4
		C74.4,34.7,74.5,34.7,74.6,34.8 M69.5,37.7c0,0.3,0,0.6-0.1,0.9c-0.1,0.3-0.2,0.5-0.4,0.7c-0.2,0.2-0.4,0.3-0.7,0.4l-0.5,0.1
		l-1.3-4.9l0.5-0.1c0.6-0.2,1-0.1,1.4,0.2c0.4,0.3,0.7,0.8,0.9,1.6C69.5,37,69.5,37.4,69.5,37.7 M70.2,35.1
		c-0.2-0.3-0.5-0.6-0.8-0.7c-0.3-0.2-0.7-0.3-1.1-0.3c-0.4,0-0.8,0-1.3,0.2l-2.7,0.7l0.1,0.4l0.3-0.1c0.1,0,0.1,0,0.2,0
		c0.1,0,0.1,0,0.2,0c0,0,0.1,0.1,0.1,0.1c0,0.1,0.1,0.1,0.1,0.3l1.1,4c0,0.1,0,0.2,0,0.3c0,0.1,0,0.1,0,0.2c0,0-0.1,0.1-0.1,0.1
		c0,0-0.1,0-0.2,0.1l-0.3,0.1l0.1,0.4l2.7-0.7c0.5-0.1,0.9-0.3,1.2-0.6c0.3-0.2,0.6-0.5,0.7-0.9c0.2-0.3,0.3-0.7,0.3-1.1
		c0-0.4,0-0.8-0.2-1.3C70.6,35.8,70.4,35.4,70.2,35.1 M62.4,42.4c0.2-0.1,0.3-0.3,0.4-0.4c0.1-0.1,0.1-0.3,0.1-0.4s0-0.2-0.1-0.3
		c0-0.1-0.1-0.1-0.1-0.2c-0.1,0-0.1-0.1-0.2-0.1c0,0.1,0,0.2-0.1,0.3c0,0.1-0.1,0.2-0.1,0.3c-0.1,0.1-0.1,0.2-0.2,0.3
		c-0.1,0.1-0.2,0.2-0.3,0.2c-0.3,0.2-0.6,0.2-0.9,0c-0.3-0.2-0.5-0.5-0.8-1.1c-0.2-0.3-0.3-0.6-0.4-0.8c-0.1-0.2-0.1-0.4-0.1-0.6
		c0-0.2,0-0.3,0.1-0.4c0.1-0.1,0.1-0.2,0.3-0.2c0.1,0,0.2-0.1,0.3,0c0.1,0,0.2,0.1,0.3,0.1c0.1,0.1,0.2,0.2,0.2,0.3
		c0.1,0.1,0.1,0.2,0.2,0.4c0.2-0.1,0.4-0.2,0.5-0.3c0.1-0.1,0.2-0.2,0.2-0.3c0-0.1,0.1-0.2,0-0.3c0-0.1,0-0.2-0.1-0.3
		c-0.1-0.1-0.1-0.2-0.3-0.3c-0.1-0.1-0.3-0.1-0.4-0.1c-0.2,0-0.3,0-0.6,0.1c-0.2,0.1-0.4,0.1-0.7,0.3c-0.3,0.1-0.5,0.3-0.7,0.5
		s-0.3,0.4-0.4,0.7s-0.1,0.5-0.1,0.9c0,0.3,0.2,0.7,0.4,1.1c0.2,0.4,0.4,0.7,0.6,0.9c0.2,0.2,0.5,0.4,0.7,0.5
		c0.2,0.1,0.5,0.1,0.8,0.1c0.3,0,0.5-0.1,0.8-0.3C62,42.7,62.3,42.6,62.4,42.4 M56.8,45.2l0.2,0.4l2.3-1.5l-0.2-0.4L59,43.8
		c-0.1,0-0.1,0.1-0.2,0.1c-0.1,0-0.1,0-0.2,0c-0.1,0-0.1,0-0.2-0.1c-0.1,0-0.1-0.1-0.2-0.2l-1.9-3l-1.7,1.1l0.2,0.4l0.1-0.1
		c0.1,0,0.1-0.1,0.2-0.1c0.1,0,0.1,0,0.2,0c0.1,0,0.1,0,0.2,0.1c0.1,0,0.1,0.1,0.2,0.2l1.4,2.2c0.1,0.1,0.1,0.2,0.1,0.3
		c0,0.1,0,0.2,0,0.2c0,0.1-0.1,0.1-0.1,0.2C57,45,56.9,45.1,56.8,45.2L56.8,45.2z M54.5,40.4c0.1,0,0.2,0.1,0.2,0.1
		c0.1,0,0.2,0,0.3,0c0.1,0,0.2-0.1,0.3-0.1c0.1-0.1,0.2-0.1,0.2-0.2s0.1-0.1,0.1-0.2c0-0.1,0-0.2,0-0.2c0-0.1,0-0.2-0.1-0.3
		c-0.1-0.1-0.1-0.2-0.2-0.2c-0.1,0-0.2-0.1-0.2-0.1c-0.1,0-0.2,0-0.3,0c-0.1,0-0.2,0.1-0.3,0.1c-0.1,0.1-0.2,0.1-0.2,0.2
		c-0.1,0.1-0.1,0.1-0.1,0.2c0,0.1,0,0.2,0,0.2c0,0.1,0,0.2,0.1,0.3C54.4,40.3,54.4,40.3,54.5,40.4 M54.2,47.7l-0.3-0.3l0,0
		c-0.1,0.1-0.1,0.1-0.2,0.2c-0.1,0-0.1,0.1-0.2,0.1c-0.1,0-0.1,0-0.2-0.1s-0.1-0.1-0.2-0.2L52,46c-0.1-0.1-0.2-0.3-0.3-0.4
		c-0.1-0.1-0.1-0.3-0.2-0.4c0-0.1,0-0.2,0-0.4s0.1-0.2,0.2-0.3c0.2-0.2,0.4-0.2,0.6-0.1c0.2,0.1,0.4,0.3,0.7,0.5l1.8,2.1l1.4-1.2
		L56,45.5l0,0c-0.1,0.1-0.1,0.1-0.2,0.1c-0.1,0-0.1,0.1-0.2,0.1c-0.1,0-0.1,0-0.2-0.1c-0.1,0-0.1-0.1-0.2-0.2L53.8,44
		c-0.2-0.2-0.4-0.4-0.6-0.5c-0.2-0.1-0.4-0.2-0.5-0.2c-0.2,0-0.4,0-0.5,0.1c-0.2,0.1-0.3,0.2-0.5,0.3c-0.1,0.1-0.2,0.2-0.3,0.3
		c-0.1,0.1-0.2,0.2-0.2,0.3s-0.1,0.2-0.1,0.4c0,0.1,0,0.3,0,0.5l-0.1,0c-0.2-0.1-0.5-0.2-0.7-0.1c-0.2,0.1-0.5,0.2-0.7,0.4
		c-0.1,0.1-0.2,0.2-0.3,0.3c-0.1,0.1-0.1,0.2-0.2,0.3c0,0.1-0.1,0.2-0.1,0.4c0,0.1,0,0.3,0,0.5l0,0l-0.5-0.4l-1.4,1.2l0.3,0.3l0,0
		c0.1-0.1,0.1-0.1,0.2-0.2c0.1,0,0.1-0.1,0.2-0.1c0.1,0,0.1,0,0.2,0c0.1,0,0.1,0.1,0.2,0.2l1.7,1.9c0.1,0.1,0.1,0.2,0.2,0.3
		c0,0.1,0,0.2,0,0.2c0,0.1-0.1,0.1-0.1,0.2c-0.1,0.1-0.1,0.1-0.2,0.2l0,0l0.3,0.3l2-1.7l-0.3-0.3l0,0c-0.1,0.1-0.1,0.1-0.2,0.2
		c-0.1,0-0.1,0.1-0.2,0.1c-0.1,0-0.1,0-0.2,0c-0.1,0-0.1-0.1-0.2-0.2L50,47.8c-0.1-0.1-0.2-0.3-0.3-0.4c-0.1-0.1-0.1-0.3-0.2-0.4
		c0-0.1,0-0.3,0-0.4c0-0.1,0.1-0.2,0.2-0.3c0.1-0.1,0.2-0.1,0.3-0.2c0.1,0,0.2,0,0.3,0c0.1,0,0.2,0.1,0.3,0.2
		c0.1,0.1,0.2,0.2,0.3,0.3l1.8,2.1L54.2,47.7z M45.3,50.8c0.1,0,0.2,0,0.3,0c0.1,0,0.2,0.1,0.3,0.1c0.1,0.1,0.2,0.1,0.3,0.2l0.4,0.3
		L46,52.1c-0.4,0.5-0.6,1-0.6,1.3c0,0.4,0.1,0.7,0.5,1c0.2,0.2,0.4,0.3,0.5,0.3c0.2,0.1,0.4,0.1,0.5,0.1c0.2,0,0.3-0.1,0.5-0.2
		c0.1-0.1,0.3-0.2,0.4-0.4c0.1-0.1,0.2-0.2,0.2-0.3c0.1-0.1,0.1-0.2,0.1-0.3c0-0.1,0-0.2,0-0.3c0-0.1,0-0.2-0.1-0.4l0-0.1l0.6,0.2
		l1-1.2l-0.4-0.3l0,0c-0.1,0.1-0.1,0.1-0.2,0.2c-0.1,0-0.1,0.1-0.2,0.1c-0.1,0-0.1,0-0.2-0.1c-0.1,0-0.2-0.1-0.2-0.2l-1.7-1.4
		c-0.2-0.2-0.4-0.3-0.6-0.3c-0.2-0.1-0.4-0.1-0.6,0c-0.2,0-0.4,0.1-0.5,0.3s-0.4,0.3-0.6,0.6c-0.2,0.2-0.3,0.4-0.4,0.6
		c-0.1,0.2-0.2,0.4-0.2,0.5c0,0.2-0.1,0.3,0,0.5c0,0.1,0.1,0.3,0.2,0.4c0.2,0.1,0.3,0.2,0.5,0.1c0.2-0.1,0.4-0.3,0.7-0.6
		c-0.1-0.1-0.2-0.2-0.3-0.3c-0.1-0.1-0.1-0.2-0.2-0.3c0-0.1,0-0.2,0-0.3c0-0.1,0.1-0.2,0.1-0.3C45.1,50.9,45.2,50.9,45.3,50.8
		 M46.5,53.1c-0.1-0.1-0.1-0.2-0.1-0.3c0-0.1,0-0.2,0-0.3c0-0.1,0.1-0.2,0.2-0.4l0.2-0.3l0.5,0.4c0.1,0.1,0.2,0.2,0.3,0.3
		c0.1,0.1,0.1,0.2,0.2,0.3c0,0.1,0,0.2,0,0.3c0,0.1-0.1,0.2-0.2,0.3c-0.1,0.1-0.2,0.2-0.4,0.2c-0.1,0-0.3-0.1-0.5-0.3
		C46.6,53.3,46.6,53.2,46.5,53.1 M46.4,56L46,55.7l0,0c-0.1,0.1-0.1,0.2-0.2,0.2c0,0.1-0.1,0.1-0.2,0.1c-0.1,0-0.1,0-0.2,0
		c-0.1,0-0.2-0.1-0.3-0.1l-1.7-1c-0.2-0.2-0.5-0.3-0.7-0.3c-0.2-0.1-0.4-0.1-0.6,0c-0.2,0-0.3,0.1-0.5,0.2c-0.1,0.1-0.3,0.3-0.4,0.5
		c-0.1,0.1-0.1,0.2-0.2,0.3c-0.1,0.1-0.1,0.2-0.1,0.3c0,0.1,0,0.2,0,0.4c0,0.1,0.1,0.3,0.2,0.4l0,0l-0.6-0.2l-0.9,1.5l0.4,0.2l0,0
		c0-0.1,0.1-0.1,0.1-0.2c0-0.1,0.1-0.1,0.2-0.1c0.1,0,0.1,0,0.2,0c0.1,0,0.2,0.1,0.3,0.1l2.2,1.3c0.1,0.1,0.2,0.1,0.2,0.2
		c0,0.1,0.1,0.1,0.1,0.2s0,0.1,0,0.2c0,0.1-0.1,0.2-0.1,0.2l0,0l0.4,0.2l1.4-2.2L44.6,58l0,0c0,0.1-0.1,0.2-0.2,0.2
		c-0.1,0.1-0.1,0.1-0.2,0.1c-0.1,0-0.1,0-0.2,0s-0.2-0.1-0.3-0.1l-1.4-0.9c-0.2-0.1-0.3-0.2-0.4-0.3c-0.1-0.1-0.2-0.2-0.3-0.3
		s-0.1-0.2-0.1-0.3c0-0.1,0-0.2,0.1-0.4c0.1-0.1,0.1-0.2,0.2-0.2c0.1,0,0.2-0.1,0.3-0.1c0.1,0,0.2,0,0.4,0.1
		c0.1,0.1,0.3,0.1,0.4,0.2l2.4,1.5L46.4,56z M38.4,61l0.4,0.2c0.1-0.2,0.2-0.3,0.2-0.4c0.1-0.1,0.2-0.1,0.3,0c0,0,0,0,0.1,0
		c0,0,0.1,0,0.1,0.1c0,0,0.1,0,0.1,0.1c0,0,0.1,0,0.1,0.1l1.3,1.2c0,0,0,0,0.1,0.1c0,0,0.1,0.1,0.1,0.1c0.1,0,0.1,0.1,0.2,0.1
		c0.1,0,0.1,0.1,0.2,0.1c-0.1,0-0.1,0-0.2,0c-0.1,0-0.1,0-0.2,0c-0.1,0-0.2,0-0.2,0c-0.1,0-0.2,0-0.3,0c-0.1,0-0.2,0-0.4,0
		c-0.1,0-0.3,0-0.4,0c-0.1,0-0.3,0-0.4,0c-0.2,0-0.3,0-0.4,0c0,0-0.1,0-0.2,0c-0.1,0-0.1,0-0.2,0c-0.1-0.1-0.2-0.1-0.2-0.2
		c0-0.1,0-0.2,0.1-0.4l-0.4-0.2l-1,2.2l0.5,0.2c0-0.1,0.1-0.1,0.1-0.2c0,0,0.1-0.1,0.1-0.1c0,0,0.1-0.1,0.2-0.1c0.1,0,0.1,0,0.2,0
		l4.1,0.1c0.2,0.2,0.3,0.3,0.5,0.5c0.1,0.2,0.2,0.3,0.3,0.5c0.1,0.2,0.1,0.4,0.1,0.6c0,0.2-0.1,0.5-0.2,0.7l0.5,0.2l0.1-0.1
		c0.1-0.3,0.2-0.5,0.3-0.7c0.1-0.2,0.1-0.4,0.1-0.6c0-0.2,0-0.3-0.1-0.5c0-0.1-0.1-0.3-0.2-0.5c-0.1-0.2-0.2-0.3-0.4-0.5
		c-0.2-0.2-0.3-0.3-0.6-0.5c-0.2-0.2-0.4-0.4-0.7-0.6s-0.5-0.4-0.7-0.7c-0.2-0.2-0.5-0.4-0.7-0.7c-0.2-0.2-0.5-0.4-0.7-0.6
		c-0.1-0.1-0.2-0.2-0.2-0.2c-0.1-0.1-0.1-0.1-0.1-0.2c0-0.1,0-0.1,0-0.2c0-0.1,0-0.1,0.1-0.2l-0.4-0.2L38.4,61z M38.7,67.4
		c0.3,0.2,0.5,0.3,0.7,0.5c0.2,0.2,0.3,0.4,0.4,0.7c0.1,0.2,0.1,0.5,0,0.8l-0.1,0.5l-4.9-1.3l0.1-0.5c0.1-0.6,0.5-0.9,0.9-1.1
		c0.5-0.2,1.1-0.2,1.9,0C38.1,67.1,38.4,67.2,38.7,67.4 M36.7,65.5c-0.4,0-0.7,0.2-1,0.3s-0.6,0.4-0.8,0.8c-0.2,0.3-0.4,0.7-0.5,1.2
		l-0.7,2.7l0.4,0.1l0.1-0.3c0-0.1,0-0.1,0.1-0.2c0,0,0.1-0.1,0.1-0.1c0,0,0.1,0,0.2,0c0.1,0,0.2,0,0.3,0l4,1.1
		c0.1,0,0.2,0.1,0.3,0.1c0.1,0,0.1,0.1,0.1,0.1c0,0,0,0.1,0,0.2c0,0.1,0,0.1,0,0.2L39.1,72l0.4,0.1l0.7-2.7c0.1-0.5,0.2-0.9,0.1-1.3
		c-0.1-0.4-0.2-0.8-0.4-1.1c-0.2-0.3-0.5-0.6-0.8-0.8c-0.3-0.2-0.7-0.4-1.2-0.5C37.6,65.5,37.1,65.4,36.7,65.5"/>
	<path class="st4" d="M90.9,65.3c-0.6-1.2-1.5-2.1-2.6-2.9c-1.1-0.8-2.5-1.4-4.1-1.8c-1.6-0.4-3.3-0.6-5.3-0.6
		c-1.4,0-2.6,0.1-3.8,0.3c-1.2,0.2-2.3,0.5-3.4,0.8c-1,0.3-2,0.8-2.9,1.2c-0.9,0.5-1.7,1-2.5,1.5l4.2,5.5c0.4-0.3,0.9-0.6,1.4-0.9
		c0.5-0.3,1.1-0.6,1.7-0.9c0.6-0.3,1.3-0.5,2.1-0.6c0.7-0.2,1.5-0.3,2.4-0.3c1.9,0,3.3,0.4,4.1,1.2c0.9,0.8,1.3,1.9,1.3,3.3
		c0,0.8-0.1,1.5-0.4,2.2c-0.3,0.7-0.7,1.3-1.4,1.8c-0.7,0.5-1.5,0.9-2.6,1.2s-2.5,0.4-4.1,0.4h-2.7v5.8h2.8c1.8,0,3.2,0.1,4.4,0.4
		c1.2,0.3,2.2,0.6,2.9,1.1c0.7,0.5,1.3,1,1.6,1.7c0.3,0.7,0.5,1.4,0.5,2.2c0,0.9-0.1,1.7-0.4,2.4c-0.3,0.7-0.7,1.3-1.3,1.9
		c-0.6,0.5-1.4,0.9-2.4,1.2c-1,0.3-2.3,0.4-3.8,0.4c-0.8,0-1.6-0.1-2.5-0.2c-0.9-0.1-1.8-0.3-2.6-0.5c-0.9-0.2-1.8-0.5-2.7-0.8
		c-0.9-0.3-1.7-0.7-2.6-1.1v7.1c1.6,0.7,3.3,1.2,5.2,1.6c1.9,0.3,3.8,0.5,6,0.5c2.6,0,4.9-0.3,6.9-0.9c1.9-0.6,3.6-1.4,4.8-2.5
		c1.3-1.1,2.2-2.3,2.8-3.8c0.6-1.5,0.9-3,0.9-4.8c0-2.6-0.8-4.7-2.4-6.2c-1.6-1.5-4-2.5-7.2-2.9V79c1.2-0.3,2.3-0.7,3.3-1.2
		c1-0.5,1.9-1.2,2.7-2s1.4-1.8,1.8-2.8c0.4-1.1,0.7-2.3,0.7-3.7C91.8,67.8,91.5,66.4,90.9,65.3"/>
	<path class="st5" d="M90.9,65.3c-0.6-1.2-1.5-2.1-2.6-2.9c-1.1-0.8-2.5-1.4-4.1-1.8c-1.6-0.4-3.3-0.6-5.3-0.6
		c-1.4,0-2.6,0.1-3.8,0.3c-1.2,0.2-2.3,0.5-3.4,0.8c-1,0.3-2,0.8-2.9,1.2c-0.9,0.5-1.7,1-2.5,1.5l4.2,5.5c0.4-0.3,0.9-0.6,1.4-0.9
		c0.5-0.3,1.1-0.6,1.7-0.9c0.6-0.3,1.3-0.5,2.1-0.6c0.7-0.2,1.5-0.3,2.4-0.3c1.9,0,3.3,0.4,4.1,1.2c0.9,0.8,1.3,1.9,1.3,3.3
		c0,0.8-0.1,1.5-0.4,2.2c-0.3,0.7-0.7,1.3-1.4,1.8c-0.7,0.5-1.5,0.9-2.6,1.2s-2.5,0.4-4.1,0.4h-2.7v5.8h2.8c1.8,0,3.2,0.1,4.4,0.4
		c1.2,0.3,2.2,0.6,2.9,1.1c0.7,0.5,1.3,1,1.6,1.7c0.3,0.7,0.5,1.4,0.5,2.2c0,0.9-0.1,1.7-0.4,2.4c-0.3,0.7-0.7,1.3-1.3,1.9
		c-0.6,0.5-1.4,0.9-2.4,1.2c-1,0.3-2.3,0.4-3.8,0.4c-0.8,0-1.6-0.1-2.5-0.2c-0.9-0.1-1.8-0.3-2.6-0.5c-0.9-0.2-1.8-0.5-2.7-0.8
		c-0.9-0.3-1.7-0.7-2.6-1.1v7.1c1.6,0.7,3.3,1.2,5.2,1.6c1.9,0.3,3.8,0.5,6,0.5c2.6,0,4.9-0.3,6.9-0.9c1.9-0.6,3.6-1.4,4.8-2.5
		c1.3-1.1,2.2-2.3,2.8-3.8c0.6-1.5,0.9-3,0.9-4.8c0-2.6-0.8-4.7-2.4-6.2c-1.6-1.5-4-2.5-7.2-2.9V79c1.2-0.3,2.3-0.7,3.3-1.2
		c1-0.5,1.9-1.2,2.7-2s1.4-1.8,1.8-2.8c0.4-1.1,0.7-2.3,0.7-3.7C91.8,67.8,91.5,66.4,90.9,65.3z"/>
</g>
</svg>
