<?xml version="1.0" standalone="no"?><!-- Generator: Gravit.io --><svg xmlns="http://www.w3.org/2000/svg" xmlns:xlink="http://www.w3.org/1999/xlink" style="isolation:isolate" viewBox="0 0 382 382" width="382" height="382"><defs><clipPath id="_clipPath_ArjJO6y7T5oBI3azeBqzIPKBTTCcCo7J"><rect width="382" height="382"/></clipPath></defs><g clip-path="url(#_clipPath_ArjJO6y7T5oBI3azeBqzIPKBTTCcCo7J)"><rect x="33.333" y="20.667" width="316" height="332" transform="matrix(1,0,0,1,0,0)" fill="rgb(235,235,235)"/><path d=" M 347.445 0 L 34.555 0 C 15.471 0 0 15.471 0 34.555 L 0 347.444 C 0 366.529 15.471 382 34.555 382 L 347.444 382 C 366.529 382 382 366.529 382 347.444 L 382 34.555 C 382 15.471 366.529 0 347.445 0 Z  M 118.207 329.844 C 118.207 335.398 113.705 339.9 108.151 339.9 L 65.345 339.9 C 59.791 339.9 55.289 335.398 55.289 329.844 L 55.289 150.403 C 55.289 144.849 59.791 140.347 65.345 140.347 L 108.151 140.347 C 113.705 140.347 118.207 144.849 118.207 150.403 L 118.207 329.844 L 118.207 329.844 Z  M 86.748 123.432 C 64.289 123.432 46.082 105.225 46.082 82.766 C 46.082 60.307 64.289 42.1 86.748 42.1 C 109.207 42.1 127.414 60.307 127.414 82.766 C 127.414 105.225 109.208 123.432 86.748 123.432 Z  M 341.91 330.654 C 341.91 335.76 337.77 339.9 332.664 339.9 L 286.73 339.9 C 281.624 339.9 277.484 335.76 277.484 330.654 L 277.484 246.486 C 277.484 233.93 281.167 191.465 244.671 191.465 C 216.362 191.465 210.62 220.531 209.467 233.575 L 209.467 330.654 C 209.467 335.76 205.328 339.9 200.221 339.9 L 155.795 339.9 C 150.689 339.9 146.549 335.76 146.549 330.654 L 146.549 149.593 C 146.549 144.487 150.689 140.347 155.795 140.347 L 200.221 140.347 C 205.327 140.347 209.467 144.487 209.467 149.593 L 209.467 165.248 C 219.964 149.495 235.564 137.336 268.779 137.336 C 342.331 137.336 341.91 206.052 341.91 243.808 L 341.91 330.654 L 341.91 330.654 L 341.91 330.654 Z " fill="rgb(0,119,183)"/></g></svg>