<?xml version="1.0" standalone="no"?><!-- Generator: Gravit.io --><svg xmlns="http://www.w3.org/2000/svg" xmlns:xlink="http://www.w3.org/1999/xlink" style="isolation:isolate" viewBox="0 0 461.001 461.001" width="461.001" height="461.001"><defs><clipPath id="_clipPath_Za9IbnwSpMFMrFtJJWt1nqBZD7HmkFjg"><rect width="461.001" height="461.001"/></clipPath></defs><g clip-path="url(#_clipPath_Za9IbnwSpMFMrFtJJWt1nqBZD7HmkFjg)"><ellipse vector-effect="non-scaling-stroke" cx="226.66666666666674" cy="230.99999999999994" rx="118" ry="116.99999999999997" fill="rgb(235,235,235)"/><path d=" M 365.257 67.393 L 95.744 67.393 C 42.866 67.393 0 110.259 0 163.137 L 0 297.865 C 0 350.743 42.866 393.609 95.744 393.609 L 365.257 393.609 C 418.135 393.609 461.001 350.743 461.001 297.865 L 461.001 163.137 C 461.001 110.259 418.135 67.393 365.257 67.393 Z  M 300.506 237.056 L 174.446 297.179 C 171.087 298.781 167.207 296.332 167.207 292.611 L 167.207 168.607 C 167.207 164.833 171.189 162.387 174.555 164.093 L 300.615 227.974 C 304.363 229.873 304.298 235.248 300.506 237.056 Z " fill="rgb(246,28,13)"/><g style="isolation:isolate"/></g></svg>