<?xml version="1.0" standalone="no"?><!-- Generator: Gravit.io --><svg xmlns="http://www.w3.org/2000/svg" xmlns:xlink="http://www.w3.org/1999/xlink" style="isolation:isolate" viewBox="0 0 408.788 408.788" width="408.788" height="408.788"><defs><clipPath id="_clipPath_APqsQuKWDwpi0IpDF2fLKbqytg8RNiko"><rect width="408.788" height="408.788"/></clipPath></defs><g clip-path="url(#_clipPath_APqsQuKWDwpi0IpDF2fLKbqytg8RNiko)"><rect x="95" y="41" width="247" height="367.788" transform="matrix(1,0,0,1,0,0)" fill="rgb(255,255,255)"/><path d=" M 353.701 0 L 55.087 0 C 24.665 0 0.002 24.662 0.002 55.085 L 0.002 353.701 C 0.002 384.124 24.664 408.786 55.087 408.786 L 202.362 408.786 L 202.613 262.708 L 164.662 262.708 C 159.73 262.708 155.727 258.72 155.708 253.788 L 155.526 206.701 C 155.507 201.742 159.522 197.712 164.481 197.712 L 202.363 197.712 L 202.363 152.214 C 202.363 99.414 234.61 70.664 281.711 70.664 L 320.361 70.664 C 325.306 70.664 329.316 74.673 329.316 79.619 L 329.316 119.323 C 329.316 124.267 325.309 128.275 320.366 128.278 L 296.647 128.289 C 271.032 128.289 266.072 140.461 266.072 158.324 L 266.072 197.713 L 322.357 197.713 C 327.72 197.713 331.881 202.396 331.249 207.722 L 325.668 254.809 C 325.134 259.315 321.313 262.71 316.776 262.71 L 266.323 262.71 L 266.072 408.788 L 353.703 408.788 C 384.125 408.788 408.787 384.126 408.787 353.704 L 408.787 55.085 C 408.786 24.662 384.124 0 353.701 0 Z " fill="rgb(71,89,147)"/></g></svg>