<?xml version="1.0" encoding="utf-8"?>
<!-- Generator: Adobe Illustrator 22.1.0, SVG Export Plug-In . SVG Version: 6.00 Build 0)  -->
<svg version="1.1" id="Layer_1" xmlns="http://www.w3.org/2000/svg" xmlns:xlink="http://www.w3.org/1999/xlink" x="0px" y="0px"
	 viewBox="0 0 160 160" style="enable-background:new 0 0 160 160;" xml:space="preserve">
<style type="text/css">
	.st0{clip-path:url(#SVGID_2_);fill:url(#SVGID_3_);}
	.st1{clip-path:url(#SVGID_5_);fill:none;stroke:#939598;stroke-width:0.6;}
	.st2{clip-path:url(#SVGID_5_);fill:none;stroke:#EBD486;stroke-width:0.259;}
	.st3{clip-path:url(#SVGID_5_);fill:#EDD584;}
	.st4{clip-path:url(#SVGID_5_);fill:none;stroke:#808285;stroke-width:0.6;}
</style>
<g>
	<defs>
		<path id="SVGID_1_" d="M27.5,80c0,29,23.5,52.5,52.5,52.5S132.5,109,132.5,80S109,27.5,80,27.5S27.5,51,27.5,80"/>
	</defs>
	<clipPath id="SVGID_2_">
		<use xlink:href="#SVGID_1_"  style="overflow:visible;"/>
	</clipPath>
	
		<radialGradient id="SVGID_3_" cx="1.3276" cy="161.5175" r="1" gradientTransform="matrix(52.5 0 0 -52.5 10.3 8559.7002)" gradientUnits="userSpaceOnUse">
		<stop  offset="0" style="stop-color:#F9F6BA"/>
		<stop  offset="2.272730e-03" style="stop-color:#F9F6BA"/>
		<stop  offset="1" style="stop-color:#FAEA94"/>
	</radialGradient>
	<rect x="27.5" y="27.5" class="st0" width="105" height="105"/>
</g>
<g>
	<defs>
		<rect id="SVGID_4_" x="18.2" y="20.2" width="123.6" height="113.6"/>
	</defs>
	<clipPath id="SVGID_5_">
		<use xlink:href="#SVGID_4_"  style="overflow:visible;"/>
	</clipPath>
	<circle class="st1" cx="80" cy="80" r="52.5"/>
	<path class="st2" d="M79.9,112.6l0,1.4 M79.2,112.6l0,1.4 M78.5,112.6l-0.1,1.4 M77.8,112.6l-0.1,1.4 M77.2,112.5l-0.1,1.4
		 M76.5,112.5l-0.2,1.4 M75.8,112.4l-0.2,1.4 M75.1,112.3l-0.2,1.4 M74.5,112.2l-0.2,1.4 M73.8,112.1l-0.3,1.4 M73.1,111.9l-0.3,1.4
		 M72.5,111.8l-0.3,1.3 M71.8,111.6l-0.4,1.3 M71.1,111.4l-0.4,1.3 M70.5,111.2l-0.4,1.3 M69.8,111l-0.4,1.3 M69.2,110.8l-0.5,1.3
		 M68.6,110.6l-0.5,1.3 M67.9,110.3l-0.5,1.3 M67.3,110.1l-0.6,1.3 M66.7,109.8l-0.6,1.3 M66.1,109.5l-0.6,1.3 M65.4,109.2l-0.6,1.2
		 M64.8,108.9l-0.6,1.2 M64.2,108.6l-0.7,1.2 M63.7,108.3l-0.7,1.2 M63.1,107.9l-0.7,1.2 M62.5,107.5l-0.7,1.2 M61.9,107.2l-0.8,1.2
		 M61.4,106.8l-0.8,1.1 M60.8,106.4l-0.8,1.1 M60.3,106l-0.8,1.1 M59.7,105.6l-0.9,1.1 M59.2,105.2l-0.9,1.1 M58.7,104.7l-0.9,1.1
		 M58.2,104.3l-0.9,1 M57.7,103.8l-0.9,1 M57.2,103.3l-1,1 M56.7,102.8l-1,1 M56.2,102.4l-1,0.9 M55.8,101.9l-1,0.9 M55.3,101.3
		l-1.1,0.9 M54.9,100.8l-1.1,0.9 M54.4,100.3l-1.1,0.9 M54,99.8l-1.1,0.8 M53.6,99.2l-1.1,0.8 M53.2,98.7l-1.1,0.8 M52.8,98.1
		l-1.2,0.8 M52.5,97.5l-1.2,0.7 M52.1,96.9l-1.2,0.7 M51.8,96.4l-1.2,0.7 M51.4,95.8l-1.2,0.7 M51.1,95.2l-1.2,0.6 M50.8,94.6
		l-1.2,0.6 M50.5,94l-1.3,0.6 M50.2,93.3l-1.3,0.6 M49.9,92.7l-1.3,0.5 M49.7,92.1l-1.3,0.5 M49.4,91.5l-1.3,0.5 M49.2,90.8
		l-1.3,0.5 M49,90.2l-1.3,0.4 M48.8,89.5l-1.3,0.4 M48.6,88.9l-1.3,0.4 M48.4,88.2l-1.3,0.4 M48.3,87.5l-1.3,0.3 M48.1,86.9
		l-1.4,0.3 M48,86.2l-1.4,0.3 M47.9,85.6l-1.4,0.2 M47.7,84.9l-1.4,0.2 M47.6,84.2l-1.4,0.2 M47.6,83.5l-1.4,0.2 M47.5,82.9L46.1,83
		 M47.5,82.2l-1.4,0.1 M47.4,81.5L46,81.6 M47.4,80.8l-1.4,0 M47.4,80.1l-1.4,0 M47.4,79.5l-1.4,0 M47.4,78.8L46,78.7 M47.4,78.1
		L46.1,78 M47.5,77.4l-1.4-0.1 M47.6,76.7l-1.4-0.1 M47.6,76.1l-1.4-0.2 M47.7,75.4l-1.4-0.2 M47.8,74.7l-1.4-0.2 M47.9,74.1
		l-1.4-0.3 M48.1,73.4l-1.4-0.3 M48.2,72.7l-1.4-0.3 M48.4,72.1L47,71.7 M48.5,71.4L47.2,71 M48.7,70.7l-1.3-0.4 M48.9,70.1
		l-1.3-0.4 M49.1,69.5L47.8,69 M49.4,68.8l-1.3-0.5 M49.6,68.2l-1.3-0.5 M49.9,67.5L48.6,67 M50.1,66.9l-1.3-0.6 M50.4,66.3
		l-1.3-0.6 M50.7,65.7l-1.2-0.6 M51,65.1l-1.2-0.6 M51.3,64.5l-1.2-0.7 M51.7,63.9l-1.2-0.7 M52,63.3l-1.2-0.7 M52.4,62.7L51.2,62
		 M52.7,62.1l-1.2-0.8 M53.1,61.6L52,60.8 M53.5,61l-1.1-0.8 M53.9,60.5l-1.1-0.8 M54.3,59.9l-1.1-0.8 M54.7,59.4l-1.1-0.9
		 M55.2,58.9L54.1,58 M55.6,58.4l-1-0.9 M56.1,57.9l-1-0.9 M56.5,57.4l-1-1 M57,56.9l-1-1 M57.5,56.4l-0.9-1 M58,55.9l-0.9-1
		 M58.5,55.5l-0.9-1 M59,55.1L58.1,54 M59.6,54.6l-0.9-1.1 M60.1,54.2l-0.8-1.1 M60.6,53.8l-0.8-1.1 M61.2,53.4l-0.8-1.1 M61.7,53
		L61,51.9 M62.3,52.6l-0.8-1.2 M62.9,52.3l-0.7-1.2 M63.5,51.9l-0.7-1.2 M64.1,51.6l-0.7-1.2 M64.6,51.3L64,50 M65.2,50.9l-0.6-1.2
		 M65.9,50.6l-0.6-1.3 M66.5,50.3l-0.6-1.3 M67.1,50.1l-0.6-1.3 M67.7,49.8l-0.5-1.3 M68.4,49.6l-0.5-1.3 M69,49.3L68.5,48
		 M69.6,49.1l-0.4-1.3 M70.3,48.9l-0.4-1.3 M70.9,48.7l-0.4-1.3 M71.6,48.5l-0.4-1.3 M72.3,48.3L71.9,47 M72.9,48.2l-0.3-1.4
		 M73.6,48.1l-0.3-1.4 M74.2,47.9L74,46.6 M74.9,47.8l-0.2-1.4 M75.6,47.7l-0.2-1.4 M76.3,47.6l-0.2-1.4 M76.9,47.6l-0.1-1.4
		 M77.6,47.5l-0.1-1.4 M78.3,47.5l-0.1-1.4 M79,47.4l-0.1-1.4 M79.7,47.4l0-1.4 M80.3,47.4l0-1.4 M81,47.4l0.1-1.4 M81.7,47.5
		l0.1-1.4 M82.4,47.5l0.1-1.4 M83.1,47.6l0.1-1.4 M83.7,47.6l0.2-1.4 M84.4,47.7l0.2-1.4 M85.1,47.8l0.2-1.4 M85.8,47.9l0.2-1.4
		 M86.4,48.1l0.3-1.4 M87.1,48.2l0.3-1.4 M87.7,48.3l0.3-1.3 M88.4,48.5l0.4-1.3 M89.1,48.7l0.4-1.3 M89.7,48.9l0.4-1.3 M90.4,49.1
		l0.4-1.3 M91,49.3l0.5-1.3 M91.6,49.6l0.5-1.3 M92.3,49.8l0.5-1.3 M92.9,50.1l0.6-1.3 M93.5,50.3l0.6-1.3 M94.1,50.6l0.6-1.3
		 M94.8,50.9l0.6-1.2 M95.4,51.3L96,50 M95.9,51.6l0.7-1.2 M96.5,51.9l0.7-1.2 M97.1,52.3l0.7-1.2 M97.7,52.6l0.8-1.2 M98.3,53
		l0.8-1.1 M98.8,53.4l0.8-1.1 M99.4,53.8l0.8-1.1 M99.9,54.2l0.8-1.1 M100.4,54.6l0.9-1.1 M101,55.1l0.9-1.1 M101.5,55.5l0.9-1
		 M102,55.9l0.9-1 M102.5,56.4l0.9-1 M103,56.9l1-1 M103.5,57.4l1-1 M103.9,57.9l1-0.9 M104.4,58.4l1-0.9 M104.8,58.9l1.1-0.9
		 M105.3,59.4l1.1-0.9 M105.7,59.9l1.1-0.8 M106.1,60.5l1.1-0.8 M106.5,61l1.1-0.8 M106.9,61.6l1.1-0.8 M107.3,62.1l1.2-0.8
		 M107.6,62.7l1.2-0.7 M108,63.3l1.2-0.7 M108.3,63.9l1.2-0.7 M108.7,64.5l1.2-0.7 M109,65.1l1.2-0.6 M109.3,65.7l1.2-0.6
		 M109.6,66.3l1.3-0.6 M109.9,66.9l1.3-0.6 M110.1,67.5l1.3-0.5 M110.4,68.2l1.3-0.5 M110.6,68.8l1.3-0.5 M110.9,69.5l1.3-0.5
		 M111.1,70.1l1.3-0.4 M111.3,70.7l1.3-0.4 M111.5,71.4l1.3-0.4 M111.6,72.1l1.3-0.3 M111.8,72.7l1.4-0.3 M111.9,73.4l1.4-0.3
		 M112.1,74.1l1.4-0.3 M112.2,74.7l1.4-0.2 M112.3,75.4l1.4-0.2 M112.4,76.1l1.4-0.2 M112.4,76.7l1.4-0.1 M112.5,77.4l1.4-0.1
		 M112.6,78.1l1.4-0.1 M112.6,78.8l1.4-0.1 M112.6,79.5l1.4,0 M112.6,80.1l1.4,0 M112.6,80.8l1.4,0 M112.6,81.5l1.4,0.1 M112.5,82.2
		l1.4,0.1 M112.5,82.9l1.4,0.1 M112.4,83.5l1.4,0.2 M112.3,84.2l1.4,0.2 M112.3,84.9l1.4,0.2 M112.1,85.6l1.4,0.2 M112,86.2l1.4,0.3
		 M111.9,86.9l1.4,0.3 M111.7,87.5l1.3,0.3 M111.6,88.2l1.3,0.4 M111.4,88.9l1.3,0.4 M111.2,89.5l1.3,0.4 M111,90.2l1.3,0.4
		 M110.8,90.8l1.3,0.5 M110.6,91.5l1.3,0.5 M110.3,92.1l1.3,0.5 M110.1,92.7l1.3,0.5 M109.8,93.3l1.3,0.6 M109.5,94l1.3,0.6
		 M109.2,94.6l1.2,0.6 M108.9,95.2l1.2,0.6 M108.6,95.8l1.2,0.7 M108.2,96.4l1.2,0.7 M107.9,96.9l1.2,0.7 M107.5,97.5l1.2,0.7
		 M107.2,98.1l1.2,0.8 M106.8,98.7l1.1,0.8 M106.4,99.2l1.1,0.8 M106,99.8l1.1,0.8 M105.6,100.3l1.1,0.9 M105.1,100.8l1.1,0.9
		 M104.7,101.3l1.1,0.9 M104.2,101.9l1,0.9 M103.8,102.4l1,0.9 M103.3,102.8l1,1 M102.8,103.3l1,1 M102.3,103.8l0.9,1 M101.8,104.3
		l0.9,1 M101.3,104.7l0.9,1.1 M100.8,105.2l0.9,1.1 M100.3,105.6l0.9,1.1 M99.7,106l0.8,1.1 M99.2,106.4l0.8,1.1 M98.6,106.8
		l0.8,1.1 M98.1,107.2l0.8,1.2 M97.5,107.5l0.7,1.2 M96.9,107.9l0.7,1.2 M96.3,108.3l0.7,1.2 M95.8,108.6l0.7,1.2 M95.2,108.9
		l0.6,1.2 M94.6,109.2l0.6,1.2 M93.9,109.5l0.6,1.3 M93.3,109.8l0.6,1.3 M92.7,110.1l0.6,1.3 M92.1,110.3l0.5,1.3 M91.4,110.6
		l0.5,1.3 M90.8,110.8l0.5,1.3 M90.2,111l0.4,1.3 M89.5,111.2l0.4,1.3 M88.9,111.4l0.4,1.3 M88.2,111.6l0.4,1.3 M87.5,111.8l0.3,1.3
		 M86.9,111.9l0.3,1.4 M86.2,112.1l0.3,1.4 M85.5,112.2l0.2,1.4 M84.9,112.3l0.2,1.4 M84.2,112.4l0.2,1.4 M83.5,112.5l0.2,1.4
		 M82.8,112.5l0.1,1.4 M82.2,112.6l0.1,1.4 M81.5,112.6l0.1,1.4 M80.8,112.6l0,1.4 M80.1,112.6l0,1.4"/>
	<path class="st3" d="M36.7,80.7c0.2-0.1,0.3-0.1,0.4-0.3c0.1-0.1,0.2-0.2,0.2-0.4c0-0.2,0.1-0.3,0.1-0.5c0-0.2,0-0.3-0.1-0.5
		c0-0.2-0.1-0.3-0.2-0.4c-0.1-0.1-0.2-0.2-0.4-0.3c-0.2-0.1-0.4-0.1-0.6-0.1c-0.3,0-0.5,0-0.6,0.1c-0.2,0.1-0.3,0.2-0.4,0.3
		c-0.1,0.1-0.2,0.2-0.2,0.4c0,0.1-0.1,0.3-0.1,0.5c0,0.2,0,0.3,0.1,0.5c0,0.2,0.1,0.3,0.2,0.4c0.1,0.1,0.2,0.2,0.4,0.3
		c0.2,0.1,0.4,0.1,0.6,0.1C36.3,80.8,36.6,80.7,36.7,80.7 M39.3,84.1l-0.5,0.1l0.1,0.7c0,0.1,0,0.2,0,0.2c0,0.1,0,0.1-0.1,0.1
		c0,0-0.1,0.1-0.2,0.1c-0.1,0-0.1,0-0.2,0.1L33.3,86l0.1,0.9l0.5,0.5c0.1,0.1,0.2,0.2,0.3,0.4c0.1,0.1,0.2,0.2,0.2,0.3
		c0.1,0.1,0.1,0.2,0.2,0.3c0,0.1,0.1,0.2,0.1,0.3c0.1,0,0.2,0,0.3-0.1c0.1,0,0.1-0.1,0.2-0.1c0-0.1,0.1-0.1,0.1-0.2
		c0-0.1,0-0.1,0-0.2c0-0.1,0-0.2-0.1-0.2c-0.1-0.1-0.1-0.2-0.2-0.2c-0.1-0.1-0.2-0.2-0.3-0.2c-0.1-0.1-0.3-0.2-0.4-0.3l4.2-0.6
		c0.1,0,0.2,0,0.3,0c0.1,0,0.1,0,0.2,0.1c0,0,0.1,0.1,0.1,0.1c0,0.1,0,0.1,0.1,0.2l0.1,0.7l0.5-0.1L39.3,84.1z M40,88.9L39.5,89
		l0.2,0.7c0,0.1,0,0.2,0,0.2c0,0.1,0,0.1-0.1,0.2c0,0-0.1,0.1-0.2,0.1c-0.1,0-0.1,0.1-0.2,0.1l-5,1.3l0.2,0.9l0.6,0.5
		c0.1,0.1,0.3,0.2,0.4,0.3c0.1,0.1,0.2,0.2,0.3,0.3c0.1,0.1,0.1,0.2,0.2,0.3c0.1,0.1,0.1,0.2,0.1,0.2c0.1,0,0.2-0.1,0.2-0.1
		c0.1,0,0.1-0.1,0.2-0.2c0-0.1,0.1-0.1,0.1-0.2c0-0.1,0-0.1,0-0.2c0-0.1-0.1-0.2-0.1-0.2c-0.1-0.1-0.1-0.1-0.2-0.2
		c-0.1-0.1-0.2-0.1-0.3-0.2s-0.3-0.1-0.4-0.2l4.1-1.1c0.1,0,0.2,0,0.3,0c0.1,0,0.1,0,0.2,0c0,0,0.1,0.1,0.1,0.1c0,0,0.1,0.1,0.1,0.2
		l0.2,0.7l0.4-0.1L40,88.9z M38.4,97.7c-0.3,0.1-0.6,0.1-0.8,0.2c-0.2,0-0.4,0-0.6,0s-0.2-0.2-0.3-0.3c-0.1-0.1,0-0.3,0-0.4
		c0.1-0.1,0.2-0.3,0.4-0.4c0.2-0.1,0.4-0.3,0.7-0.4c0.3-0.1,0.6-0.3,1-0.4c0.4-0.1,0.7-0.3,1-0.4s0.6-0.2,0.8-0.2c0.2,0,0.4,0,0.6,0
		c0.1,0.1,0.2,0.2,0.3,0.3c0.1,0.1,0,0.3,0,0.4s-0.2,0.3-0.4,0.4c-0.2,0.1-0.4,0.3-0.7,0.4c-0.3,0.1-0.6,0.3-1,0.4
		C39,97.5,38.7,97.6,38.4,97.7 M37.2,95.2c-0.3,0.2-0.6,0.4-0.8,0.7c-0.2,0.3-0.3,0.5-0.4,0.8c0,0.3,0,0.6,0.1,1
		c0.1,0.4,0.3,0.7,0.6,0.9c0.2,0.2,0.5,0.3,0.8,0.4c0.3,0.1,0.7,0.1,1,0c0.4-0.1,0.8-0.2,1.2-0.3c0.4-0.2,0.8-0.4,1.2-0.6
		c0.3-0.2,0.6-0.4,0.8-0.7c0.2-0.3,0.3-0.5,0.4-0.8c0-0.3,0-0.6-0.1-1c-0.1-0.3-0.3-0.6-0.5-0.8c-0.2-0.2-0.5-0.3-0.8-0.4
		c-0.3-0.1-0.7-0.1-1.1,0c-0.4,0.1-0.8,0.2-1.2,0.3C37.9,94.8,37.6,95,37.2,95.2 M38.6,101.2c-0.1,0.2-0.2,0.3-0.2,0.5
		c0,0.2,0,0.4,0,0.7c0.1,0.2,0.2,0.5,0.3,0.8c0.1,0.3,0.3,0.5,0.5,0.7c0.2,0.2,0.3,0.3,0.5,0.4c0.2,0.1,0.3,0.1,0.5,0.1
		c0.2,0,0.3,0,0.4-0.1c0.1-0.1,0.2-0.2,0.3-0.3c0.1-0.1,0.1-0.2,0.1-0.3c0-0.1,0-0.2,0-0.4c0-0.1-0.1-0.3-0.2-0.4
		c-0.4,0.2-0.8,0.3-1.1,0.4s-0.5-0.1-0.6-0.4c-0.1-0.2-0.1-0.4,0-0.5c0.1-0.2,0.3-0.3,0.6-0.5c0.2-0.1,0.4-0.2,0.6-0.2
		c0.2-0.1,0.4-0.1,0.6-0.1c0.2,0,0.5,0,0.7,0.1c0.3,0.1,0.6,0.1,0.9,0.2l1.7,0.5l0.8-0.4l-1.9-3.6l-1.6,0.8l0.2,0.4l0.3-0.1
		c0.2,0,0.4,0,0.5,0c0.1,0.1,0.3,0.2,0.3,0.3l0.9,1.8l-1.1-0.4c-0.4-0.1-0.7-0.2-1-0.3c-0.3-0.1-0.6-0.2-0.8-0.2
		c-0.2-0.1-0.4-0.1-0.6-0.1c-0.2,0-0.3,0-0.5,0s-0.3,0-0.4,0c-0.1,0-0.2,0.1-0.4,0.1C38.9,100.9,38.7,101,38.6,101.2 M47.5,105.5
		c-0.2-0.1-0.3-0.2-0.5-0.3c-0.2-0.1-0.3-0.1-0.4-0.1c-0.1,0-0.2,0.1-0.3,0.1c-0.2,0.1-0.2,0.3-0.2,0.4c0.1,0,0.2,0,0.3,0
		c0.1,0,0.2,0,0.3,0.1c0.1,0,0.2,0.1,0.3,0.2c0.1,0.1,0.2,0.2,0.3,0.3c0.1,0.1,0.2,0.3,0.2,0.4c0,0.1,0,0.3,0,0.5
		c0,0.2-0.1,0.3-0.3,0.5c-0.1,0.2-0.3,0.3-0.5,0.5l-1.7-2.2l-0.3,0.3c-0.3,0.2-0.5,0.4-0.6,0.7c-0.1,0.2-0.2,0.5-0.3,0.7
		c0,0.2,0,0.5,0.1,0.7c0.1,0.2,0.2,0.5,0.4,0.7c0.2,0.3,0.4,0.5,0.7,0.6c0.2,0.1,0.5,0.2,0.8,0.2c0.3,0,0.6,0,0.9-0.1
		c0.3-0.1,0.6-0.3,0.9-0.5c0.3-0.2,0.5-0.5,0.7-0.7s0.3-0.5,0.3-0.8c0-0.3,0-0.5-0.1-0.8c-0.1-0.3-0.2-0.6-0.5-0.8
		C47.9,105.8,47.7,105.6,47.5,105.5 M44.7,108.4c0-0.1,0-0.2,0.1-0.3c0.1-0.1,0.2-0.2,0.3-0.4c0.1-0.1,0.3-0.3,0.4-0.4l0.9,1.2
		c-0.4,0.3-0.7,0.4-1,0.5c-0.3,0-0.5,0-0.6-0.2C44.7,108.6,44.7,108.5,44.7,108.4 M50.6,109.1c-0.2-0.1-0.4-0.2-0.5-0.2
		c-0.2,0-0.3,0-0.4,0c-0.1,0-0.2,0.1-0.3,0.2c-0.1,0.1-0.1,0.1-0.1,0.2c0,0.1,0,0.2,0,0.2c0.1,0,0.2-0.1,0.3-0.1c0.1,0,0.2,0,0.4,0
		s0.2,0.1,0.4,0.1c0.1,0.1,0.2,0.2,0.3,0.3c0.3,0.3,0.3,0.5,0.2,0.9s-0.3,0.7-0.7,1.1c-0.3,0.3-0.5,0.5-0.7,0.6
		c-0.2,0.1-0.4,0.2-0.5,0.3c-0.2,0.1-0.3,0.1-0.4,0s-0.2-0.1-0.3-0.2c-0.1-0.1-0.1-0.2-0.1-0.3c0-0.1,0-0.2,0-0.3
		c0-0.1,0.1-0.2,0.2-0.3c0.1-0.1,0.2-0.2,0.3-0.3c-0.2-0.2-0.3-0.3-0.4-0.3c-0.1-0.1-0.2-0.1-0.4-0.1c-0.1,0-0.2,0-0.3,0
		c-0.1,0-0.2,0.1-0.2,0.2c-0.1,0.1-0.1,0.2-0.2,0.3s0,0.3,0,0.4c0,0.2,0.1,0.3,0.2,0.5c0.1,0.2,0.3,0.4,0.5,0.6
		c0.2,0.2,0.4,0.4,0.7,0.5c0.2,0.1,0.5,0.2,0.8,0.2c0.3,0,0.5-0.1,0.8-0.2c0.3-0.1,0.6-0.4,0.9-0.7c0.3-0.3,0.5-0.6,0.7-0.9
		c0.1-0.3,0.2-0.6,0.2-0.8c0-0.3-0.1-0.5-0.2-0.8c-0.1-0.2-0.3-0.5-0.5-0.7C51,109.4,50.8,109.2,50.6,109.1 M53.1,111.7l-0.3,0.4
		l0,0c0.1,0.1,0.1,0.1,0.2,0.2c0,0.1,0.1,0.1,0.1,0.2c0,0.1,0,0.1,0,0.2c0,0.1-0.1,0.2-0.2,0.3l-1.2,1.6c-0.2,0.2-0.3,0.4-0.4,0.6
		c-0.1,0.2-0.1,0.4-0.1,0.6c0,0.2,0.1,0.3,0.2,0.5c0.1,0.2,0.2,0.3,0.4,0.4c0.1,0.1,0.2,0.2,0.3,0.2c0.1,0.1,0.2,0.1,0.3,0.1
		c0.1,0,0.2,0,0.4,0c0.1,0,0.3-0.1,0.5-0.1l0,0l-0.3,0.5l1.4,1.1l0.3-0.4l0,0c-0.1-0.1-0.1-0.1-0.2-0.2c-0.1-0.1-0.1-0.1-0.1-0.2
		c0-0.1,0-0.1,0-0.2c0-0.1,0.1-0.2,0.1-0.3l1.6-2c0.1-0.1,0.2-0.2,0.2-0.2s0.1-0.1,0.2-0.1c0.1,0,0.1,0,0.2,0.1
		c0.1,0,0.1,0.1,0.2,0.2l0,0l0.3-0.4l-2.1-1.6l-0.3,0.4l0,0c0.1,0.1,0.1,0.1,0.2,0.2c0.1,0.1,0.1,0.1,0.1,0.2c0,0.1,0,0.1,0,0.2
		c0,0.1-0.1,0.2-0.1,0.3l-1,1.3c-0.1,0.1-0.2,0.3-0.3,0.4c-0.1,0.1-0.2,0.2-0.4,0.3c-0.1,0.1-0.2,0.1-0.4,0.1c-0.1,0-0.2,0-0.3-0.1
		c-0.1-0.1-0.2-0.2-0.2-0.3c0-0.1,0-0.2,0-0.3c0-0.1,0.1-0.2,0.1-0.4c0.1-0.1,0.2-0.3,0.3-0.4l1.7-2.2L53.1,111.7z M60.1,117.1
		l0.2-0.4l-2.3-1.4l-0.2,0.4l0.1,0.1c0.1,0,0.1,0.1,0.2,0.1c0.1,0,0.1,0.1,0.1,0.2c0,0.1,0,0.1,0,0.2c0,0.1,0,0.2-0.1,0.3l-1.8,3.1
		l1.7,1l0.2-0.4l-0.1-0.1c-0.1,0-0.1-0.1-0.2-0.1c-0.1,0-0.1-0.1-0.1-0.2c0-0.1,0-0.1,0-0.2c0-0.1,0-0.2,0.1-0.3l1.3-2.2
		c0.1-0.1,0.1-0.2,0.2-0.2c0.1,0,0.1-0.1,0.2-0.1c0.1,0,0.1,0,0.2,0C59.9,117,59.9,117,60.1,117.1L60.1,117.1z M56.8,121.2
		c0-0.1,0-0.2,0-0.2c0-0.1-0.1-0.1-0.1-0.2c-0.1-0.1-0.1-0.1-0.2-0.2c-0.1-0.1-0.2-0.1-0.3-0.1c-0.1,0-0.2,0-0.3,0
		c-0.1,0-0.2,0-0.2,0.1c-0.1,0-0.1,0.1-0.2,0.2c-0.1,0.1-0.1,0.2-0.1,0.3c0,0.1,0,0.2,0,0.2c0,0.1,0.1,0.1,0.1,0.2
		c0.1,0.1,0.1,0.1,0.2,0.2c0.1,0.1,0.2,0.1,0.3,0.1c0.1,0,0.2,0,0.3,0c0.1,0,0.2,0,0.2-0.1c0.1,0,0.1-0.1,0.2-0.2
		C56.8,121.4,56.8,121.3,56.8,121.2 M62.1,117.7c-0.3,0-0.6,0-0.8,0c-0.3,0.1-0.5,0.2-0.7,0.3c-0.2,0.2-0.4,0.4-0.5,0.6
		c-0.1,0.2-0.1,0.4-0.2,0.6c0,0.2,0,0.4,0.1,0.5c0.1,0.2,0.2,0.4,0.3,0.6c0.1,0.2,0.3,0.4,0.5,0.7c0.2,0.2,0.4,0.4,0.5,0.6
		c0.1,0.2,0.2,0.3,0.3,0.5c0.1,0.1,0.1,0.3,0.1,0.4c0,0.1,0,0.2-0.1,0.3c-0.1,0.1-0.1,0.2-0.2,0.3c-0.1,0.1-0.2,0.1-0.3,0.1
		c-0.1,0-0.2,0-0.3,0c-0.1,0-0.2,0-0.3-0.1c-0.1-0.1-0.3-0.2-0.3-0.3c-0.1-0.1-0.1-0.2-0.1-0.4c0-0.1,0-0.3,0-0.4
		c0-0.1,0.1-0.3,0.1-0.4c-0.2-0.1-0.3-0.1-0.4-0.1c-0.1,0-0.3,0-0.4,0c-0.1,0-0.2,0.1-0.3,0.1c-0.1,0.1-0.1,0.1-0.2,0.2
		c-0.1,0.1-0.1,0.3-0.1,0.4c0,0.1,0.1,0.3,0.2,0.4c0.1,0.1,0.2,0.3,0.4,0.4c0.2,0.1,0.4,0.3,0.7,0.4c0.3,0.1,0.5,0.2,0.8,0.2
		c0.3,0,0.5,0,0.7,0c0.2-0.1,0.4-0.2,0.6-0.3c0.2-0.1,0.3-0.3,0.4-0.6c0.1-0.2,0.1-0.4,0.2-0.6c0-0.2,0-0.4,0-0.6
		c0-0.2-0.1-0.4-0.3-0.6c-0.1-0.2-0.3-0.4-0.5-0.7c-0.2-0.2-0.3-0.4-0.4-0.5s-0.2-0.3-0.3-0.4c-0.1-0.1-0.1-0.3-0.1-0.4
		c0-0.1,0-0.3,0.1-0.4c0.1-0.1,0.1-0.2,0.2-0.3c0.1-0.1,0.2-0.1,0.3-0.2c0.1,0,0.2,0,0.4,0c0.1,0,0.3,0.1,0.4,0.1
		c0.2,0.1,0.3,0.2,0.4,0.3c0.1,0.1,0.2,0.3,0.2,0.4c0,0.2,0,0.3,0,0.5c0,0.2-0.1,0.4-0.2,0.6c0.1,0.1,0.2,0.1,0.3,0.1
		c0.1,0,0.2,0,0.3,0s0.2-0.1,0.3-0.1c0.1-0.1,0.2-0.2,0.2-0.3c0.1-0.1,0.1-0.3,0.1-0.4c0-0.2,0-0.3-0.1-0.5
		c-0.1-0.2-0.2-0.3-0.4-0.5c-0.2-0.2-0.5-0.3-0.8-0.5C62.7,117.8,62.4,117.7,62.1,117.7 M69.4,122.9c0-0.2-0.1-0.3-0.1-0.5
		c-0.1-0.1-0.2-0.2-0.3-0.3c-0.1-0.1-0.3-0.1-0.5-0.2c-0.2,0-0.3-0.1-0.5-0.1s-0.3,0-0.4,0.1c-0.1,0.1-0.3,0.2-0.4,0.3
		c-0.1,0.1-0.2,0.3-0.3,0.6c-0.1,0.2-0.1,0.5-0.1,0.6s0.1,0.3,0.1,0.5c0.1,0.1,0.2,0.2,0.3,0.3c0.1,0.1,0.3,0.1,0.4,0.2
		c0.2,0,0.3,0.1,0.5,0.1c0.2,0,0.3,0,0.4-0.1c0.1-0.1,0.3-0.2,0.4-0.3c0.1-0.2,0.2-0.4,0.3-0.6C69.4,123.3,69.4,123.1,69.4,122.9
		 M76.5,122.7c0.1,0.3,0.1,0.7,0,1.3c0,0.3-0.1,0.5-0.1,0.7s-0.1,0.4-0.2,0.5c-0.1,0.1-0.2,0.2-0.3,0.3c-0.1,0.1-0.2,0.1-0.4,0.1
		c-0.2,0-0.3-0.1-0.4-0.2c-0.1-0.1-0.2-0.2-0.2-0.4c0-0.2-0.1-0.3-0.1-0.6c0-0.2,0-0.5,0-0.7c0-0.3,0.1-0.5,0.1-0.8
		c0.1-0.2,0.1-0.4,0.2-0.5c0.1-0.1,0.2-0.2,0.3-0.3c0.1-0.1,0.3-0.1,0.4-0.1C76.2,122.2,76.4,122.4,76.5,122.7 M73.1,127.8l2,0.2
		l0.1-0.4l-0.1,0c-0.1,0-0.2,0-0.3,0c-0.1,0-0.2-0.1-0.2-0.1c-0.1,0-0.1-0.1-0.1-0.2c0-0.1,0-0.2,0-0.3l0.1-0.5c0,0,0-0.1,0-0.1
		c0,0,0-0.1,0-0.1c0-0.1,0-0.1,0-0.2c0-0.1,0-0.1,0-0.2c0-0.1,0-0.3,0-0.4l0.1,0c0,0.1,0.1,0.2,0.2,0.3c0.1,0.1,0.2,0.2,0.3,0.2
		c0.1,0.1,0.2,0.1,0.3,0.2c0.1,0,0.3,0.1,0.4,0.1c0.3,0,0.5,0,0.7-0.1c0.2-0.1,0.4-0.2,0.6-0.4c0.2-0.2,0.3-0.4,0.4-0.7
		c0.1-0.3,0.2-0.6,0.2-1.1c0-0.4,0.1-0.8,0-1.1c0-0.3-0.1-0.6-0.3-0.8c-0.1-0.2-0.3-0.4-0.5-0.5c-0.2-0.1-0.4-0.2-0.7-0.2
		c-0.2,0-0.3,0-0.5,0c-0.1,0-0.3,0.1-0.4,0.1c-0.1,0.1-0.2,0.1-0.3,0.2c-0.1,0.1-0.2,0.2-0.3,0.3l-0.1,0l-0.2-0.7l-1.6-0.2l-0.1,0.5
		l0,0c0.1,0,0.2,0,0.3,0.1c0.1,0,0.2,0.1,0.2,0.1s0.1,0.1,0.1,0.2c0,0.1,0,0.2,0,0.3L73.1,127.8z M78.8,121.9l0,0.5h0
		c0.1,0,0.2,0,0.3,0c0.1,0,0.1,0,0.2,0.1c0,0,0.1,0.1,0.1,0.2c0,0.1,0,0.2,0,0.3l0.1,2c0,0.3,0.1,0.5,0.1,0.7
		c0.1,0.2,0.2,0.4,0.3,0.5c0.1,0.1,0.3,0.2,0.5,0.3c0.2,0.1,0.4,0.1,0.6,0.1c0.1,0,0.3,0,0.4,0c0.1,0,0.2-0.1,0.3-0.1
		c0.1-0.1,0.2-0.1,0.3-0.2c0.1-0.1,0.2-0.2,0.3-0.4l0,0l0.1,0.6l1.8-0.1l0-0.5h0c-0.1,0-0.2,0-0.3,0c-0.1,0-0.1,0-0.2-0.1
		c-0.1,0-0.1-0.1-0.1-0.2c0-0.1-0.1-0.2-0.1-0.3l-0.1-2.5c0-0.1,0-0.2,0-0.3c0-0.1,0.1-0.1,0.1-0.2s0.1-0.1,0.2-0.1
		c0.1,0,0.2,0,0.3,0h0l0-0.5l-2.6,0.1l0,0.5l0,0c0.1,0,0.2,0,0.3,0c0.1,0,0.1,0,0.2,0.1c0.1,0,0.1,0.1,0.1,0.2s0.1,0.2,0.1,0.3
		l0.1,1.6c0,0.2,0,0.3,0,0.5c0,0.2-0.1,0.3-0.1,0.4c-0.1,0.1-0.1,0.2-0.2,0.3c-0.1,0.1-0.2,0.1-0.3,0.1c-0.1,0-0.2,0-0.3-0.1
		c-0.1,0-0.2-0.1-0.2-0.2c-0.1-0.1-0.1-0.2-0.1-0.4c0-0.1,0-0.3-0.1-0.5l-0.1-2.8L78.8,121.9z M87.7,125.2c-0.1,0-0.1-0.1-0.2-0.2
		c-0.1-0.1-0.1-0.2-0.1-0.3c0-0.1-0.1-0.2-0.1-0.4l-0.1-0.5l0.7-0.1c0.6-0.1,1.1-0.3,1.4-0.6c0.3-0.3,0.4-0.6,0.3-1.1
		c0-0.2-0.1-0.4-0.2-0.6c-0.1-0.2-0.2-0.3-0.4-0.4c-0.1-0.1-0.3-0.2-0.5-0.2c-0.2,0-0.3,0-0.5,0c-0.2,0-0.3,0.1-0.4,0.1
		c-0.1,0-0.2,0.1-0.3,0.2c-0.1,0.1-0.2,0.2-0.2,0.3c-0.1,0.1-0.1,0.2-0.2,0.3l-0.1,0l-0.3-0.6l-1.6,0.3L85,122l0,0
		c0.1,0,0.2,0,0.2,0c0.1,0,0.1,0,0.2,0.1c0,0,0.1,0.1,0.1,0.2c0,0.1,0.1,0.2,0.1,0.3l0.4,2.1c0,0.3,0.1,0.5,0.2,0.7
		c0.1,0.2,0.2,0.3,0.4,0.4c0.2,0.1,0.4,0.1,0.6,0.2c0.2,0,0.5,0,0.8-0.1c0.2,0,0.5-0.1,0.7-0.2c0.2-0.1,0.4-0.1,0.5-0.2
		c0.1-0.1,0.3-0.2,0.3-0.3c0.1-0.1,0.1-0.3,0.1-0.4c0-0.2-0.2-0.3-0.4-0.4c-0.2-0.1-0.5,0-0.9,0c0,0.1,0,0.3,0,0.4
		c0,0.1,0,0.2,0,0.3c0,0.1-0.1,0.2-0.1,0.2c-0.1,0.1-0.2,0.1-0.3,0.1C87.8,125.3,87.7,125.3,87.7,125.2 M88.2,122.7
		c0,0.1,0,0.2-0.1,0.3c-0.1,0.1-0.1,0.2-0.2,0.2c-0.1,0.1-0.2,0.1-0.4,0.2l-0.4,0.1l-0.1-0.6c0-0.2,0-0.3,0-0.5c0-0.1,0-0.3,0.1-0.4
		c0.1-0.1,0.1-0.2,0.2-0.3c0.1-0.1,0.2-0.1,0.3-0.1c0.2,0,0.3,0,0.4,0.1s0.2,0.3,0.2,0.5C88.3,122.4,88.3,122.6,88.2,122.7
		 M92.8,120.2l-0.1-0.4l-2.6,0.8l0.1,0.4l0.1,0c0.1,0,0.1,0,0.2,0c0.1,0,0.1,0,0.2,0c0.1,0,0.1,0.1,0.2,0.1c0.1,0.1,0.1,0.1,0.1,0.3
		l1.6,5.3l1.9-0.6l-0.1-0.4l-0.1,0c-0.1,0-0.1,0-0.2,0c-0.1,0-0.1,0-0.2,0c-0.1,0-0.1-0.1-0.2-0.1s-0.1-0.1-0.1-0.2l-1.3-4.3
		c0-0.1,0-0.2,0-0.3s0.1-0.1,0.1-0.2c0-0.1,0.1-0.1,0.2-0.1C92.6,120.3,92.7,120.3,92.8,120.2L92.8,120.2z M94.4,119.6l0.3-0.1
		c0.1,0,0.2-0.1,0.2-0.1c0.1,0,0.1,0,0.2,0c0.1,0,0.1,0.1,0.2,0.1c0.1,0.1,0.1,0.1,0.2,0.3l0.5,1.4c0,0.1,0.1,0.1,0.1,0.2
		c0,0.1,0.1,0.2,0.1,0.3c0,0.1,0,0.2,0,0.3c0,0.1,0,0.2,0,0.3c0,0.1-0.1,0.2-0.1,0.2c-0.1,0.1-0.1,0.1-0.2,0.2c-0.1,0-0.1,0-0.2,0
		c-0.1,0-0.1,0-0.2-0.1s-0.1-0.1-0.1-0.2c0-0.1-0.1-0.2-0.1-0.3c-0.3,0.1-0.5,0.3-0.7,0.5c-0.1,0.2-0.1,0.4,0,0.7
		c0.1,0.2,0.2,0.3,0.4,0.4c0.2,0.1,0.4,0,0.8-0.1c0.2-0.1,0.3-0.1,0.4-0.2c0.1-0.1,0.2-0.2,0.3-0.3c0.1-0.1,0.1-0.2,0.1-0.3
		c0-0.1,0-0.2,0.1-0.4l0,0l0.4,0.6l1.6-0.6l-0.2-0.4l0,0c-0.1,0-0.2,0.1-0.2,0.1c-0.1,0-0.1,0-0.2,0c-0.1,0-0.1-0.1-0.2-0.1
		c-0.1-0.1-0.1-0.2-0.2-0.3l-0.9-2.3c0-0.1-0.1-0.2-0.1-0.3c0-0.1,0-0.2,0.1-0.2c0-0.1,0.1-0.1,0.2-0.2c0.1,0,0.2-0.1,0.2-0.1l0,0
		l-0.2-0.4l-2.7,1L94.4,119.6z M98.6,117.3c-0.2,0.1-0.3,0.3-0.4,0.4c-0.1,0.1-0.1,0.3-0.1,0.4c0,0.1,0,0.2,0.1,0.4
		c0.1,0.2,0.2,0.3,0.4,0.3c0-0.1,0-0.2,0-0.3c0-0.1,0.1-0.2,0.1-0.3c0.1-0.1,0.1-0.2,0.2-0.3c0.1-0.1,0.2-0.2,0.3-0.2
		c0.2-0.1,0.3-0.1,0.5-0.1c0.2,0,0.3,0,0.4,0.1c0.1,0.1,0.3,0.2,0.4,0.3c0.1,0.2,0.3,0.4,0.4,0.6l-2.5,1.3l0.2,0.4
		c0.2,0.3,0.3,0.5,0.5,0.7c0.2,0.2,0.4,0.3,0.7,0.4c0.2,0.1,0.5,0.1,0.7,0c0.3,0,0.5-0.1,0.8-0.3c0.3-0.2,0.5-0.3,0.7-0.6
		c0.2-0.2,0.3-0.5,0.4-0.7c0.1-0.3,0.1-0.6,0-0.9c-0.1-0.3-0.2-0.6-0.4-1c-0.2-0.3-0.4-0.6-0.6-0.8c-0.2-0.2-0.5-0.4-0.7-0.5
		c-0.3-0.1-0.5-0.1-0.8-0.1c-0.3,0-0.6,0.1-0.9,0.3C99,117,98.8,117.1,98.6,117.3 M101,120.6c-0.1,0-0.2-0.1-0.3-0.1
		c-0.1-0.1-0.2-0.2-0.3-0.3c-0.1-0.1-0.2-0.3-0.3-0.5l1.3-0.7c0.2,0.4,0.3,0.8,0.3,1c0,0.3-0.1,0.5-0.3,0.6
		C101.2,120.6,101.1,120.6,101,120.6 M104.5,114.3l0,4.4l0.2,0.3l3-2.1l-0.7-1.2l-0.4,0.3l0.1,0.2c0,0.1,0.1,0.2,0.1,0.3
		c0,0.1,0,0.2,0,0.2c0,0.1,0,0.1,0,0.2c0,0-0.1,0.1-0.1,0.1l-1,0.7l0-4.4l-0.2-0.3l-3.3,2.3l0.9,1.3l0.4-0.3l-0.1-0.3
		c-0.1-0.1-0.1-0.2-0.1-0.3c0-0.1,0-0.2,0-0.2c0-0.1,0-0.1,0.1-0.2c0-0.1,0.1-0.1,0.2-0.2L104.5,114.3z M107.2,112.4
		c0.1,0,0.3,0.1,0.5,0.3l1.8,2l-0.8,0.7l0.4,0.4l0.8-0.7l0.7,0.8l0.5-0.5c-0.2-0.3-0.3-0.6-0.3-0.9c0-0.1,0-0.3,0.1-0.4
		c0.1-0.2,0.2-0.3,0.3-0.4l-0.3-0.3l-0.5,0.4l-1.8-2c-0.2-0.2-0.3-0.3-0.5-0.4c-0.2-0.1-0.3-0.1-0.5-0.1c-0.2,0-0.3,0-0.4,0.1
		c-0.1,0.1-0.3,0.2-0.4,0.3c-0.1,0.1-0.2,0.2-0.3,0.3s-0.2,0.2-0.2,0.3c-0.1,0.1-0.1,0.2-0.2,0.2c0,0.1-0.1,0.1-0.1,0.2l0.4,0.4
		c0.1-0.1,0.1-0.2,0.2-0.2c0.1-0.1,0.1-0.2,0.2-0.2C106.9,112.4,107,112.3,107.2,112.4 M110.7,108.4l-0.3-0.3l-1.9,2l0.3,0.3
		l0.1-0.1c0,0,0.1-0.1,0.2-0.1c0.1,0,0.1-0.1,0.2-0.1c0.1,0,0.1,0,0.2,0c0.1,0,0.2,0.1,0.3,0.2l2.6,2.5l1.4-1.4l-0.3-0.3l-0.1,0.1
		c0,0-0.1,0.1-0.1,0.1c-0.1,0-0.1,0.1-0.2,0.1c-0.1,0-0.1,0-0.2,0s-0.2-0.1-0.2-0.1l-1.9-1.8c-0.1-0.1-0.1-0.2-0.2-0.2
		c0-0.1,0-0.2,0-0.2c0-0.1,0-0.1,0.1-0.2C110.6,108.6,110.6,108.6,110.7,108.4L110.7,108.4z M114,112.5c-0.1,0-0.2,0-0.2,0
		c-0.1,0-0.2,0-0.2,0.1c-0.1,0-0.2,0.1-0.2,0.2c-0.1,0.1-0.1,0.1-0.2,0.2c0,0.1-0.1,0.2-0.1,0.2c0,0.1,0,0.2,0,0.2s0.1,0.2,0.2,0.2
		c0.1,0.1,0.2,0.1,0.2,0.2s0.2,0,0.2,0c0.1,0,0.2,0,0.2-0.1c0.1,0,0.2-0.1,0.2-0.2c0.1-0.1,0.1-0.2,0.2-0.2c0-0.1,0.1-0.2,0.1-0.2
		c0-0.1,0-0.2,0-0.2c0-0.1-0.1-0.2-0.2-0.2C114.2,112.6,114.1,112.6,114,112.5 M116.7,107.4l-1.5-2.1c-0.1-0.2-0.2-0.3-0.3-0.5
		c-0.1-0.1-0.2-0.2-0.3-0.3l0,0c0.1,0,0.1,0.1,0.2,0.1c0.1,0,0.2,0.1,0.3,0.1c0.1,0,0.2,0.1,0.3,0.1c0.1,0,0.2,0.1,0.3,0.1l1.1,0.4
		c0.1,0,0.1,0,0.2,0.1c0.1,0,0.1,0.1,0.2,0.1c0.1,0.1,0.2,0.2,0.2,0.3c0,0.1-0.1,0.2-0.2,0.4l-0.1,0.1l0.4,0.3l1.5-2l-0.4-0.3l0,0
		c0,0.1-0.1,0.1-0.1,0.2c0,0-0.1,0.1-0.2,0.1c-0.1,0-0.1,0-0.2,0c-0.1,0-0.1,0-0.2,0l-3.6-1.3l-0.5,0.8l1.7,2.5l-2.9-0.9l-0.5,0.7
		l2.2,2.9c0.1,0.1,0.2,0.2,0.2,0.3c0,0.1,0.1,0.2,0.1,0.2c0,0.1,0,0.1,0,0.2c0,0.1-0.1,0.1-0.1,0.2l-0.1,0.1l0.4,0.3l1.1-1.6
		l-0.4-0.3l0,0c-0.1,0.2-0.2,0.3-0.3,0.3c-0.1,0-0.2,0-0.3-0.1c0,0-0.1-0.1-0.1-0.1c-0.1-0.1-0.1-0.1-0.2-0.2l-0.8-1
		c-0.1-0.1-0.1-0.2-0.2-0.2c-0.1-0.1-0.1-0.1-0.2-0.2c0-0.1-0.1-0.1-0.1-0.2c0,0-0.1-0.1-0.1-0.2l0,0c0.1,0,0.2,0.1,0.3,0.2
		c0.1,0.1,0.3,0.1,0.5,0.2l2.5,0.8L116.7,107.4z M116.1,100c-0.1,0.3,0,0.6,0,0.8s0.2,0.5,0.3,0.7c0.2,0.2,0.4,0.4,0.6,0.5
		c0.2,0.1,0.4,0.2,0.5,0.2c0.2,0,0.4,0,0.6,0c0.2-0.1,0.4-0.1,0.6-0.3c0.2-0.1,0.4-0.3,0.7-0.5c0.2-0.2,0.4-0.4,0.6-0.5
		c0.2-0.1,0.3-0.2,0.5-0.2c0.1,0,0.3-0.1,0.4,0s0.2,0,0.3,0.1c0.1,0.1,0.2,0.1,0.3,0.2s0.1,0.2,0.1,0.3s0,0.2,0,0.3
		c0,0.1-0.1,0.2-0.1,0.3c-0.1,0.1-0.2,0.3-0.3,0.3c-0.1,0.1-0.3,0.1-0.4,0.1c-0.1,0-0.3,0-0.4,0c-0.1,0-0.3-0.1-0.4-0.1
		c-0.1,0.2-0.1,0.3-0.2,0.4c0,0.1,0,0.3,0,0.4c0,0.1,0.1,0.2,0.1,0.3c0.1,0.1,0.1,0.1,0.2,0.2c0.1,0.1,0.3,0.1,0.4,0.1
		c0.1,0,0.3-0.1,0.4-0.1c0.1-0.1,0.3-0.2,0.4-0.4s0.3-0.4,0.4-0.7c0.1-0.3,0.2-0.5,0.3-0.8c0-0.3,0-0.5,0-0.7c0-0.2-0.1-0.4-0.3-0.6
		c-0.1-0.2-0.3-0.3-0.6-0.5c-0.2-0.1-0.4-0.2-0.5-0.2c-0.2,0-0.4,0-0.6,0c-0.2,0-0.4,0.1-0.6,0.2c-0.2,0.1-0.4,0.3-0.7,0.5
		c-0.2,0.2-0.4,0.3-0.5,0.4c-0.2,0.1-0.3,0.2-0.5,0.3c-0.1,0.1-0.3,0.1-0.4,0.1c-0.1,0-0.3,0-0.4-0.1c-0.1-0.1-0.2-0.1-0.3-0.2
		s-0.1-0.2-0.2-0.3c0-0.1,0-0.2,0-0.4c0-0.1,0.1-0.3,0.1-0.4c0.1-0.2,0.2-0.3,0.3-0.4c0.1-0.1,0.3-0.2,0.4-0.2c0.2,0,0.3,0,0.5,0
		c0.2,0,0.4,0.1,0.6,0.2c0.1-0.1,0.1-0.2,0.1-0.3c0-0.1,0-0.2,0-0.3s-0.1-0.2-0.1-0.3c-0.1-0.1-0.2-0.2-0.3-0.2
		c-0.1-0.1-0.3-0.1-0.4-0.1c-0.2,0-0.3,0-0.5,0.1c-0.2,0.1-0.4,0.2-0.5,0.4c-0.2,0.2-0.4,0.5-0.5,0.8
		C116.2,99.4,116.1,99.7,116.1,100 M118.5,94.7l0.4,0.1l0,0c0-0.1,0.1-0.2,0.1-0.2c0-0.1,0.1-0.1,0.1-0.1c0.1,0,0.1-0.1,0.2-0.1
		c0.1,0,0.2,0,0.3,0.1l1.9,0.6c0.3,0.1,0.5,0.1,0.7,0.1c0.2,0,0.4,0,0.6-0.1c0.2-0.1,0.3-0.2,0.4-0.3c0.1-0.2,0.2-0.3,0.3-0.5
		c0-0.1,0.1-0.3,0.1-0.4c0-0.1,0-0.2,0-0.4c0-0.1-0.1-0.2-0.1-0.4c-0.1-0.1-0.2-0.2-0.3-0.4l0,0l0.6,0.1l0.5-1.7l-0.4-0.1l0,0
		c0,0.1-0.1,0.2-0.1,0.2c0,0.1-0.1,0.1-0.1,0.2s-0.1,0.1-0.2,0.1c-0.1,0-0.2,0-0.3,0l-2.4-0.7c-0.1,0-0.2-0.1-0.3-0.1
		s-0.1-0.1-0.1-0.2c0-0.1,0-0.1,0-0.2c0-0.1,0-0.2,0.1-0.3l0,0l-0.4-0.1l-0.7,2.5l0.4,0.1l0,0c0-0.1,0.1-0.2,0.1-0.2
		c0-0.1,0.1-0.1,0.1-0.2c0.1,0,0.1-0.1,0.2-0.1c0.1,0,0.2,0,0.3,0l1.6,0.5c0.2,0,0.3,0.1,0.5,0.2c0.1,0.1,0.3,0.1,0.4,0.2
		c0.1,0.1,0.2,0.2,0.2,0.3s0,0.2,0,0.4c0,0.1-0.1,0.2-0.2,0.3c-0.1,0.1-0.2,0.1-0.3,0.1c-0.1,0-0.2,0-0.4,0c-0.1,0-0.3-0.1-0.5-0.1
		l-2.7-0.8L118.5,94.7z M121,86.2l-0.4-0.1l-0.5,2.7l0.4,0.1l0-0.1c0-0.1,0-0.1,0.1-0.2s0.1-0.1,0.1-0.2c0-0.1,0.1-0.1,0.2-0.1
		c0.1,0,0.2,0,0.3,0l3.5,0.7l0.4-2l-0.4-0.1l0,0.1c0,0.1,0,0.1-0.1,0.2c0,0.1-0.1,0.1-0.1,0.2c0,0.1-0.1,0.1-0.2,0.1
		c-0.1,0-0.2,0-0.3,0l-2.6-0.5c-0.1,0-0.2-0.1-0.3-0.1c-0.1-0.1-0.1-0.1-0.1-0.2c0-0.1,0-0.1,0-0.2C120.9,86.5,121,86.4,121,86.2
		L121,86.2z M126,87.8c-0.1,0-0.2,0.1-0.2,0.1c-0.1,0.1-0.1,0.1-0.2,0.2c0,0.1-0.1,0.2-0.1,0.3c0,0.1,0,0.2,0,0.3
		c0,0.1,0,0.2,0.1,0.2c0,0.1,0.1,0.1,0.2,0.2c0.1,0.1,0.2,0.1,0.3,0.1c0.1,0,0.2,0,0.3,0s0.2-0.1,0.2-0.1c0.1-0.1,0.1-0.1,0.1-0.2
		c0-0.1,0.1-0.2,0.1-0.3c0-0.1,0-0.2,0-0.3c0-0.1,0-0.2-0.1-0.2c0-0.1-0.1-0.1-0.2-0.2c-0.1-0.1-0.2-0.1-0.3-0.1
		C126.2,87.8,126.1,87.8,126,87.8 M120.9,82.1c0,0.2,0.1,0.4,0.2,0.5s0.2,0.2,0.3,0.3c0.1,0.1,0.2,0.1,0.3,0.1
		c0.2,0,0.3-0.1,0.4-0.2c-0.1-0.1-0.2-0.1-0.3-0.2c-0.1-0.1-0.2-0.2-0.2-0.3c-0.1-0.1-0.1-0.2-0.1-0.3c0-0.1,0-0.3,0-0.4
		c0-0.2,0-0.3,0.1-0.5c0.1-0.1,0.2-0.3,0.3-0.3c0.1-0.1,0.3-0.2,0.5-0.2c0.2-0.1,0.5-0.1,0.7-0.1l0,2.8l0.4,0c0.3,0,0.6,0,0.9-0.1
		c0.3-0.1,0.5-0.2,0.6-0.4c0.2-0.2,0.3-0.4,0.4-0.6c0.1-0.2,0.1-0.5,0.1-0.8c0-0.3,0-0.6-0.1-0.9c-0.1-0.3-0.2-0.5-0.4-0.7
		c-0.2-0.2-0.5-0.3-0.8-0.4c-0.3-0.1-0.7-0.2-1.1-0.2c-0.4,0-0.7,0-1,0.1c-0.3,0.1-0.5,0.2-0.7,0.4c-0.2,0.2-0.4,0.4-0.5,0.7
		c-0.1,0.3-0.2,0.6-0.2,1C120.8,81.7,120.8,81.9,120.9,82.1 M124.9,81.6c-0.1,0.1-0.2,0.2-0.3,0.2c-0.1,0.1-0.3,0.1-0.4,0.1
		c-0.2,0-0.4,0-0.6,0l0-1.5c0.5,0,0.8,0.1,1,0.2c0.2,0.1,0.4,0.3,0.3,0.6C125,81.5,125,81.6,124.9,81.6 M121.5,74.9
		c0.3-0.2,0.7-0.3,1.3-0.3c0.3,0,0.5,0,0.8,0c0.2,0,0.4,0,0.6,0.1c0.2,0,0.3,0.1,0.4,0.2c0.1,0.1,0.1,0.2,0.2,0.4
		c0,0.2,0,0.3-0.1,0.4c-0.1,0.1-0.2,0.2-0.3,0.3c-0.1,0.1-0.3,0.2-0.5,0.2c-0.2,0.1-0.5,0.1-0.7,0.1c-0.3,0-0.6,0-0.8,0
		c-0.2,0-0.4,0-0.6-0.1c-0.2-0.1-0.3-0.1-0.4-0.2c-0.1-0.1-0.1-0.2-0.2-0.4C121.1,75.3,121.3,75.1,121.5,74.9 M127.3,77.1l-0.2-2
		l-0.4,0l0,0.1c0,0.1,0,0.2,0,0.3c0,0.1,0,0.2,0,0.2c0,0.1-0.1,0.1-0.1,0.2c-0.1,0-0.2,0.1-0.3,0.1l-0.5,0.1c0,0-0.1,0-0.1,0
		c0,0-0.1,0-0.1,0c-0.1,0-0.1,0-0.2,0c-0.1,0-0.1,0-0.2,0c-0.1,0-0.3,0.1-0.4,0.1l0-0.1c0.1-0.1,0.2-0.1,0.3-0.2
		c0.1-0.1,0.1-0.2,0.2-0.3c0-0.1,0.1-0.2,0.1-0.4c0-0.1,0-0.3,0-0.4c0-0.3-0.1-0.5-0.2-0.7c-0.1-0.2-0.3-0.4-0.5-0.5
		c-0.2-0.1-0.5-0.2-0.8-0.2c-0.3,0-0.7,0-1.1,0c-0.4,0-0.8,0.1-1,0.2c-0.3,0.1-0.5,0.2-0.7,0.4c-0.2,0.2-0.3,0.4-0.4,0.6
		c-0.1,0.2-0.1,0.5-0.1,0.8c0,0.2,0.1,0.3,0.1,0.4c0,0.1,0.1,0.2,0.2,0.3c0.1,0.1,0.2,0.2,0.3,0.3c0.1,0.1,0.2,0.1,0.3,0.2l0,0.1
		l-0.6,0.3l0.2,1.6l0.5-0.1l0,0c0-0.1,0-0.2,0-0.3c0-0.1,0-0.2,0.1-0.2c0-0.1,0.1-0.1,0.2-0.2c0.1,0,0.2-0.1,0.3-0.1L127.3,77.1z
		 M123.8,69.8c0,0.1-0.1,0.1-0.2,0.2s-0.2,0.1-0.3,0.1c-0.1,0-0.2,0.1-0.4,0.1l-0.5,0.1l-0.2-0.7c-0.2-0.6-0.4-1.1-0.7-1.3
		c-0.3-0.3-0.7-0.3-1.1-0.2c-0.2,0.1-0.4,0.1-0.6,0.2c-0.2,0.1-0.3,0.2-0.4,0.4s-0.1,0.3-0.2,0.5c0,0.2,0,0.3,0,0.5
		c0,0.2,0.1,0.3,0.1,0.4c0.1,0.1,0.1,0.2,0.2,0.3c0.1,0.1,0.2,0.1,0.3,0.2c0.1,0.1,0.2,0.1,0.4,0.2l0,0.1l-0.5,0.3l0.4,1.5l0.4-0.1
		l0,0c0-0.1,0-0.2,0-0.2c0-0.1,0-0.1,0.1-0.2c0,0,0.1-0.1,0.2-0.1c0.1,0,0.2-0.1,0.3-0.1l2.1-0.5c0.3-0.1,0.5-0.2,0.6-0.3
		c0.2-0.1,0.3-0.3,0.4-0.4c0.1-0.2,0.1-0.4,0.1-0.6c0-0.2,0-0.5-0.1-0.8c-0.1-0.2-0.1-0.5-0.2-0.7c-0.1-0.2-0.2-0.4-0.3-0.5
		c-0.1-0.1-0.2-0.2-0.4-0.3c-0.1-0.1-0.3-0.1-0.4,0c-0.2,0-0.3,0.2-0.4,0.4c0,0.2,0,0.5,0.1,0.9c0.1,0,0.3-0.1,0.4-0.1
		c0.1,0,0.2,0,0.3,0c0.1,0,0.2,0.1,0.2,0.1c0.1,0.1,0.1,0.1,0.1,0.2C123.8,69.6,123.8,69.7,123.8,69.8 M121.2,69.4
		c0.1,0,0.2,0,0.3,0.1c0.1,0,0.2,0.1,0.2,0.2c0.1,0.1,0.1,0.2,0.2,0.4l0.1,0.4l-0.6,0.2c-0.2,0-0.3,0.1-0.5,0.1s-0.3,0-0.4-0.1
		c-0.1,0-0.2-0.1-0.3-0.2s-0.1-0.2-0.2-0.3c0-0.2,0-0.3,0.1-0.4c0.1-0.1,0.3-0.2,0.5-0.2C120.9,69.4,121.1,69.4,121.2,69.4
		 M119.1,67.5l0.4-0.2l-0.1-0.3c0-0.1,0-0.1-0.1-0.2c0-0.1,0-0.1,0-0.2c0-0.1,0.1-0.1,0.1-0.2c0.1,0,0.1-0.1,0.3-0.1l3.8-1.6
		c0.1,0,0.2-0.1,0.3-0.1c0.1,0,0.1,0,0.2,0c0.1,0,0.1,0.1,0.1,0.1c0,0,0.1,0.1,0.1,0.2l0.1,0.3l0.4-0.2l-1-2.2l-4.3,0.4l3.2-2.9
		l-1-2.3l-0.4,0.2l0.1,0.3c0,0.1,0,0.1,0.1,0.2c0,0.1,0,0.1,0,0.2c0,0.1-0.1,0.1-0.1,0.1c-0.1,0-0.1,0.1-0.2,0.1l-3.8,1.6
		c-0.1,0-0.2,0.1-0.3,0.1c-0.1,0-0.1,0-0.2,0c0,0-0.1-0.1-0.1-0.1c0,0-0.1-0.1-0.1-0.2l-0.1-0.3l-0.4,0.2l0.8,1.9l0.4-0.2l0,0
		c0-0.1-0.1-0.2-0.1-0.3c0-0.1,0-0.1,0-0.2c0-0.1,0-0.1,0.1-0.2c0.1-0.1,0.1-0.1,0.3-0.2l3.9-1.7l-4.1,3.7l0.2,0.5l5.5-0.5l-4,1.7
		c-0.1,0-0.2,0.1-0.2,0.1c-0.1,0-0.1,0-0.2,0c0,0-0.1-0.1-0.1-0.1s-0.1-0.1-0.1-0.2l0-0.1L118,65L119.1,67.5z M115.1,54.5
		c-0.1,0.1-0.2,0.3-0.2,0.4c0,0.2,0,0.3,0,0.4s0.1,0.3,0.2,0.4c0.1,0.1,0.2,0.3,0.3,0.4c0.1,0.1,0.3,0.2,0.4,0.2c0.1,0,0.3,0,0.5,0
		c0.2,0,0.4-0.1,0.6-0.3c0.2-0.1,0.4-0.3,0.5-0.4c0.1-0.2,0.2-0.3,0.2-0.5c0-0.2,0-0.3,0-0.5c0-0.1-0.1-0.3-0.2-0.4
		c-0.1-0.1-0.2-0.3-0.3-0.4c-0.1-0.1-0.3-0.2-0.4-0.2c-0.1,0-0.3,0-0.5,0c-0.2,0-0.4,0.1-0.6,0.3C115.3,54.2,115.2,54.4,115.1,54.5
		 M110.1,52.1c0.3,0.2,0.6,0.4,0.9,0.5l1-1c0.1-0.1,0.2-0.1,0.2-0.2c0.1,0,0.1-0.1,0.2-0.1c0.1,0,0.1,0,0.2,0c0.1,0,0.1,0.1,0.2,0.1
		l0.1,0.1l0.3-0.3l-1.9-1.9l-0.3,0.3l0.1,0.1c0.1,0.1,0.2,0.3,0.2,0.4c0,0.1-0.1,0.3-0.2,0.4l-0.9,0.9c-0.1-0.1-0.2-0.1-0.2-0.2
		c-0.1-0.1-0.2-0.1-0.2-0.2c-0.2-0.2-0.4-0.5-0.5-0.7c-0.1-0.2-0.1-0.5,0-0.8c0.1-0.3,0.2-0.5,0.4-0.8c0.2-0.3,0.4-0.5,0.7-0.8
		c0.3-0.3,0.6-0.5,0.9-0.7c0.3-0.2,0.5-0.3,0.8-0.3c0.3-0.1,0.5,0,0.7,0c0.2,0.1,0.5,0.2,0.7,0.5c0.1,0.1,0.2,0.3,0.3,0.4
		c0.1,0.1,0.1,0.3,0.1,0.4c0,0.1-0.1,0.3-0.1,0.4c-0.1,0.1-0.2,0.3-0.3,0.4c0.1,0.1,0.2,0.2,0.4,0.3c0.1,0.1,0.2,0.1,0.4,0.1
		c0.1,0,0.2,0,0.3,0c0.1,0,0.2-0.1,0.3-0.1c0.1-0.1,0.2-0.2,0.2-0.4c0-0.1,0-0.3-0.1-0.5c-0.1-0.2-0.2-0.4-0.3-0.6
		c-0.1-0.2-0.3-0.5-0.6-0.7c-0.4-0.4-0.7-0.7-1.1-0.8c-0.4-0.2-0.8-0.3-1.2-0.3c-0.4,0-0.8,0.1-1.1,0.2c-0.4,0.2-0.7,0.4-1.1,0.7
		c-0.3,0.3-0.6,0.7-0.8,1c-0.2,0.4-0.3,0.7-0.3,1.1c0,0.4,0.1,0.8,0.2,1.2c0.2,0.4,0.4,0.8,0.8,1.2
		C109.5,51.7,109.8,51.9,110.1,52.1 M106.1,45.1l-1.4-1l1.3-0.9c0.1-0.1,0.2-0.1,0.3-0.2c0.1-0.1,0.2-0.1,0.3-0.2
		c0.1-0.1,0.2-0.1,0.3-0.2c0.1-0.1,0.2-0.1,0.2-0.2c0,0.1-0.1,0.2-0.1,0.3c0,0.1-0.1,0.2-0.1,0.3c0,0.1-0.1,0.2-0.1,0.3
		c0,0.1-0.1,0.2-0.1,0.3L106.1,45.1z M105.9,45.7l-0.3,0.9c0,0,0,0.1-0.1,0.2c0,0.1-0.1,0.1-0.1,0.2c0,0-0.1,0.1-0.1,0.1
		c0,0-0.1,0-0.1,0s-0.1,0-0.1,0c0,0-0.1,0-0.1-0.1l-0.3-0.2l-0.3,0.4l2.3,1.7l0.3-0.4l-0.1-0.1c-0.1,0-0.1-0.1-0.1-0.1
		c0-0.1-0.1-0.1-0.1-0.2c0-0.1,0-0.1,0-0.2c0-0.1,0-0.2,0.1-0.3l1.6-5.1l-0.9-0.7l-4.5,2.9c-0.1,0.1-0.2,0.1-0.3,0.2
		c-0.1,0-0.2,0.1-0.2,0.1c-0.1,0-0.1,0-0.2,0c-0.1,0-0.1-0.1-0.2-0.1l-0.1-0.1l-0.3,0.4l1.8,1.3l0.3-0.4l-0.3-0.2
		c0,0-0.1-0.1-0.1-0.1c0,0-0.1-0.1-0.1-0.1c0,0,0-0.1,0-0.1s0-0.1,0.1-0.1c0-0.1,0.1-0.1,0.2-0.2c0.1-0.1,0.1-0.1,0.2-0.2l0.6-0.4
		L105.9,45.7z M98.2,43.1c0.2,0,0.5,0,0.7,0c0.2,0,0.4-0.1,0.5-0.3c0.2-0.1,0.3-0.3,0.4-0.5c0.1-0.2,0.1-0.3,0.1-0.5
		c0-0.2,0-0.3-0.1-0.5c-0.1-0.1-0.1-0.3-0.2-0.4c-0.1-0.1-0.2-0.3-0.4-0.4c-0.2-0.2-0.3-0.3-0.4-0.4c-0.1-0.1-0.2-0.2-0.2-0.3
		c-0.1-0.1-0.1-0.2-0.1-0.3c0-0.1,0-0.2,0.1-0.2c0-0.1,0.1-0.1,0.1-0.2s0.1-0.1,0.2-0.1c0.1,0,0.2,0,0.2,0c0.1,0,0.2,0,0.3,0.1
		c0.2,0.1,0.4,0.3,0.4,0.5c0,0.2,0,0.4-0.1,0.7c0.3,0.1,0.5,0.2,0.7,0.2c0.2,0,0.3-0.1,0.4-0.3c0-0.1,0.1-0.2,0-0.3
		c0-0.1-0.1-0.2-0.1-0.3c-0.1-0.1-0.2-0.2-0.3-0.4s-0.3-0.2-0.6-0.4c-0.2-0.1-0.5-0.2-0.7-0.2c-0.2,0-0.4-0.1-0.6,0
		c-0.2,0-0.4,0.1-0.5,0.2c-0.2,0.1-0.3,0.3-0.4,0.5c-0.1,0.2-0.1,0.3-0.1,0.5c0,0.2,0,0.3,0.1,0.5c0.1,0.2,0.2,0.3,0.3,0.5
		c0.1,0.2,0.3,0.3,0.4,0.5c0.2,0.1,0.3,0.3,0.4,0.4c0.1,0.1,0.2,0.2,0.2,0.3s0.1,0.2,0.1,0.3c0,0.1,0,0.2-0.1,0.2
		c0,0.1-0.1,0.1-0.1,0.2c-0.1,0-0.1,0.1-0.2,0.1c-0.1,0-0.2,0-0.3,0c-0.1,0-0.2-0.1-0.4-0.1c-0.1-0.1-0.2-0.1-0.3-0.2
		c-0.1-0.1-0.1-0.2-0.2-0.3c0-0.1,0-0.3,0-0.4c0-0.1,0.1-0.3,0.1-0.5c-0.1,0-0.1-0.1-0.2-0.1c-0.1,0-0.2,0-0.3,0
		c-0.1,0-0.2,0-0.3,0.1c-0.1,0.1-0.2,0.1-0.2,0.3c-0.1,0.1-0.1,0.3-0.1,0.4c0,0.1,0,0.3,0.1,0.4c0.1,0.1,0.2,0.3,0.4,0.4
		c0.2,0.1,0.4,0.3,0.7,0.4C97.7,43,98,43.1,98.2,43.1 M94.1,41.3c0.2,0,0.4,0,0.6,0c0.2,0,0.3-0.1,0.4-0.2c0.1-0.1,0.2-0.2,0.2-0.3
		c0.1-0.2,0-0.3-0.1-0.5c-0.1,0.1-0.2,0.1-0.3,0.2c-0.1,0.1-0.2,0.1-0.3,0.1c-0.1,0-0.2,0-0.4,0c-0.1,0-0.3,0-0.4-0.1
		c-0.2-0.1-0.3-0.1-0.4-0.2c-0.1-0.1-0.2-0.2-0.2-0.4c0-0.2-0.1-0.3,0-0.6c0-0.2,0.1-0.5,0.2-0.7l2.6,0.9l0.1-0.4
		c0.1-0.3,0.2-0.6,0.2-0.9c0-0.3-0.1-0.5-0.2-0.7c-0.1-0.2-0.3-0.4-0.5-0.6c-0.2-0.2-0.5-0.3-0.7-0.4c-0.3-0.1-0.6-0.2-0.9-0.2
		c-0.3,0-0.5,0.1-0.8,0.2c-0.2,0.1-0.5,0.3-0.6,0.6c-0.2,0.3-0.4,0.6-0.5,0.9c-0.1,0.4-0.2,0.7-0.2,1c0,0.3,0,0.6,0.1,0.8
		c0.1,0.3,0.3,0.5,0.5,0.7c0.2,0.2,0.5,0.3,0.8,0.5C93.6,41.3,93.8,41.3,94.1,41.3 M94.9,37.4c0.1,0.1,0.1,0.2,0.1,0.3
		c0,0.1,0,0.3,0,0.5c0,0.2-0.1,0.4-0.2,0.6l-1.4-0.5c0.2-0.4,0.4-0.7,0.6-0.9c0.2-0.2,0.4-0.2,0.7-0.1
		C94.8,37.2,94.9,37.3,94.9,37.4 M89.5,39.9c0.2,0,0.4,0,0.6-0.1c0.2-0.1,0.3-0.1,0.4-0.2c0.1-0.1,0.1-0.2,0.2-0.3
		c0-0.1,0-0.2,0-0.2c0-0.1-0.1-0.1-0.1-0.2c-0.1,0.1-0.2,0.2-0.2,0.2c-0.1,0.1-0.2,0.1-0.3,0.2c-0.1,0-0.2,0.1-0.4,0.1
		c-0.1,0-0.3,0-0.4,0c-0.4-0.1-0.6-0.3-0.7-0.6c-0.1-0.3-0.1-0.8,0-1.3c0.1-0.4,0.2-0.6,0.3-0.9c0.1-0.2,0.2-0.4,0.3-0.5
		c0.1-0.1,0.2-0.2,0.3-0.2c0.1,0,0.2,0,0.3,0c0.1,0,0.2,0.1,0.2,0.1c0.1,0.1,0.1,0.2,0.1,0.3c0,0.1,0,0.2,0,0.4c0,0.1,0,0.3-0.1,0.4
		c0.2,0,0.4,0.1,0.6,0.1c0.1,0,0.3,0,0.4-0.1c0.1,0,0.2-0.1,0.2-0.2s0.1-0.2,0.1-0.3c0-0.1,0-0.2,0-0.4s-0.1-0.2-0.3-0.3
		s-0.3-0.2-0.5-0.3c-0.2-0.1-0.4-0.2-0.7-0.2c-0.3-0.1-0.6-0.1-0.8-0.1c-0.3,0-0.5,0.1-0.7,0.2c-0.2,0.1-0.4,0.4-0.6,0.6
		c-0.2,0.3-0.3,0.6-0.4,1.1c-0.1,0.4-0.1,0.8-0.1,1.1c0,0.3,0.1,0.6,0.3,0.8s0.3,0.4,0.6,0.5c0.2,0.1,0.5,0.2,0.8,0.3
		C89.1,39.9,89.3,40,89.5,39.9 M83.4,38.5l-0.1,0.5l2.7,0.3l0.1-0.5l-0.1,0c-0.1,0-0.1,0-0.2,0c-0.1,0-0.1-0.1-0.2-0.1
		c-0.1,0-0.1-0.1-0.1-0.2c0-0.1,0-0.2,0-0.3l0.4-3.5l-2-0.2l-0.1,0.5l0.1,0c0.1,0,0.1,0,0.2,0c0.1,0,0.1,0.1,0.2,0.1
		c0.1,0,0.1,0.1,0.1,0.2c0,0.1,0,0.2,0,0.3L84.2,38c0,0.1,0,0.2-0.1,0.3c0,0.1-0.1,0.1-0.2,0.1c-0.1,0-0.1,0-0.2,0.1
		C83.6,38.5,83.6,38.5,83.4,38.5L83.4,38.5z M84.7,33.4c0,0.1,0.1,0.2,0.1,0.2c0.1,0.1,0.1,0.1,0.2,0.1c0.1,0,0.2,0.1,0.3,0.1
		c0.1,0,0.2,0,0.3,0c0.1,0,0.2,0,0.2-0.1c0.1,0,0.1-0.1,0.2-0.2c0-0.1,0.1-0.2,0.1-0.3c0-0.1,0-0.2,0-0.3c0-0.1-0.1-0.2-0.1-0.2
		c-0.1-0.1-0.1-0.1-0.2-0.1c-0.1,0-0.2-0.1-0.3-0.1c-0.1,0-0.2,0-0.3,0c-0.1,0-0.2,0-0.2,0.1c-0.1,0-0.1,0.1-0.2,0.2
		c0,0.1-0.1,0.2-0.1,0.3C84.6,33.2,84.6,33.3,84.7,33.4 M82.8,34.3l-1.9,0l0,0.5l0.2,0c0.1,0,0.2,0,0.2,0.1c0.1,0,0.1,0.1,0.1,0.2
		c0,0.1,0,0.2,0,0.2c0,0.1,0,0.2-0.1,0.2l-0.6,1.7c0,0,0,0.1,0,0.1c0,0.1,0,0.1-0.1,0.2c0,0.1-0.1,0.2-0.1,0.3c0,0.1,0,0.2-0.1,0.2
		c0-0.1-0.1-0.3-0.1-0.5c0-0.2-0.1-0.4-0.2-0.5l-0.6-1.6c0,0,0-0.1,0-0.2c0-0.1,0-0.1,0-0.2c0-0.1,0-0.2,0.1-0.2
		c0.1,0,0.1-0.1,0.2-0.1l0.4,0l0-0.5l-2.7,0l0,0.5c0.1,0,0.2,0,0.2,0c0.1,0,0.1,0,0.2,0.1c0.1,0,0.1,0.1,0.1,0.1
		c0,0.1,0.1,0.1,0.1,0.2l1.4,3.7l1.1,0l1.3-3.5c0.1-0.1,0.1-0.2,0.1-0.3c0-0.1,0.1-0.1,0.1-0.2c0,0,0.1-0.1,0.1-0.1c0,0,0.1,0,0.2,0
		l0.2,0L82.8,34.3z M75.8,39c0.2-0.1,0.4-0.2,0.5-0.3c0.1-0.1,0.2-0.2,0.3-0.3c0.1-0.1,0.1-0.2,0.1-0.4c0-0.2-0.1-0.3-0.3-0.4
		c0,0.1-0.1,0.2-0.2,0.3c-0.1,0.1-0.1,0.2-0.2,0.2c-0.1,0.1-0.2,0.1-0.3,0.2c-0.1,0-0.3,0.1-0.4,0.1c-0.2,0-0.3,0-0.5,0
		c-0.1,0-0.3-0.1-0.4-0.3c-0.1-0.1-0.2-0.3-0.3-0.5C74,37.6,74,37.3,73.9,37l2.8-0.3l-0.1-0.4c0-0.3-0.1-0.6-0.2-0.9
		c-0.1-0.2-0.3-0.4-0.5-0.6c-0.2-0.2-0.4-0.3-0.7-0.3c-0.3-0.1-0.5-0.1-0.8,0c-0.3,0-0.6,0.1-0.9,0.3c-0.2,0.1-0.5,0.3-0.6,0.5
		c-0.2,0.2-0.3,0.5-0.3,0.8c-0.1,0.3-0.1,0.7,0,1.1c0,0.4,0.1,0.7,0.3,1c0.1,0.3,0.3,0.5,0.5,0.7c0.2,0.2,0.5,0.3,0.7,0.4
		s0.6,0.1,1,0C75.4,39.2,75.6,39.1,75.8,39 M74.8,35.1c0.1,0.1,0.2,0.1,0.2,0.2c0.1,0.1,0.1,0.3,0.2,0.4c0,0.2,0.1,0.4,0.1,0.6
		l-1.5,0.2c0-0.5,0-0.8,0.1-1.1c0.1-0.3,0.3-0.4,0.5-0.4C74.6,35,74.7,35,74.8,35.1 M69.7,38c0,0.3,0,0.6-0.1,0.9
		c-0.1,0.3-0.2,0.5-0.4,0.7c-0.2,0.2-0.4,0.3-0.7,0.4l-0.5,0.1l-1.3-4.9l0.5-0.1c0.6-0.2,1-0.1,1.4,0.2c0.4,0.3,0.7,0.8,0.9,1.6
		C69.7,37.3,69.7,37.7,69.7,38 M70.4,35.4c-0.2-0.3-0.5-0.6-0.8-0.7c-0.3-0.2-0.7-0.3-1.1-0.3c-0.4,0-0.8,0-1.3,0.2l-2.7,0.7
		l0.1,0.4l0.3-0.1c0.1,0,0.1,0,0.2,0c0.1,0,0.1,0,0.2,0c0,0,0.1,0.1,0.1,0.1c0,0.1,0.1,0.1,0.1,0.3l1.1,4c0,0.1,0,0.2,0,0.3
		c0,0.1,0,0.1,0,0.2c0,0-0.1,0.1-0.1,0.1c0,0-0.1,0-0.2,0.1L66,40.7l0.1,0.4l2.7-0.7c0.5-0.1,0.9-0.3,1.2-0.6
		c0.3-0.2,0.6-0.5,0.7-0.9c0.2-0.3,0.3-0.7,0.3-1.1c0-0.4,0-0.8-0.2-1.3C70.8,36.1,70.6,35.7,70.4,35.4 M62.6,42.7
		c0.2-0.1,0.3-0.3,0.4-0.4c0.1-0.1,0.1-0.3,0.1-0.4s0-0.2-0.1-0.3c0-0.1-0.1-0.1-0.1-0.2c-0.1,0-0.1-0.1-0.2-0.1
		c0,0.1,0,0.2-0.1,0.3c0,0.1-0.1,0.2-0.1,0.3c-0.1,0.1-0.1,0.2-0.2,0.3c-0.1,0.1-0.2,0.2-0.3,0.2c-0.3,0.2-0.6,0.2-0.9,0
		c-0.3-0.2-0.5-0.5-0.8-1.1c-0.2-0.3-0.3-0.6-0.4-0.8c-0.1-0.2-0.1-0.4-0.1-0.6c0-0.2,0-0.3,0.1-0.4c0.1-0.1,0.1-0.2,0.3-0.2
		c0.1,0,0.2-0.1,0.3,0c0.1,0,0.2,0.1,0.3,0.1c0.1,0.1,0.2,0.2,0.2,0.3c0.1,0.1,0.1,0.2,0.2,0.4c0.2-0.1,0.4-0.2,0.5-0.3
		c0.1-0.1,0.2-0.2,0.2-0.3c0-0.1,0.1-0.2,0-0.3c0-0.1,0-0.2-0.1-0.3c-0.1-0.1-0.1-0.2-0.3-0.3c-0.1-0.1-0.3-0.1-0.4-0.1
		c-0.2,0-0.3,0-0.6,0.1c-0.2,0.1-0.4,0.1-0.7,0.3c-0.3,0.1-0.5,0.3-0.7,0.5s-0.3,0.4-0.4,0.7s-0.1,0.5-0.1,0.9
		c0,0.3,0.2,0.7,0.4,1.1c0.2,0.4,0.4,0.7,0.6,0.9c0.2,0.2,0.5,0.4,0.7,0.5c0.2,0.1,0.5,0.1,0.8,0.1c0.3,0,0.5-0.1,0.8-0.3
		C62.2,43,62.5,42.9,62.6,42.7 M57,45.5l0.2,0.4l2.3-1.5L59.3,44l-0.1,0.1c-0.1,0-0.1,0.1-0.2,0.1c-0.1,0-0.1,0-0.2,0
		c-0.1,0-0.1,0-0.2-0.1c-0.1,0-0.1-0.1-0.2-0.2l-1.9-3L54.8,42l0.2,0.4l0.1-0.1c0.1,0,0.1-0.1,0.2-0.1c0.1,0,0.1,0,0.2,0
		c0.1,0,0.1,0,0.2,0.1c0.1,0,0.1,0.1,0.2,0.2l1.4,2.2c0.1,0.1,0.1,0.2,0.1,0.3c0,0.1,0,0.2,0,0.2c0,0.1-0.1,0.1-0.1,0.2
		C57.2,45.3,57.1,45.4,57,45.5L57,45.5z M54.7,40.7c0.1,0,0.2,0.1,0.2,0.1c0.1,0,0.2,0,0.3,0c0.1,0,0.2-0.1,0.3-0.1
		c0.1-0.1,0.2-0.1,0.2-0.2s0.1-0.1,0.1-0.2c0-0.1,0-0.2,0-0.2c0-0.1,0-0.2-0.1-0.3c-0.1-0.1-0.1-0.2-0.2-0.2c-0.1,0-0.2-0.1-0.2-0.1
		c-0.1,0-0.2,0-0.3,0c-0.1,0-0.2,0.1-0.3,0.1c-0.1,0.1-0.2,0.1-0.2,0.2c-0.1,0.1-0.1,0.1-0.1,0.2c0,0.1,0,0.2,0,0.2
		c0,0.1,0,0.2,0.1,0.3C54.6,40.6,54.6,40.6,54.7,40.7 M54.4,48l-0.3-0.3l0,0c-0.1,0.1-0.1,0.1-0.2,0.2c-0.1,0-0.1,0.1-0.2,0.1
		c-0.1,0-0.1,0-0.2-0.1s-0.1-0.1-0.2-0.2l-1.1-1.3c-0.1-0.1-0.2-0.3-0.3-0.4c-0.1-0.1-0.1-0.3-0.2-0.4c0-0.1,0-0.2,0-0.4
		s0.1-0.2,0.2-0.3c0.2-0.2,0.4-0.2,0.6-0.1c0.2,0.1,0.4,0.3,0.7,0.5l1.8,2.1l1.4-1.2l-0.3-0.3l0,0C56.1,45.9,56,46,56,46
		c-0.1,0-0.1,0.1-0.2,0.1c-0.1,0-0.1,0-0.2-0.1c-0.1,0-0.1-0.1-0.2-0.2L54,44.3c-0.2-0.2-0.4-0.4-0.6-0.5c-0.2-0.1-0.4-0.2-0.5-0.2
		c-0.2,0-0.4,0-0.5,0.1c-0.2,0.1-0.3,0.2-0.5,0.3c-0.1,0.1-0.2,0.2-0.3,0.3c-0.1,0.1-0.2,0.2-0.2,0.3s-0.1,0.2-0.1,0.4
		c0,0.1,0,0.3,0,0.5l-0.1,0c-0.2-0.1-0.5-0.2-0.7-0.1c-0.2,0.1-0.5,0.2-0.7,0.4c-0.1,0.1-0.2,0.2-0.3,0.3c-0.1,0.1-0.1,0.2-0.2,0.3
		c0,0.1-0.1,0.2-0.1,0.4c0,0.1,0,0.3,0,0.5l0,0l-0.5-0.4l-1.4,1.2l0.3,0.3l0,0c0.1-0.1,0.1-0.1,0.2-0.2c0.1,0,0.1-0.1,0.2-0.1
		c0.1,0,0.1,0,0.2,0c0.1,0,0.1,0.1,0.2,0.2l1.7,1.9c0.1,0.1,0.1,0.2,0.2,0.3c0,0.1,0,0.2,0,0.2c0,0.1-0.1,0.1-0.1,0.2
		c-0.1,0.1-0.1,0.1-0.2,0.2l0,0l0.3,0.3l2-1.7l-0.3-0.3l0,0c-0.1,0.1-0.1,0.1-0.2,0.2c-0.1,0-0.1,0.1-0.2,0.1c-0.1,0-0.1,0-0.2,0
		c-0.1,0-0.1-0.1-0.2-0.2l-1.1-1.2c-0.1-0.1-0.2-0.3-0.3-0.4c-0.1-0.1-0.1-0.3-0.2-0.4c0-0.1,0-0.3,0-0.4c0-0.1,0.1-0.2,0.2-0.3
		c0.1-0.1,0.2-0.1,0.3-0.2c0.1,0,0.2,0,0.3,0c0.1,0,0.2,0.1,0.3,0.2c0.1,0.1,0.2,0.2,0.3,0.3l1.8,2.1L54.4,48z M45.5,51.1
		c0.1,0,0.2,0,0.3,0c0.1,0,0.2,0.1,0.3,0.1c0.1,0.1,0.2,0.1,0.3,0.2l0.4,0.3l-0.4,0.6c-0.4,0.5-0.6,1-0.6,1.3c0,0.4,0.1,0.7,0.5,1
		c0.2,0.2,0.4,0.3,0.5,0.3c0.2,0.1,0.4,0.1,0.5,0.1c0.2,0,0.3-0.1,0.5-0.2c0.1-0.1,0.3-0.2,0.4-0.4c0.1-0.1,0.2-0.2,0.2-0.3
		c0.1-0.1,0.1-0.2,0.1-0.3c0-0.1,0-0.2,0-0.3c0-0.1,0-0.2-0.1-0.4l0-0.1l0.6,0.2l1-1.2l-0.4-0.3l0,0C49.5,52,49.5,52,49.4,52
		c-0.1,0-0.1,0.1-0.2,0.1c-0.1,0-0.1,0-0.2-0.1c-0.1,0-0.2-0.1-0.2-0.2l-1.7-1.4c-0.2-0.2-0.4-0.3-0.6-0.3c-0.2-0.1-0.4-0.1-0.6,0
		c-0.2,0-0.4,0.1-0.5,0.3s-0.4,0.3-0.6,0.6c-0.2,0.2-0.3,0.4-0.4,0.6c-0.1,0.2-0.2,0.4-0.2,0.5c0,0.2-0.1,0.3,0,0.5
		c0,0.1,0.1,0.3,0.2,0.4c0.2,0.1,0.3,0.2,0.5,0.1c0.2-0.1,0.4-0.3,0.7-0.6c-0.1-0.1-0.2-0.2-0.3-0.3c-0.1-0.1-0.1-0.2-0.2-0.3
		c0-0.1,0-0.2,0-0.3c0-0.1,0.1-0.2,0.1-0.3C45.3,51.2,45.4,51.2,45.5,51.1 M46.7,53.4c-0.1-0.1-0.1-0.2-0.1-0.3c0-0.1,0-0.2,0-0.3
		c0-0.1,0.1-0.2,0.2-0.4l0.2-0.3l0.5,0.4c0.1,0.1,0.2,0.2,0.3,0.3c0.1,0.1,0.1,0.2,0.2,0.3c0,0.1,0,0.2,0,0.3c0,0.1-0.1,0.2-0.2,0.3
		C47.7,54,47.6,54,47.5,54c-0.1,0-0.3-0.1-0.5-0.3C46.8,53.6,46.8,53.5,46.7,53.4 M46.6,56.3L46.2,56l0,0c-0.1,0.1-0.1,0.2-0.2,0.2
		c0,0.1-0.1,0.1-0.2,0.1c-0.1,0-0.1,0-0.2,0c-0.1,0-0.2-0.1-0.3-0.1l-1.7-1c-0.2-0.2-0.5-0.3-0.7-0.3c-0.2-0.1-0.4-0.1-0.6,0
		c-0.2,0-0.3,0.1-0.5,0.2c-0.1,0.1-0.3,0.3-0.4,0.5c-0.1,0.1-0.1,0.2-0.2,0.3c-0.1,0.1-0.1,0.2-0.1,0.3c0,0.1,0,0.2,0,0.4
		c0,0.1,0.1,0.3,0.2,0.4l0,0l-0.6-0.2L40,58.4l0.4,0.2l0,0c0-0.1,0.1-0.1,0.1-0.2c0-0.1,0.1-0.1,0.2-0.1c0.1,0,0.1,0,0.2,0
		c0.1,0,0.2,0.1,0.3,0.1l2.2,1.3c0.1,0.1,0.2,0.1,0.2,0.2c0,0.1,0.1,0.1,0.1,0.2s0,0.1,0,0.2c0,0.1-0.1,0.2-0.1,0.2l0,0l0.4,0.2
		l1.4-2.2l-0.4-0.2l0,0c0,0.1-0.1,0.2-0.2,0.2c-0.1,0.1-0.1,0.1-0.2,0.1c-0.1,0-0.1,0-0.2,0s-0.2-0.1-0.3-0.1l-1.4-0.9
		c-0.2-0.1-0.3-0.2-0.4-0.3c-0.1-0.1-0.2-0.2-0.3-0.3s-0.1-0.2-0.1-0.3c0-0.1,0-0.2,0.1-0.4c0.1-0.1,0.1-0.2,0.2-0.2
		c0.1,0,0.2-0.1,0.3-0.1c0.1,0,0.2,0,0.4,0.1c0.1,0.1,0.3,0.1,0.4,0.2l2.4,1.5L46.6,56.3z M38.6,61.3l0.4,0.2
		c0.1-0.2,0.2-0.3,0.2-0.4c0.1-0.1,0.2-0.1,0.3,0c0,0,0,0,0.1,0c0,0,0.1,0,0.1,0.1c0,0,0.1,0,0.1,0.1c0,0,0.1,0,0.1,0.1l1.3,1.2
		c0,0,0,0,0.1,0.1c0,0,0.1,0.1,0.1,0.1c0.1,0,0.1,0.1,0.2,0.1c0.1,0,0.1,0.1,0.2,0.1c-0.1,0-0.1,0-0.2,0c-0.1,0-0.1,0-0.2,0
		c-0.1,0-0.2,0-0.2,0c-0.1,0-0.2,0-0.3,0c-0.1,0-0.2,0-0.4,0c-0.1,0-0.3,0-0.4,0c-0.1,0-0.3,0-0.4,0c-0.2,0-0.3,0-0.4,0
		c0,0-0.1,0-0.2,0c-0.1,0-0.1,0-0.2,0c-0.1-0.1-0.2-0.1-0.2-0.2c0-0.1,0-0.2,0.1-0.4l-0.4-0.2l-1,2.2l0.5,0.2c0-0.1,0.1-0.1,0.1-0.2
		c0,0,0.1-0.1,0.1-0.1c0,0,0.1-0.1,0.2-0.1c0.1,0,0.1,0,0.2,0l4.1,0.1c0.2,0.2,0.3,0.3,0.5,0.5c0.1,0.2,0.2,0.3,0.3,0.5
		c0.1,0.2,0.1,0.4,0.1,0.6c0,0.2-0.1,0.5-0.2,0.7l0.5,0.2l0.1-0.1c0.1-0.3,0.2-0.5,0.3-0.7c0.1-0.2,0.1-0.4,0.1-0.6
		c0-0.2,0-0.3-0.1-0.5c0-0.1-0.1-0.3-0.2-0.5c-0.1-0.2-0.2-0.3-0.4-0.5c-0.2-0.2-0.3-0.3-0.6-0.5c-0.2-0.2-0.4-0.4-0.7-0.6
		s-0.5-0.4-0.7-0.7c-0.2-0.2-0.5-0.4-0.7-0.7c-0.2-0.2-0.5-0.4-0.7-0.6c-0.1-0.1-0.2-0.2-0.2-0.2c-0.1-0.1-0.1-0.1-0.1-0.2
		c0-0.1,0-0.1,0-0.2c0-0.1,0-0.1,0.1-0.2l-0.4-0.2L38.6,61.3z M38.9,67.7c0.3,0.2,0.5,0.3,0.7,0.5c0.2,0.2,0.3,0.4,0.4,0.7
		c0.1,0.2,0.1,0.5,0,0.8l-0.1,0.5l-4.9-1.3l0.1-0.5c0.1-0.6,0.5-0.9,0.9-1.1c0.5-0.2,1.1-0.2,1.9,0C38.3,67.4,38.6,67.5,38.9,67.7
		 M36.9,65.8c-0.4,0-0.7,0.2-1,0.3s-0.6,0.4-0.8,0.8c-0.2,0.3-0.4,0.7-0.5,1.2l-0.7,2.7l0.4,0.1l0.1-0.3c0-0.1,0-0.1,0.1-0.2
		c0,0,0.1-0.1,0.1-0.1c0,0,0.1,0,0.2,0c0.1,0,0.2,0,0.3,0l4,1.1c0.1,0,0.2,0.1,0.3,0.1c0.1,0,0.1,0.1,0.1,0.1c0,0,0,0.1,0,0.2
		c0,0.1,0,0.1,0,0.2l-0.1,0.3l0.4,0.1l0.7-2.7c0.1-0.5,0.2-0.9,0.1-1.3c-0.1-0.4-0.2-0.8-0.4-1.1c-0.2-0.3-0.5-0.6-0.8-0.8
		c-0.3-0.2-0.7-0.4-1.2-0.5C37.8,65.8,37.3,65.7,36.9,65.8"/>
	<path class="st3" d="M86.5,60.2h-7l-13,10.4l4.1,5.1l4.6-3.7c0.3-0.2,0.6-0.5,0.9-0.7c0.3-0.3,0.6-0.5,0.9-0.8
		c0.3-0.3,0.5-0.5,0.7-0.7c0.2-0.2,0.4-0.4,0.5-0.5c0,0.6,0,1.3-0.1,2c0,0.7-0.1,1.5-0.1,2.2c0,0.7,0,1.4-0.1,2.1c0,0.7,0,1.2,0,1.7
		v23.4h8.5V60.2z"/>
	<path class="st4" d="M86.5,60.2h-7l-13,10.4l4.1,5.1l4.6-3.7c0.3-0.2,0.6-0.5,0.9-0.7c0.3-0.3,0.6-0.5,0.9-0.8
		c0.3-0.3,0.5-0.5,0.7-0.7c0.2-0.2,0.4-0.4,0.5-0.5c0,0.6,0,1.3-0.1,2c0,0.7-0.1,1.5-0.1,2.2c0,0.7,0,1.4-0.1,2.1c0,0.7,0,1.2,0,1.7
		v23.4h8.5V60.2z"/>
</g>
</svg>
