<svg xmlns="http://www.w3.org/2000/svg" viewBox="0 0 388.94 294.39"><defs><style>.cls-1{fill:#fff;}</style></defs><title>dd-logo_white</title><g id="Livello_1" data-name="Livello 1"><path class="cls-1" d="M242.51,310.46c-.69,15,22.06,6.68,29.38,3.05a54.77,54.77,0,0,0,7.87-4.18c2.47-1.79,4.94-3.57,7.36-5.42,4-3.09,8.13-6.21,12.42-8.93,8.77-5.54,18.85-2.86,28.33-1,11.19,2.17,22.95,4.9,34.46,4.11a19.9,19.9,0,0,0,5.49-.84,36.78,36.78,0,0,0,7.64-4.29,43.49,43.49,0,0,0,10.88-10.64c3.34-4.73,6.21-9.79,9.71-14.42a31.9,31.9,0,0,1,6.61-6.92A6.09,6.09,0,0,1,406,259.6a23.32,23.32,0,0,1,3.61-.1s-.13,0-.13,0a152,152,0,0,1,17.77,2.42c8.87,1.63,17.44,4.58,26.37,5.88,4.51.66,9,1.66,13.53,2.19a37,37,0,0,0,21.29-3.29,29.81,29.81,0,0,0,5-2.94,6.58,6.58,0,0,1,.94-.82,38.07,38.07,0,0,0,8.55-6.44c2.95-2.76,5.86-5.5,10.12-6.23,2.47-.43,5.55.09,8.07.37,4.58.5,9.62,1.21,14.19.54a83.09,83.09,0,0,0,15-4c9.51-3.25,18.72-7.13,28-10.92,2.26-.93,5.36-1,7.77-1.44s4.59-1.08,6.88-1.69a17.21,17.21,0,0,0,6.47-3.12c3.24-2.62,4.16-6.58-.43-8.31-5.79-2.19-12.37-1-18.32.13-6.73,1.28-12.84,3.94-19.21,6.31-4.49,1.67-8.85,3.75-13.45,5.15-4.78,1.46-11.82,1.09-16.32-1.19-3.67-1.86-5.93-7-5.92-10.73,0-2.3.15-5.57,2.25-7L542.1,205c1.85-1.22,3.66-2.51,5.48-3.79,2.39-1.67,5.47-3.32,7.16-5.72,2.43-3.45,3.35-6.95-.53-9.4-2.88-1.83-6.38-3.11-9.48-4.55-6.46-3-13.09-5.72-19-9.61-4.79-3.14-2.94-10.59-3.72-15.36-.83-5.14-1.61-10.3-2.52-15.43-1.12-6.29-3.1-14.39-8.11-18.91-1.92-1.73-3.75-4.94-6.68-3.18-2.35,1.41-2,6.07-1.71,8.33.17,1.36.83,2.58.72,4-.18,2.37-3.15-1.15-3.5-1.46-.91-.79-3-2.2-4.18-1.33-.86.62-1.15,2.13-1.44,3-.88,2.76-.08,6,.38,8.71.84,4.92,2.71,9.37,4.46,14A45,45,0,0,0,510,170.63c1.57,1.55,4.32,4.29,3.06,6.47-1.39,2.41-2.94,4.7-4.52,7-2.37,3.46-6.13,6.79-9.4,9.46-3.73,3.05-7.36,6.22-11.33,9-4.46,3.1-8.9,6-13.55,8.84a100.26,100.26,0,0,1-29,11.59c-10.45,2.47-21.45,4.69-32.26,4.16-4.94-.25-9.89-.46-14.82-.75-2.54-.16-5.09-.26-7.61-.57-2.7-.34-4.61-2-6.78-3.44-3.89-2.65-8.1-5.42-12.71-6.76-5.08-1.48-12.66-1.35-16.24,3.1a11.12,11.12,0,0,0-2.11,4c-.36,1.35,0,2.75-.34,4.07a3.19,3.19,0,0,0,0-.69c.32,2.84.45,5.39,3.57,6.71a23.92,23.92,0,0,0,5.49,1.33c1.61.27,2.79,1.28,1.23,2.79-3.67,3.54-6.41,8.21-9,12.51-2.81,4.67-5.47,9.51-8.67,14-4.53,6.28-11.95,9.51-19.69,10.29-10,1-19.9,2.29-29.87,3.25-2.27.22-5.63.23-7.47,1.59a43.14,43.14,0,0,0-5.67,5.3c-3.56,3.74-7.29,7.26-11.05,10.81a41.3,41.3,0,0,1-10.48,7.64,82.53,82.53,0,0,1-12,4.51c-2.34.69-5.17,1.29-6.21,3.71" transform="translate(-224.58 -118.58)"/></g><g id="_Livello_" data-name="&lt;Livello&gt;"><path class="cls-1" d="M257.12,383.49,255,394.58h9.69v4.81H254.05l-2.46,12.87h-5.13L249,399.39H238.83l-2.49,12.87h-5l2.36-12.87h-9.09v-4.81h10l2.21-11.09h-9.59v-4.77h10.45l2.42-12.62h5.13l-2.38,12.62h10.23l2.46-12.62h5l-2.46,12.62h9.16v4.77Zm-17.4,11.09h10.2l2.14-11.09H241.9Z" transform="translate(-224.58 -118.58)"/><path class="cls-1" d="M289.37,413q-7.64,0-11.84-5.27t-4.2-14.94q0-9.58,4.22-15t11.89-5.38q7.88,0,12.12,5.77H302c-.07-.47-.17-1.43-.28-2.87s-.18-2.4-.18-2.9V356.8H308v55.46h-5.16l-1-5.24h-.28Q297.45,413,289.37,413Zm1-5.31c3.9,0,6.74-1.06,8.54-3.19s2.69-5.61,2.69-10.46v-1.18q0-8.16-2.73-11.63t-8.57-3.48a8.74,8.74,0,0,0-7.66,3.94Q280,385.61,280,392.9t2.69,11A9,9,0,0,0,290.4,407.66Z" transform="translate(-224.58 -118.58)"/><path class="cls-1" d="M333.26,413q-7.63,0-11.84-5.27t-4.2-14.94q0-9.58,4.22-15t11.89-5.38q7.88,0,12.12,5.77h.46c-.07-.47-.17-1.43-.28-2.87s-.18-2.4-.18-2.9V356.8h6.41v55.46H346.7l-1-5.24h-.28Q341.34,413,333.26,413Zm1-5.31c3.9,0,6.74-1.06,8.54-3.19s2.69-5.61,2.69-10.46v-1.18q0-8.16-2.73-11.63t-8.57-3.48a8.74,8.74,0,0,0-7.66,3.94q-2.71,3.94-2.71,11.24t2.69,11A9,9,0,0,0,334.29,407.66Z" transform="translate(-224.58 -118.58)"/><path class="cls-1" d="M381.17,372.41a21.71,21.71,0,0,1,4.59.43l-.78,5.91a19.07,19.07,0,0,0-4.24-.5A10.44,10.44,0,0,0,375,380a11.64,11.64,0,0,0-4.15,4.72,14.77,14.77,0,0,0-1.5,6.68v20.89h-6.41V373.12h5.27l.71,7.17h.29a17,17,0,0,1,5.31-5.88A12,12,0,0,1,381.17,372.41Z" transform="translate(-224.58 -118.58)"/><path class="cls-1" d="M425.69,392.62q0,9.58-4.85,15T407.44,413A17.84,17.84,0,0,1,398,410.5a16.3,16.3,0,0,1-6.31-7.12,24.73,24.73,0,0,1-2.21-10.76q0-9.56,4.78-14.88t13.4-5.33q8.26,0,13.13,5.43T425.69,392.62Zm-29.55,0q0,7.38,2.91,11.21t8.57,3.83q5.6,0,8.52-3.83t2.92-11.21q0-7.38-2.94-11.1t-8.61-3.73Q396.14,377.79,396.14,392.62Z" transform="translate(-224.58 -118.58)"/><path class="cls-1" d="M453.36,372.48q7.74,0,11.94,5.33t4.21,14.88q0,9.71-4.28,15T453.36,413a16.73,16.73,0,0,1-7.06-1.42,12.41,12.41,0,0,1-5.06-4.25h-.5q-1.1,4.29-1.32,5h-4.59V356.8h6.41v13.47c0,2.69-.12,5.37-.35,8.06h.35Q445.2,372.48,453.36,372.48Zm-1.07,5.31q-5.91,0-8.48,3.35c-1.71,2.24-2.57,6-2.57,11.34v.28q0,8,2.62,11.46t8.58,3.44q5.26,0,7.85-3.87t2.59-11.17q0-7.41-2.6-11.12T452.29,377.79Z" transform="translate(-224.58 -118.58)"/><path class="cls-1" d="M513,392.62q0,9.58-4.84,15T494.76,413a17.86,17.86,0,0,1-9.41-2.47,16.36,16.36,0,0,1-6.31-7.12,24.73,24.73,0,0,1-2.21-10.76q0-9.56,4.78-14.88t13.4-5.33q8.28,0,13.14,5.43T513,392.62Zm-29.55,0q0,7.38,2.91,11.21t8.57,3.83q5.6,0,8.52-3.83t2.92-11.21q0-7.38-2.94-11.1t-8.61-3.73Q483.46,377.79,483.46,392.62Z" transform="translate(-224.58 -118.58)"/><path class="cls-1" d="M534.94,407.73a19.59,19.59,0,0,0,2.92-.25,12.24,12.24,0,0,0,2.53-.57v4.92a14.27,14.27,0,0,1-2.76.77,19.28,19.28,0,0,1-3.8.37q-11.48,0-11.47-12.08V378.11h-5.53v-3.06l5.6-2.57,2.57-8.34h3.81v9h11.3v5h-11.3v22.6a7.6,7.6,0,0,0,1.62,5.21A5.74,5.74,0,0,0,534.94,407.73Z" transform="translate(-224.58 -118.58)"/><path class="cls-1" d="M563.31,413q-8.8,0-13.81-5.33t-5-14.66q0-9.42,4.67-15t12.62-5.58q7.38,0,11.76,4.76t4.39,12.88v3.89H551.12q.18,6.66,3.39,10.12t9.09,3.46a31.56,31.56,0,0,0,5.95-.55,34,34,0,0,0,6.59-2.16v5.63a30.75,30.75,0,0,1-6.09,2A34.81,34.81,0,0,1,563.31,413Zm-1.6-35.32a9.31,9.31,0,0,0-7.27,3,14,14,0,0,0-3.18,8.23h19.93q-.08-5.49-2.53-8.34A8.69,8.69,0,0,0,561.71,377.65Z" transform="translate(-224.58 -118.58)"/><path class="cls-1" d="M602.79,413q-8.44,0-13.15-5.18t-4.71-14.89q0-9.82,4.76-15.16t13.56-5.33a27.51,27.51,0,0,1,5.65.59,18.53,18.53,0,0,1,4.62,1.51l-2,5.35a24.81,24.81,0,0,0-8.45-1.85c-3.94,0-6.86,1.24-8.73,3.72s-2.82,6.18-2.82,11.1q0,7.1,2.82,10.86c1.87,2.5,4.66,3.76,8.34,3.76a24.26,24.26,0,0,0,10.16-2.28v5.7A21.82,21.82,0,0,1,602.79,413Z" transform="translate(-224.58 -118.58)"/></g></svg>